# Blender 4.0.2
# www.blender.org
mtllib crash.mtl
o crashbandicoot
v 17.999992 21.000000 -21.000008
v 23.999990 23.999998 -30.000010
v 19.999990 19.999998 -32.000008
v 31.999990 23.999998 -28.000011
v 26.999994 21.000000 -20.000010
v 21.999996 20.000000 -13.000008
v 15.999994 20.000000 -17.000006
v -26.000006 21.000000 -19.999992
v -31.000010 23.999998 -27.999990
v -35.000008 19.999998 -24.999989
v -21.000004 20.000000 -12.999994
v -16.000004 32.000000 -11.999996
v -15.000006 20.000000 -16.999996
v -17.000008 21.000000 -20.999996
v -23.000010 23.999998 -29.999994
v -19.000010 19.999998 -31.999994
v 35.999992 19.999998 -25.000013
v 16.999996 32.000000 -12.000007
v -11.000008 12.999999 -22.999996
v 11.999992 12.999999 -23.000004
v -35.000008 12.999999 -19.999989
v 35.999992 12.999999 -20.000011
v -8.000006 12.999999 -18.999998
v 8.999994 12.999999 -19.000004
v -14.000004 32.000000 -12.999997
v 14.999996 32.000000 -13.000007
v -0.000011 120.000000 -34.000004
v -14.000010 125.000000 -28.000000
v -0.000015 119.000000 -46.000004
v -20.000006 137.000000 -17.000000
v -19.000002 142.000000 -5.000000
v -23.000008 141.000000 -20.999998
v -20.000002 134.000000 -7.000000
v -18.000006 134.000000 -19.000000
v -20.000006 131.000000 -20.000000
v -35.000004 159.000000 -8.999995
v -11.000003 149.000000 -9.000003
v -38.000000 63.000000 -0.999990
v -43.000000 70.000000 3.000011
v -36.000000 65.000000 -2.999991
v 13.999999 39.000000 -4.000006
v 15.999997 51.000000 -9.000008
v 8.999998 51.000000 -7.000005
v 6.999994 39.000000 -17.000004
v 41.000004 68.000000 6.999984
v 47.000004 69.000000 6.999982
v 41.000004 74.000000 6.999983
v 33.000000 96.000000 -0.000015
v 31.000002 95.000000 2.999986
v 29.000002 99.000000 2.999986
v 51.000004 58.000000 10.999981
v 19.999998 39.000000 -5.000008
v 18.999996 51.000000 -14.000009
v 44.000000 70.000000 1.999983
v 43.000000 75.000000 3.999983
v 42.000004 50.000000 6.999984
v 41.000000 55.000000 0.999984
v 36.000000 53.000000 -1.000014
v 47.000004 57.000000 7.999982
v 52.000000 58.000000 3.999980
v 39.000004 73.000000 5.999984
v 46.000000 56.000000 -3.000017
v 51.000004 50.000000 14.999981
v 43.000004 40.000000 10.999984
v 46.000004 43.000000 11.999983
v 12.999998 93.000000 -6.000008
v 18.999996 115.000000 -9.000011
v 19.000002 111.000000 2.999989
v 12.000001 93.000000 1.999992
v -4.200011 137.000000 -35.000004
v -7.000011 133.000000 -34.000004
v -7.200011 136.000000 -35.000004
v -33.000000 59.000000 -4.999992
v -34.000004 62.000000 -6.999991
v 39.000000 73.000000 2.999984
v 32.000000 91.000000 2.999986
v 8.999996 92.000000 -11.000007
v 6.999994 105.000000 -17.000008
v 15.999994 120.000000 -17.000010
v -0.000005 92.000000 -15.000004
v -0.000006 104.000000 -18.000004
v -6.000002 62.000000 -6.000001
v 6.999998 62.000000 -6.000005
v -0.000000 72.000000 -1.000003
v 9.999991 107.000000 -25.000008
v 11.999992 101.000000 -22.000008
v -0.000006 62.000000 -19.000002
v 9.999991 108.000000 -25.000008
v 17.999992 129.000000 -21.000011
v 5.999996 77.000000 -12.000006
v 10.999992 47.000000 -24.000006
v 12.999992 40.000000 -23.000006
v -6.000007 62.000000 -21.000000
v -9.000008 52.000000 -24.000000
v -5.000004 77.000000 -12.000002
v -0.000005 79.000000 -16.000004
v -1.000005 77.000000 -15.000003
v 33.000000 45.000000 4.999987
v -18.000004 51.000000 -13.999996
v -15.000008 52.000000 -23.999998
v -16.000008 47.000000 -23.999996
v -6.000006 39.000000 -17.000000
v -5.000005 51.000000 -14.000001
v -8.000002 51.000000 -7.000000
v 8.999998 82.000000 -5.000007
v 31.000000 68.000000 -1.000013
v 6.999993 62.000000 -21.000006
v 9.999997 73.000000 -10.000007
v 12.999995 62.000000 -16.000008
v 15.999992 52.000000 -24.000008
v 3.999995 71.000000 -17.000004
v 32.000000 66.000000 0.999987
v 38.000000 63.000000 -0.000015
v 24.999998 60.000000 -6.000011
v 31.999998 62.000000 -5.000013
v 30.999998 59.000000 -3.000013
v 3.999983 125.000000 -52.000008
v 14.999990 125.000000 -28.000010
v -3.000005 71.000000 -17.000002
v 29.000000 63.000000 -1.000012
v 42.000000 74.000000 2.999983
v 4.199988 137.000000 -35.000008
v 8.199988 139.000000 -35.000008
v 7.199988 136.000000 -35.000008
v -10.000008 47.000000 -23.999998
v -32.000000 96.000000 0.000006
v -18.000004 115.000000 -8.999999
v -27.999998 99.000000 3.000005
v 0.999992 159.000000 -24.000008
v -1.000008 150.000000 -23.000006
v 0.999993 157.000000 -21.000008
v 41.000000 73.000000 1.999983
v -40.999996 50.000000 7.000011
v -47.999996 50.000000 17.000013
v -45.999996 44.000000 16.000013
v -9.000003 73.000000 -10.000000
v -0.000008 156.000000 -26.000008
v 1.999992 150.000000 -23.000008
v -0.000010 157.000000 -30.000008
v 1.999995 150.000000 -14.000008
v 2.999998 158.000000 -6.000008
v 0.999997 152.000000 -9.000007
v 11.999989 132.000000 -34.000011
v 8.999994 8.999999 -19.000004
v 7.999996 12.999999 -13.000003
v 35.000004 91.000000 6.999985
v 40.000004 92.000000 6.999983
v 38.000004 97.000000 7.999983
v -0.000011 135.000000 -34.000008
v -0.000014 131.000000 -44.000008
v -0.000005 150.000000 -14.000007
v -1.000000 150.000000 -1.000006
v 2.999992 158.000000 -24.000008
v 7.999993 171.000000 -22.000010
v 21.999994 152.000000 -19.000013
v 35.999996 159.000000 -9.000019
v 17.999992 140.000000 -21.000011
v 1.999989 143.000000 -35.000008
v 6.999989 145.000000 -34.000008
v 6.199988 141.000000 -35.000008
v 35.000004 41.000000 8.999987
v 11.999990 141.000000 -33.000011
v -11.000008 101.000000 -22.000000
v -9.000009 107.000000 -25.000002
v 0.999991 103.000000 -27.000006
v -12.000005 62.000000 -15.999999
v 35.000000 65.000000 -3.000014
v -2.000005 162.000000 -14.000007
v 13.999997 42.000000 -10.000007
v 11.999995 44.000000 -16.000006
v 12.999996 32.000000 -12.000006
v 0.999996 155.000000 -11.000007
v 9.999992 52.000000 -24.000006
v 5.999995 51.000000 -14.000004
v -0.000005 74.000000 -16.000004
v -6.000001 73.000000 -5.000001
v -13.000003 62.000000 -9.999998
v 33.000004 96.000000 7.999985
v 18.999994 134.000000 -19.000011
v 7.999989 133.000000 -34.000008
v 1.999995 77.000000 -15.000004
v 13.999997 62.000000 -10.000008
v 14.999997 32.000000 -9.000007
v 17.999996 32.000000 -10.000008
v -2.000010 157.000000 -30.000006
v 16.999992 47.000000 -24.000008
v -47.000000 56.000000 -0.999987
v -37.000000 53.000000 -1.999990
v 4.199988 139.000000 -35.000008
v 12.999990 135.000000 -33.000011
v -5.000013 165.000000 -39.000004
v 0.999991 107.000000 -28.000006
v -30.000002 63.000000 -3.999993
v -33.000000 66.000000 -0.999992
v -0.000008 108.000000 -26.000004
v -15.000006 120.000000 -17.000000
v -15.000003 51.000000 -8.999997
v -42.000000 74.000000 3.000010
v -40.000000 73.000000 2.000010
v -32.000000 68.000000 -2.999993
v -6.000006 105.000000 -17.000002
v -8.000004 92.000000 -11.000001
v 6.999999 73.000000 -5.000005
v -38.999996 92.000000 7.000009
v -36.999996 97.000000 8.000008
v -39.000000 98.000000 3.000008
v -33.999996 91.000000 7.000007
v -31.999998 96.000000 8.000007
v -32.999996 41.000000 7.000009
v -37.999996 43.000000 8.000010
v -0.000009 148.000000 -29.000006
v 6.999990 147.000000 -31.000010
v 20.999994 131.000000 -20.000013
v -11.000010 141.000000 -33.000004
v -6.000011 145.000000 -34.000004
v -6.200011 141.000000 -35.000004
v -42.999996 43.000000 13.000012
v 40.000000 98.000000 2.999983
v 20.999994 137.000000 -17.000013
v 23.999992 141.000000 -21.000013
v 19.999998 142.000000 -5.000013
v 20.999998 134.000000 -7.000013
v 40.000004 43.000000 8.999985
v 49.000004 44.000000 13.999982
v -9.000009 108.000000 -25.000002
v -13.000001 39.000000 -3.999997
v -38.999996 68.000000 7.000010
v -39.999996 74.000000 7.000010
v -44.999996 69.000000 8.000011
v -29.999998 95.000000 3.000006
v -47.999996 58.000000 13.000013
v -44.999996 57.000000 9.000012
v -19.000002 39.000000 -4.999996
v -42.000000 75.000000 5.000010
v -41.000000 55.000000 2.000011
v -50.999996 58.000000 7.000014
v -37.999996 73.000000 6.000009
v -39.999996 40.000000 11.000011
v -17.999998 111.000000 3.000001
v -12.000002 93.000000 -6.000000
v -30.999998 91.000000 3.000006
v -8.000002 82.000000 -5.000001
v -10.999999 93.000000 2.000000
v -38.000000 73.000000 3.000009
v 17.999996 42.000000 -12.000008
v 17.999994 44.000000 -16.000008
v -33.000000 45.000000 3.000009
v -9.000010 123.000000 -28.000002
v -17.000008 129.000000 -21.000000
v -11.000011 132.000000 -34.000004
v -1.000011 143.000000 -35.000008
v -4.200011 139.000000 -35.000004
v -12.000008 40.000000 -22.999998
v -0.000010 122.000000 -30.000006
v -28.000004 60.000000 -8.999993
v 16.999989 8.999998 -35.000008
v 16.999989 12.999998 -35.000008
v 37.999989 12.999998 -40.000011
v 37.999989 8.999998 -40.000011
v 27.999985 8.999998 -44.000008
v -12.000010 135.000000 -33.000004
v -8.200011 139.000000 -35.000004
v -3.000017 125.000000 -52.000004
v 14.999994 44.000000 -18.000008
v 11.999997 149.000000 -9.000010
v -6.000010 147.000000 -31.000004
v -37.000008 12.999999 -25.999989
v -7.000004 12.999999 -12.999998
v -9.000002 13.000000 -6.999998
v -9.000002 9.000000 -6.999998
v -27.000015 8.999998 -43.999992
v -37.000011 12.999998 -39.999989
v -26.000015 12.999998 -43.999992
v -12.000004 32.000000 -11.999997
v -33.000011 20.999998 -38.999989
v -14.000006 44.000000 -17.999998
v -12.000008 8.999999 -22.999996
v -16.000011 8.999998 -34.999996
v -35.000008 8.999999 -19.999989
v -37.000008 8.999999 -24.999989
v -19.000002 9.000000 -4.999994
v -13.000002 13.000000 -4.999996
v -19.000002 13.000000 -4.999994
v -14.000003 32.000000 -8.999997
v -16.000011 12.999998 -34.999996
v -13.000002 9.000000 -4.999996
v -8.000006 8.999999 -18.999998
v -11.000005 44.000000 -15.999998
v -17.000004 32.000000 -9.999996
v 19.999998 13.000000 -5.000007
v -37.000011 8.999998 -39.999989
v -13.000003 42.000000 -9.999997
v -17.000006 44.000000 -15.999996
v -17.000004 42.000000 -11.999996
v 37.999992 12.999999 -26.000013
v 9.999998 9.000000 -7.000004
v 9.999998 13.000000 -7.000004
v 26.999985 12.999998 -44.000008
v 33.999989 20.999998 -39.000011
v 12.999992 8.999999 -23.000004
v 35.999992 8.999999 -20.000011
v 37.999992 8.999999 -25.000013
v 19.999998 9.000000 -5.000007
v 13.999998 13.000000 -5.000005
v 13.999998 9.000000 -5.000005
v 9.999990 123.000000 -28.000010
v -0.000009 121.000000 -29.000006
v -18.000004 153.000000 -13.000001
v -15.999999 133.000000 3.999999
v 0.000000 138.000000 0.999994
v -17.000008 140.000000 -21.000000
v -10.000008 149.000000 -23.000004
v -16.000008 144.000000 -23.000002
v -21.000006 152.000000 -19.000000
v -18.000011 148.000000 -33.000000
v 8.000000 82.000000 -0.000006
v -8.000003 77.000000 -10.000001
v 29.999998 66.000000 -4.000013
v 45.000000 46.000000 1.999983
v 32.000004 100.000000 7.999985
v 19.000002 120.000000 7.999989
v 35.000004 102.000000 7.999984
v 38.000000 97.000000 -0.000017
v 8.999997 77.000000 -10.000007
v 19.999994 129.000000 -15.000012
v 42.000000 93.000000 2.999982
v 10.999992 149.000000 -23.000010
v -30.999998 100.000000 8.000006
v 4.999989 149.000000 -34.000008
v -41.000000 93.000000 3.000009
v -0.000017 122.000000 -53.000004
v -1.000010 156.000000 -32.000008
v 24.999998 63.000000 -7.000011
v 16.999989 145.000000 -33.000011
v 18.999989 148.000000 -33.000011
v 21.999996 122.000000 -11.000012
v -7.000000 82.000000 -0.000001
v -4.000011 149.000000 -34.000004
v -45.000000 46.000000 3.000013
v -20.000011 139.000000 -34.000000
v 20.999989 139.000000 -34.000011
v -16.000011 145.000000 -33.000000
v -0.000017 127.000000 -53.000004
v -21.000004 122.000000 -10.999998
v 18.999996 153.000000 -13.000013
v 16.999992 144.000000 -23.000011
v 17.000002 133.000000 3.999989
v -31.000002 66.000000 -5.999993
v -33.999996 102.000000 8.000007
v -37.000000 97.000000 0.000008
v -17.999998 120.000000 8.000001
v -19.000006 129.000000 -14.999999
v -28.000004 63.000000 -9.999993
v 21.000002 121.000000 3.999988
v -19.999998 121.000000 4.000001
v -25.000000 124.000000 1.000003
v 26.000000 124.000000 0.999986
v 8.999991 114.000000 -27.000008
v -0.000009 114.000000 -27.000006
v 8.847390 114.859703 -28.000008
v 0.039691 114.859703 -28.000006
v -7.887209 114.859703 -28.000002
v -0.000020 129.000000 -62.000004
v -0.000020 119.000000 -62.000004
v -8.000009 114.000000 -27.000002
v 0.000001 88.000000 2.999996
v 0.000003 130.000000 7.999994
v 0.000003 113.000000 9.999995
v 38.000000 103.000000 2.999983
v -37.000000 103.000000 3.000008
v 23.999994 39.000000 -15.000010
v -23.000006 39.000000 -14.999994
v -26.000002 125.000000 -4.999997
v 26.999998 125.000000 -5.000014
v 5.999979 126.000000 -64.000008
v -5.000021 126.000000 -64.000008
v -0.000023 125.000000 -70.000008
v 19.999992 39.000000 -22.000008
v -19.000008 39.000000 -21.999996
vn -0.4551 0.8904 -0.0064
vn -0.2893 0.9383 -0.1896
vn -0.6191 0.6500 -0.4407
vn 0.3376 0.9342 0.1155
vn 0.2675 0.8579 0.4387
vn 0.6953 0.6773 0.2407
vn -0.1596 0.7368 -0.6570
vn -0.2675 0.8579 0.4387
vn -0.3376 0.9342 0.1155
vn -0.7537 0.5658 0.3344
vn -0.6953 0.6773 0.2407
vn -0.7149 0.0380 -0.6981
vn 0.1596 0.7368 -0.6570
vn 0.4551 0.8904 -0.0064
vn 0.2893 0.9383 -0.1896
vn 0.6191 0.6500 -0.4407
vn 0.7537 0.5658 0.3344
vn 0.7149 0.0380 -0.6981
vn 0.7022 0.6345 -0.3230
vn -0.7022 0.6345 -0.3230
vn -0.6858 0.4664 0.5587
vn 0.6858 0.4664 0.5587
vn 0.5738 0.6968 -0.4304
vn -0.5738 0.6968 -0.4304
vn -0.4240 0.3180 -0.8480
vn 0.4240 0.3180 -0.8480
vn -0.0084 -0.9755 0.2197
vn -0.7774 -0.6182 -0.1162
vn -0.0347 -0.9622 -0.2702
vn -0.9069 -0.3327 -0.2584
vn -0.6285 0.2105 0.7488
vn -0.5955 -0.1965 -0.7790
vn -0.9612 0.2670 0.0688
vn -0.9021 -0.0176 -0.4312
vn -0.9926 0.1211 -0.0023
vn -0.7823 0.5866 0.2095
vn 0.1191 0.8738 0.4715
vn 0.3873 -0.0932 -0.9172
vn -0.7188 0.3102 -0.6222
vn -0.4995 0.2832 -0.8187
vn -0.2727 0.1594 0.9488
vn 0.5944 0.2801 0.7538
vn -0.4598 -0.0887 0.8836
vn -0.9754 -0.1730 -0.1368
vn -0.4085 -0.0914 0.9082
vn 0.6890 0.5492 0.4729
vn 0.0674 0.3020 0.9509
vn -0.3712 -0.3655 -0.8536
vn -0.9338 -0.3521 -0.0640
vn -0.7980 -0.5940 0.1015
vn 0.4055 0.2640 0.8752
vn 0.5707 0.3993 0.7176
vn 0.9217 0.3799 0.0781
vn 0.5319 0.3745 -0.7594
vn 0.7572 0.6365 -0.1468
vn -0.5603 0.4321 0.7067
vn -0.5907 0.5687 0.5724
vn -0.8361 0.0564 -0.5457
vn 0.5153 0.3798 0.7682
vn -0.6551 0.3742 0.6563
vn 0.8598 0.4044 -0.3117
vn -0.6263 0.1881 0.7565
vn 0.2048 0.2982 -0.9323
vn -0.6069 -0.2628 0.7501
vn 0.4778 -0.0858 0.8742
vn -0.1451 -0.8692 0.4727
vn -0.0016 -0.6928 0.7212
vn 0.9076 -0.3443 -0.2404
vn 0.5448 -0.4757 -0.6906
vn 0.3712 -0.6090 0.7009
vn 0.6722 -0.3648 0.6442
vn 0.1573 -0.1645 -0.9738
vn -0.0969 -0.3170 -0.9435
vn -0.1673 -0.2589 -0.9513
vn -0.2196 -0.9608 0.1695
vn -0.7066 0.1857 -0.6828
vn -0.7352 -0.0886 -0.6720
vn -0.7733 -0.3340 -0.5390
vn -0.9545 -0.2925 -0.0574
vn 0.6480 -0.2570 -0.7170
vn 0.4802 -0.8097 -0.3373
vn 0.8668 -0.3169 -0.3849
vn -0.0260 -0.1763 -0.9840
vn -0.0248 -0.8302 -0.5569
vn -0.0617 -0.3837 0.9214
vn 0.0653 -0.3633 0.9294
vn -0.0340 -0.2294 0.9727
vn 0.5544 -0.1285 -0.8223
vn 0.5800 -0.8135 -0.0430
vn 0.0532 -0.2282 -0.9722
vn 0.3950 0.0514 -0.9173
vn 0.6405 -0.7440 -0.1904
vn 0.6188 0.2206 -0.7539
vn -0.4780 -0.1221 -0.8698
vn -0.2409 -0.2044 -0.9488
vn -0.0948 0.4257 -0.8999
vn 0.4629 -0.0428 -0.8854
vn -0.6409 0.2094 -0.7385
vn -0.0536 -0.0553 -0.9970
vn -0.4099 -0.0324 -0.9116
vn -0.9819 -0.1611 -0.1000
vn -0.9217 0.3799 0.0781
vn -0.5642 0.2964 -0.7706
vn -0.5244 0.0605 -0.8493
vn 0.9754 -0.1730 -0.1368
vn 0.9654 -0.2515 0.0689
vn 0.4694 -0.0788 0.8795
vn 0.9751 -0.2172 -0.0450
vn -0.4913 0.8602 -0.1364
vn 0.1163 0.4301 -0.8953
vn 0.8959 0.4443 0.0039
vn 0.7566 0.5084 -0.4112
vn 0.5642 0.2964 -0.7706
vn 0.2657 0.4041 -0.8753
vn -0.5644 0.0726 0.8223
vn -0.6233 -0.1805 -0.7609
vn -0.9458 -0.1291 -0.2979
vn -0.3678 -0.3897 0.8443
vn -0.7206 -0.6343 -0.2798
vn 0.5272 -0.2127 -0.8227
vn 0.1739 -0.9789 0.1072
vn 0.9695 0.0614 -0.2372
vn 0.7741 -0.6215 -0.1203
vn -0.2651 0.3990 -0.8778
vn -0.6007 -0.0274 0.7990
vn -0.4056 0.8709 -0.2775
vn 0.3637 0.3044 -0.8804
vn -0.0000 -0.0000 -1.0000
vn 0.4780 -0.1221 -0.8698
vn 0.3712 -0.3655 -0.8536
vn -0.5448 -0.4757 -0.6906
vn 0.7980 -0.5940 0.1015
vn -0.8945 0.4455 -0.0388
vn -0.7434 0.6611 -0.1011
vn 0.0648 0.6646 0.7444
vn 0.2123 -0.7787 0.5903
vn 0.7271 0.4022 0.5564
vn -0.2783 -0.0137 0.9604
vn -0.1467 -0.6126 0.7767
vn -0.8959 0.4443 0.0039
vn -0.2309 0.9730 0.0040
vn 0.7066 0.6843 -0.1801
vn 0.9350 0.3249 -0.1423
vn 0.6921 0.7041 0.1589
vn 0.2194 0.7078 0.6715
vn 0.0330 0.5100 0.8596
vn 0.7012 0.2653 -0.6618
vn -0.9194 -0.0000 -0.3934
vn -0.9193 -0.1131 -0.3769
vn -0.9714 -0.2245 0.0777
vn -0.4398 -0.2046 0.8745
vn 0.5669 0.0703 0.8208
vn 0.5173 0.1649 0.8398
vn -0.2384 0.8132 -0.5309
vn -0.0140 0.8775 -0.4793
vn -0.0318 0.8932 -0.4485
vn -0.7722 0.5757 0.2688
vn -0.1880 0.5320 0.8256
vn 0.9325 -0.2443 -0.2660
vn 0.4376 0.8932 0.1032
vn 0.0247 0.5625 -0.8264
vn 0.7823 0.5866 0.2095
vn 0.7343 -0.0899 -0.6728
vn -0.0127 0.0558 -0.9984
vn 0.2241 0.1939 -0.9551
vn 0.1772 0.1673 -0.9698
vn -0.5233 -0.6996 0.4866
vn 0.3814 0.1454 -0.9129
vn -0.5833 -0.8108 -0.0482
vn -0.5405 -0.1329 -0.8308
vn 0.0089 -0.7687 -0.6396
vn -0.7566 0.5084 -0.4112
vn 0.2933 0.3584 -0.8863
vn -0.2333 0.9220 0.3091
vn -0.5012 0.1197 0.8570
vn -0.8413 -0.2327 -0.4878
vn -0.9773 0.1296 -0.1678
vn -0.2895 0.9349 0.2052
vn -0.4532 -0.0493 -0.8901
vn -0.9543 -0.2916 0.0661
vn -0.0380 0.3880 -0.9209
vn 0.3026 0.4630 -0.8331
vn -0.6540 0.0438 0.7553
vn -0.8599 0.2885 0.4212
vn -0.5029 -0.2336 0.8322
vn 0.9021 -0.0176 -0.4312
vn 0.2240 0.8160 -0.5329
vn 0.4540 0.0202 -0.8908
vn 0.8599 0.2885 0.4212
vn -0.2980 0.2013 0.9331
vn 0.8680 0.2319 0.4391
vn -0.9860 -0.0512 0.1586
vn 0.5244 0.0605 -0.8493
vn -0.4716 0.2947 -0.8311
vn 0.8147 -0.1501 -0.5601
vn -0.1204 -0.0394 -0.9919
vn 0.0037 -0.1726 -0.9850
vn 0.3570 -0.0701 -0.9315
vn 0.3484 0.1287 -0.9285
vn -0.3139 0.4392 -0.8417
vn -0.1552 -0.1741 -0.9724
vn 0.1111 -0.2497 -0.9619
vn 0.1257 -0.2779 -0.9523
vn -0.3166 0.6444 -0.6961
vn 0.0168 0.3550 -0.9347
vn 0.7764 -0.0704 0.6263
vn 0.6634 -0.2021 0.7205
vn -0.0166 0.8910 -0.4538
vn -0.8668 -0.3169 -0.3849
vn -0.5944 0.2801 0.7538
vn -0.8442 0.2317 -0.4834
vn 0.0633 0.7545 -0.6533
vn 0.5368 0.7496 -0.3871
vn -0.4952 -0.8028 -0.3321
vn -0.6620 -0.2547 -0.7049
vn 0.6271 0.0419 0.7778
vn -0.5614 0.0779 0.8238
vn -0.5173 0.1649 0.8398
vn -0.9217 0.3793 -0.0813
vn 0.4398 -0.2046 0.8745
vn 0.5029 -0.2336 0.8322
vn 0.6755 -0.6703 0.3073
vn 0.3510 -0.6334 0.6896
vn -0.1028 0.4930 -0.8640
vn 0.0014 0.8084 -0.5887
vn 0.1394 0.9807 -0.1370
vn 0.9926 0.1211 -0.0023
vn -0.4532 0.1975 -0.8693
vn -0.2179 0.2469 -0.9442
vn -0.2148 0.2100 -0.9538
vn 0.2487 -0.6507 0.7174
vn 0.9217 0.3793 -0.0813
vn 0.9069 -0.3327 -0.2584
vn 0.5955 -0.1965 -0.7790
vn 0.6271 0.2105 0.7500
vn 0.9612 0.2670 0.0688
vn 0.4265 -0.8853 0.1851
vn 0.5209 0.0254 -0.8532
vn -0.5804 -0.1655 0.7973
vn -0.1868 -0.5813 0.7920
vn 0.3917 -0.6003 0.6973
vn -0.3863 0.0420 -0.9214
vn 0.2727 0.1594 0.9488
vn 0.6133 -0.0748 0.7863
vn 0.0115 0.3076 0.9515
vn -0.5973 0.5564 0.5776
vn 0.9338 -0.3521 -0.0640
vn -0.1604 0.2510 0.9546
vn 0.7524 -0.3042 0.5843
vn -0.5707 0.3993 0.7176
vn -0.8417 0.4843 0.2389
vn 0.6686 -0.0302 -0.7430
vn 0.7769 0.4452 0.4452
vn 0.8130 0.3269 0.4818
vn -0.1689 0.4506 0.8766
vn -0.8948 0.4409 -0.0702
vn 0.7122 0.1806 0.6784
vn 0.3337 -0.8493 0.4091
vn -0.3712 -0.6090 0.7009
vn -0.9076 -0.3443 -0.2404
vn 0.9545 -0.2925 -0.0574
vn -0.9751 -0.2172 -0.0450
vn -0.6779 -0.3641 0.6387
vn 0.7733 -0.3340 -0.5390
vn 0.9079 0.0822 0.4110
vn 0.7430 -0.2456 -0.6226
vn 0.9132 -0.1172 -0.3904
vn -0.2870 -0.7229 -0.6285
vn -0.6405 -0.7441 -0.1900
vn -0.7012 0.2653 -0.6618
vn 0.0169 0.0496 -0.9986
vn 0.1049 -0.0450 -0.9935
vn 0.2409 -0.2044 -0.9488
vn -0.0097 -0.9921 -0.1252
vn 0.7686 -0.1658 0.6179
vn 0.6412 -0.3594 0.6780
vn 0.6081 -0.6688 -0.4277
vn -0.8169 -0.0381 -0.5756
vn -0.8437 -0.1459 -0.5166
vn -0.8160 -0.0000 -0.5781
vn 0.8260 0.0117 -0.5635
vn 0.8281 -0.0000 -0.5606
vn -0.0875 -0.0339 -0.9956
vn -0.4162 -0.1097 -0.9026
vn -0.4247 0.1485 -0.8931
vn -0.4993 -0.8393 0.2151
vn 0.4809 0.8474 -0.2252
vn -0.9759 0.0718 -0.2062
vn -0.0000 -0.3653 -0.9309
vn -0.1343 -0.1189 -0.9838
vn -0.8148 0.3326 -0.4749
vn -0.1202 0.8728 0.4731
vn 0.0999 0.4785 -0.8724
vn -0.3204 0.8774 -0.3572
vn -0.9573 0.2538 0.1381
vn 0.9714 -0.2245 0.0777
vn 0.7555 -0.0000 0.6552
vn 0.7802 -0.0746 0.6210
vn 0.0875 -0.0339 -0.9956
vn -0.8260 0.0117 -0.5635
vn 0.2445 -0.0431 -0.9687
vn 0.9773 0.1296 -0.1678
vn 0.8148 0.3326 -0.4749
vn 0.1343 -0.1189 -0.9838
vn -0.3773 0.7323 -0.5669
vn 0.2119 0.5837 -0.7838
vn -0.7589 0.4024 -0.5120
vn 0.8407 -0.2102 -0.4990
vn 0.8169 -0.0381 -0.5756
vn 0.8437 -0.1459 -0.5166
vn -0.8362 0.0172 0.5482
vn -0.9884 0.0231 0.1500
vn -0.9747 0.0542 0.2169
vn -0.3677 -0.0000 0.9299
vn 0.2298 -0.0000 0.9732
vn 0.2249 0.2121 0.9510
vn 0.2980 0.2013 0.9331
vn -0.4274 0.3431 0.8364
vn -0.8421 -0.0000 0.5394
vn 0.6946 0.5136 -0.5037
vn 0.7379 0.2363 0.6322
vn 0.9658 0.2507 0.0658
vn 0.9193 -0.1131 -0.3769
vn 0.8413 -0.2327 -0.4878
vn -0.8680 0.2319 0.4391
vn 0.8160 -0.0000 -0.5781
vn 0.4274 0.3431 0.8364
vn -0.8281 -0.0000 -0.5606
vn 0.9194 -0.0000 -0.3934
vn 0.5012 0.1197 0.8570
vn -0.7430 -0.2456 -0.6226
vn -0.9079 0.0822 0.4110
vn 0.9573 0.2538 0.1381
vn -0.7802 -0.0746 0.6210
vn -0.7555 -0.0000 0.6552
vn -0.2445 -0.0431 -0.9687
vn 0.3773 0.7323 -0.5669
vn 0.7589 0.4024 -0.5120
vn -0.2120 0.5837 -0.7838
vn -0.8407 -0.2102 -0.4990
vn 0.8362 0.0172 0.5482
vn 0.9747 0.0542 0.2169
vn 0.9884 0.0231 0.1500
vn 0.3677 -0.0000 0.9299
vn -0.2298 -0.0000 0.9732
vn -0.2249 0.2121 0.9510
vn 0.8421 -0.0000 0.5394
vn -0.6946 0.5136 -0.5037
vn -0.7379 0.2363 0.6322
vn -0.9658 0.2507 0.0658
vn 0.2719 -0.6873 -0.6735
vn -0.0107 -0.7071 -0.7071
vn 0.4792 0.8656 -0.1452
vn -0.4338 0.5063 0.7453
vn -0.0014 0.6759 0.7370
vn -0.7343 -0.0899 -0.6728
vn -0.3963 0.8912 -0.2206
vn -0.6984 0.4147 -0.5833
vn -0.8182 0.0210 -0.5746
vn -0.0247 0.5625 -0.8264
vn 0.8327 -0.2225 -0.5070
vn -0.9030 0.4285 -0.0309
vn 0.7418 0.4112 0.5298
vn -0.7568 0.4308 -0.4917
vn 0.8030 -0.2653 0.5336
vn 0.6373 -0.3419 0.6906
vn -0.8211 -0.2553 0.5105
vn -0.8659 0.2995 -0.4007
vn -0.9327 0.3036 -0.1947
vn -0.3005 0.8356 -0.4598
vn -0.8903 0.4553 -0.0068
vn 0.3969 -0.6468 -0.6512
vn 0.9068 -0.3153 -0.2798
vn 0.4548 -0.4343 -0.7775
vn -0.4094 -0.1500 0.8999
vn 0.5804 0.0094 0.8142
vn 0.3878 0.2859 0.8763
vn 0.0903 -0.1315 -0.9872
vn 0.4993 0.0382 -0.8656
vn 0.6934 0.0267 -0.7201
vn 0.8659 0.2995 -0.4007
vn 0.8824 -0.0992 -0.4598
vn 0.9844 0.0464 -0.1695
vn 0.9662 0.1745 -0.1895
vn 0.1700 -0.0648 0.9833
vn -0.7953 -0.2922 0.5311
vn 0.3966 0.8906 -0.2227
vn 0.7568 0.4308 -0.4917
vn 0.3794 -0.0141 -0.9251
vn 0.4094 -0.1500 0.8999
vn -0.1868 0.9488 -0.2546
vn -0.9491 0.1269 0.2883
vn -0.9636 0.1587 -0.2150
vn -0.0831 -0.9965 0.0124
vn 0.0776 -0.4553 -0.8869
vn -0.7079 0.3433 -0.6172
vn 0.9327 0.3036 -0.1947
vn 0.9996 0.0212 0.0208
vn 0.9030 0.4286 -0.0309
vn -0.1597 0.8214 -0.5476
vn 0.9030 0.4285 -0.0309
vn 0.6884 -0.1782 -0.7032
vn -0.0326 -0.4129 0.9102
vn -0.6482 -0.3371 0.6828
vn 0.8182 0.0210 -0.5746
vn 0.1868 0.9488 -0.2546
vn 0.3795 -0.0141 -0.9251
vn -0.5407 -0.6338 -0.5531
vn -0.7995 -0.5904 -0.1103
vn 0.7995 -0.5904 -0.1103
vn -0.9996 0.0212 0.0208
vn -0.0693 0.9961 -0.0540
vn -0.6884 -0.1782 -0.7032
vn -0.4792 0.8656 -0.1452
vn -0.9711 -0.2331 -0.0521
vn 0.6984 0.4147 -0.5833
vn 0.4307 0.5062 0.7471
vn -0.5897 0.4561 -0.6665
vn 0.2990 0.8822 -0.3636
vn 0.8571 0.4286 -0.2857
vn 0.7807 0.6079 -0.1450
vn -0.6512 -0.3905 -0.6507
vn -0.3878 0.2859 0.8763
vn -0.0086 -0.1334 -0.9910
vn -0.5008 0.0354 -0.8648
vn -0.7645 0.0828 -0.6393
vn -0.5830 0.0095 0.8124
vn -0.8824 -0.0992 -0.4598
vn -0.0848 -0.0660 0.9942
vn 0.7953 -0.2922 0.5311
vn -0.5873 0.4577 -0.6675
vn 0.5632 0.3142 -0.7642
vn 0.5691 0.1678 0.8050
vn -0.5691 0.1678 0.8050
vn -0.6754 0.4754 0.5637
vn 0.6754 0.4754 0.5637
vn 0.4369 -0.1935 -0.8784
vn -0.0040 -0.2202 -0.9755
vn -0.0000 -0.1644 -0.9864
vn 0.2358 -0.0785 -0.9686
vn 0.5084 -0.0720 -0.8581
vn 0.6923 -0.1085 -0.7134
vn -0.0050 -0.0922 -0.9957
vn -0.0000 -0.1607 -0.9870
vn -0.2390 -0.0818 -0.9676
vn -0.0000 -1.0000 -0.0000
vn 0.3126 -0.2531 -0.9155
vn -0.0392 0.9969 -0.0684
vn -0.0438 -0.9889 -0.1419
vn -0.4383 -0.1908 -0.8784
vn -0.3197 -0.2512 -0.9136
vn -0.6916 -0.1063 -0.7145
vn -0.4585 -0.6477 -0.6085
vn -0.4982 -0.6289 -0.5969
vn -0.0000 -0.7583 -0.6519
vn 0.4875 -0.6239 -0.6108
vn 0.4625 -0.6362 -0.6175
vn -0.5124 -0.0700 -0.8559
vn -0.0098 -0.2541 0.9671
vn -0.0032 0.4043 0.9146
vn -0.0051 -0.1188 0.9929
vn 0.9209 0.3866 0.0507
vn -0.9209 0.3866 0.0507
vn 0.9373 0.3463 -0.0396
vn -0.9373 0.3463 -0.0396
vn -0.8891 0.4019 -0.2190
vn 0.8891 0.4019 -0.2190
vn 0.9319 0.1986 -0.3035
vn -0.9376 0.2103 -0.2769
vn -0.0340 0.0251 -0.9991
vn 0.6553 0.0786 -0.7512
vn -0.6553 0.0786 -0.7512
vt 0.802425 0.321200
vt 0.806225 0.164550
vt 0.894225 0.140700
vt 0.701775 0.159500
vt 0.710375 0.268450
vt 0.704375 0.390100
vt 0.805825 0.387100
vt 0.711625 0.268800
vt 0.703025 0.159850
vt 0.673875 0.164800
vt 0.705575 0.390450
vt 0.734325 0.465000
vt 0.807025 0.387500
vt 0.803625 0.321600
vt 0.807425 0.164900
vt 0.895425 0.141050
vt 0.672625 0.164450
vt 0.733075 0.464650
vt 0.917825 0.310650
vt 0.916625 0.310300
vt 0.591575 0.207150
vt 0.590375 0.206750
vt 0.932325 0.402050
vt 0.931075 0.401650
vt 0.778825 0.465950
vt 0.777575 0.465600
vt 0.845213 0.843821
vt 0.873263 0.872171
vt 0.845213 0.787121
vt 0.667513 0.971821
vt 0.666963 0.976071
vt 0.669213 0.975221
vt 0.604813 0.970821
vt 0.604263 0.977421
vt 0.604813 0.973321
vt 0.807363 0.872171
vt 0.801613 0.840171
vt 0.810213 0.861521
vt 0.675863 0.990471
vt 0.612713 0.991421
vt 0.600063 0.983171
vt 0.836213 0.947471
vt 0.853513 0.990621
vt 0.829313 0.959821
vt 0.536463 0.513021
vt 0.530113 0.610321
vt 0.552363 0.610321
vt 0.558713 0.513021
vt 0.779363 0.952921
vt 0.794863 0.958671
vt 0.779363 0.987421
vt 0.576813 0.939521
vt 0.577863 0.938721
vt 0.578913 0.942021
vt 0.805213 0.895421
vt 0.517363 0.513021
vt 0.520563 0.610321
vt 0.787113 0.964421
vt 0.784563 0.993171
vt 0.632913 0.898171
vt 0.633513 0.902421
vt 0.636263 0.900721
vt 0.627913 0.904921
vt 0.630163 0.904071
vt 0.807813 0.895421
vt 0.774213 0.981671
vt 0.792313 0.883921
vt 0.794863 0.889671
vt 0.567313 0.908271
vt 0.572063 0.901671
vt 0.567313 0.901671
vt 0.571513 0.893421
vt 0.569963 0.895921
vt 0.649113 0.934571
vt 0.645763 0.953221
vt 0.645763 0.949821
vt 0.584213 0.955171
vt 0.584213 0.951871
vt 0.587913 0.937071
vt 0.587363 0.937071
vt 0.908663 0.670421
vt 0.899713 0.631721
vt 0.895213 0.660721
vt 0.611663 0.909071
vt 0.613263 0.914021
vt 0.612213 0.911521
vt 0.573663 0.920621
vt 0.577363 0.935421
vt 0.890313 0.931121
vt 0.894063 0.960921
vt 0.877163 0.995321
vt 0.640213 0.939671
vt 0.940713 0.994371
vt 0.970963 0.882921
vt 0.970963 0.985771
vt 0.540513 0.689471
vt 0.520513 0.689471
vt 0.531263 0.739421
vt 0.767313 0.776221
vt 0.758713 0.822421
vt 0.764463 0.754871
vt 0.637713 0.743121
vt 0.658213 0.743121
vt 0.631813 0.635621
vt 0.827063 0.754871
vt 0.827063 0.760221
vt 0.813663 0.872171
vt 0.895963 0.896671
vt 0.907213 0.931121
vt 0.546013 0.577871
vt 0.539613 0.521121
vt 0.675813 0.743121
vt 0.684613 0.645371
vt 0.916563 0.896671
vt 0.907213 0.901271
vt 0.909063 0.896671
vt 0.575213 0.904121
vt 0.576813 0.897521
vt 0.520513 0.610321
vt 0.530063 0.618421
vt 0.526913 0.577871
vt 0.610763 0.505621
vt 0.622113 0.612071
vt 0.587963 0.612071
vt 0.589513 0.928021
vt 0.549163 0.618421
vt 0.753513 0.952921
vt 0.515863 0.744421
vt 0.511263 0.689471
vt 0.506663 0.639571
vt 0.525113 0.734421
vt 0.818063 0.966771
vt 0.838763 0.948271
vt 0.849163 0.979121
vt 0.831863 0.886671
vt 0.849163 0.899021
vt 0.581063 0.909921
vt 0.577363 0.911521
vt 0.577863 0.909071
vt 0.837163 0.758771
vt 0.815113 0.872171
vt 0.531263 0.689471
vt 0.535913 0.734421
vt 0.578913 0.912371
vt 0.756113 0.941421
vt 0.781963 0.987421
vt 0.587813 0.744121
vt 0.582563 0.696621
vt 0.594813 0.696621
vt 0.933663 0.529821
vt 0.877663 0.574271
vt 0.891663 0.507571
vt 0.565163 0.576571
vt 0.576563 0.620921
vt 0.866413 0.905171
vt 0.859513 0.991421
vt 0.611163 0.939521
vt 0.603763 0.955171
vt 0.609013 0.942021
vt 0.650813 0.803021
vt 0.628413 0.805771
vt 0.645813 0.811271
vt 0.779363 0.981671
vt 0.615913 0.901671
vt 0.619613 0.901671
vt 0.618563 0.896721
vt 0.672863 0.635621
vt 0.545163 0.744421
vt 0.643363 0.797521
vt 0.645813 0.786471
vt 0.628413 0.830521
vt 0.648313 0.852521
vt 0.633363 0.844271
vt 0.760163 0.840171
vt 0.775863 0.840171
vt 0.764463 0.865071
vt 0.880463 0.742171
vt 0.880463 0.633671
vt 0.878663 0.742171
vt 0.575763 0.935421
vt 0.573113 0.936271
vt 0.574163 0.940371
vt 0.597963 0.970021
vt 0.594263 0.971671
vt 0.594263 0.968371
vt 0.628413 0.866321
vt 0.648313 0.803021
vt 0.680713 0.808521
vt 0.951313 0.578321
vt 0.940213 0.618971
vt 0.954463 0.508521
vt 0.926613 0.728671
vt 0.904263 0.748021
vt 0.899763 0.709321
vt 0.575763 0.894271
vt 0.869913 0.911321
vt 0.881863 0.709321
vt 0.797363 0.754871
vt 0.794463 0.776221
vt 0.780163 0.761971
vt 0.549763 0.689471
vt 0.763863 0.935671
vt 0.658263 0.830521
vt 0.502013 0.634571
vt 0.554413 0.639571
vt 0.559013 0.634571
vt 0.648563 0.891371
vt 0.649663 0.893071
vt 0.649113 0.882921
vt 0.640863 0.838771
vt 0.576663 0.620921
vt 0.565263 0.576571
vt 0.622213 0.612071
vt 0.907213 0.889821
vt 0.899713 0.882921
vt 0.540513 0.744421
vt 0.551313 0.689471
vt 0.610813 0.505621
vt 0.588063 0.612071
vt 0.637963 0.937121
vt 0.636863 0.932871
vt 0.635163 0.937971
vt 0.754413 0.872171
vt 0.590013 0.970021
vt 0.903463 0.896671
vt 0.545163 0.639571
vt 0.506663 0.634571
vt 0.509713 0.689471
vt 0.586313 0.886821
vt 0.584763 0.886821
vt 0.586863 0.895071
vt 0.828413 0.960621
vt 0.530113 0.618421
vt 0.867313 0.904371
vt 0.832763 0.885871
vt 0.681663 0.635621
vt 0.908713 0.689971
vt 0.935563 0.651271
vt 0.877413 0.651271
vt 0.890813 0.689971
vt 0.515863 0.639571
vt 0.912813 0.882921
vt 0.908713 0.670621
vt 0.895313 0.660971
vt 0.899763 0.631921
vt 0.665763 0.761721
vt 0.780163 0.776221
vt 0.610113 0.912371
vt 0.611663 0.914821
vt 0.890113 0.759221
vt 0.905163 0.753921
vt 0.906863 0.759221
vt 0.803063 0.822421
vt 0.554413 0.634571
vt 0.785463 0.987621
vt 0.780313 0.981871
vt 0.759663 0.953121
vt 0.918463 0.960921
vt 0.922213 0.931121
vt 0.935313 0.995321
vt 0.520513 0.744421
vt 0.614863 0.936271
vt 0.613813 0.940371
vt 0.614863 0.941171
vt 0.675313 0.932871
vt 0.674213 0.937121
vt 0.677013 0.937971
vt 0.611663 0.894271
vt 0.614313 0.895921
vt 0.593213 0.978271
vt 0.594263 0.982371
vt 0.590563 0.981521
vt 0.751563 0.861521
vt 0.881813 0.709121
vt 0.904163 0.747771
vt 0.899713 0.709121
vt 0.616963 0.895921
vt 0.755863 0.854371
vt 0.573113 0.941171
vt 0.933663 0.574271
vt 0.905663 0.618771
vt 0.644663 0.971821
vt 0.642963 0.975221
vt 0.645213 0.976071
vt 0.583163 0.970821
vt 0.583163 0.973321
vt 0.583663 0.977421
vt 0.581563 0.976621
vt 0.584763 0.975771
vt 0.574163 0.912371
vt 0.575763 0.914021
vt 0.577363 0.914821
vt 0.573113 0.895921
vt 0.568363 0.896721
vt 0.921913 0.759221
vt 0.530063 0.610321
vt 0.777713 0.953121
vt 0.780313 0.987621
vt 0.793263 0.958871
vt 0.610113 0.938721
vt 0.801013 0.895621
vt 0.793263 0.889871
vt 0.785463 0.993371
vt 0.788063 0.964621
vt 0.677013 0.900721
vt 0.679213 0.902421
vt 0.679213 0.898171
vt 0.681463 0.904071
vt 0.683113 0.904921
vt 0.808763 0.895621
vt 0.775163 0.981871
vt 0.612213 0.935421
vt 0.798413 0.884121
vt 0.619613 0.908271
vt 0.615363 0.893421
vt 0.666413 0.949821
vt 0.666413 0.953221
vt 0.663063 0.934571
vt 0.610613 0.935421
vt 0.600563 0.937071
vt 0.598463 0.928021
vt 0.600063 0.937071
vt 0.614313 0.920621
vt 0.996913 0.994371
vt 0.671963 0.939671
vt 0.679713 0.729471
vt 0.658963 0.648321
vt 0.634763 0.729471
vt 0.605313 0.696621
vt 0.621063 0.638571
vt 0.608813 0.638571
vt 0.590113 0.939071
vt 0.590113 0.930821
vt 0.590113 0.940721
vt 0.600063 0.744121
vt 0.611663 0.897521
vt 0.613813 0.904121
vt 0.794463 0.833071
vt 0.805913 0.854371
vt 0.603763 0.951871
vt 0.797363 0.865071
vt 0.926513 0.728471
vt 0.908663 0.689771
vt 0.579063 0.638571
vt 0.566813 0.638571
vt 0.872263 0.872171
vt 0.838663 0.757821
vt 0.860263 0.872171
vt 0.818913 0.965971
vt 0.839663 0.978271
vt 0.846563 0.898171
vt 0.609013 0.909921
vt 0.894913 0.633671
vt 0.885863 0.742171
vt 0.894913 0.742171
vt 0.932863 0.742171
vt 0.932863 0.633671
vt 0.914763 0.633671
vt 0.762213 0.941621
vt 0.891863 0.507771
vt 0.933863 0.574521
vt 0.933863 0.530021
vt 0.877313 0.651071
vt 0.890763 0.689771
vt 0.585263 0.886821
vt 0.584763 0.896721
vt 0.614313 0.912371
vt 0.628913 0.645371
vt 0.877863 0.574521
vt 0.905863 0.618971
vt 0.640613 0.635621
vt 0.636263 0.990471
vt 0.785913 0.840171
vt 0.586313 0.896721
vt 0.584763 0.895071
vt 0.851213 0.758771
vt 0.822815 0.434881
vt 0.821890 0.429006
vt 0.828340 0.426081
vt 0.860413 0.910521
vt 0.769963 0.935871
vt 0.575213 0.991421
vt 0.587913 0.983171
vt 0.594763 0.978271
vt 0.597413 0.981521
vt 0.756763 0.950371
vt 0.756763 0.935721
vt 0.753063 0.932771
vt 0.882313 0.742171
vt 0.882313 0.633671
vt 0.914813 0.633671
vt 0.932913 0.742171
vt 0.913013 0.742171
vt 0.799063 0.973821
vt 0.806413 0.953321
vt 0.795363 0.970921
vt 0.760413 0.894671
vt 0.773313 0.880021
vt 0.753063 0.891721
vt 0.601663 0.896721
vt 0.601663 0.886821
vt 0.602713 0.886821
vt 0.887713 0.633671
vt 0.894963 0.633671
vt 0.885913 0.742171
vt 0.929263 0.633671
vt 0.932913 0.633671
vt 0.900363 0.633671
vt 0.889513 0.742171
vt 0.900363 0.742171
vt 0.797213 0.994371
vt 0.795363 0.982621
vt 0.786163 0.994371
vt 0.587363 0.886821
vt 0.929263 0.742171
vt 0.786163 0.915171
vt 0.791713 0.906371
vt 0.800913 0.941571
vt 0.889513 0.633671
vt 0.804563 0.988471
vt 0.808263 0.970921
vt 0.880513 0.633671
vt 0.664163 0.893071
vt 0.662513 0.893071
vt 0.663063 0.882921
vt 0.789863 0.979671
vt 0.600563 0.886821
vt 0.894963 0.742171
vt 0.756713 0.950371
vt 0.782463 0.970921
vt 0.821915 0.429006
vt 0.880513 0.742171
vt 0.663613 0.891371
vt 0.601113 0.895071
vt 0.603213 0.886821
vt 0.648013 0.893071
vt 0.603213 0.896721
vt 0.603213 0.895071
vt 0.782513 0.970921
vt 0.791713 0.973821
vt 0.789813 0.979671
vt 0.756713 0.935721
vt 0.882263 0.633671
vt 0.882263 0.742171
vt 0.912963 0.742171
vt 0.799013 0.973821
vt 0.773263 0.880021
vt 0.887663 0.633671
vt 0.900313 0.633671
vt 0.900313 0.742171
vt 0.791663 0.973821
vt 0.791663 0.906371
vt 0.800863 0.941571
vt 0.808213 0.970921
vt 0.781613 0.829521
vt 0.767313 0.833071
vt 0.838663 0.814971
vt 0.814613 0.872171
vt 0.858863 0.760221
vt 0.858863 0.754871
vt 0.842113 0.754871
vt 0.764113 0.926921
vt 0.778813 0.921071
vt 0.764063 0.926921
vt 0.535413 0.983771
vt 0.538763 0.987221
vt 0.546913 0.992421
vt 0.537813 0.969971
vt 0.539263 0.977721
vt 0.539763 0.970821
vt 0.530163 0.974271
vt 0.541163 0.976871
vt 0.538313 0.976021
vt 0.539763 0.973421
vt 0.530163 0.984621
vt 0.534963 0.983771
vt 0.537813 0.979471
vt 0.535913 0.971721
vt 0.793313 0.883921
vt 0.797613 0.889471
vt 0.806313 0.989471
vt 0.540213 0.986371
vt 0.728613 0.701871
vt 0.744913 0.733571
vt 0.728613 0.723021
vt 0.996413 0.618971
vt 0.985363 0.578321
vt 0.982163 0.508521
vt 0.538763 0.970821
vt 0.535413 0.976871
vt 0.526813 0.918221
vt 0.525863 0.925971
vt 0.526313 0.925971
vt 0.533013 0.918221
vt 0.534013 0.921671
vt 0.534463 0.918221
vt 0.513363 0.911321
vt 0.515763 0.912171
vt 0.515313 0.913921
vt 0.508613 0.894971
vt 0.514363 0.894071
vt 0.512913 0.900971
vt 0.505263 0.905321
vt 0.505713 0.898421
vt 0.508113 0.903571
vt 0.511963 0.938921
vt 0.514813 0.941521
vt 0.514363 0.938071
vt 0.505713 0.905321
vt 0.521063 0.951021
vt 0.521063 0.958771
vt 0.524413 0.935471
vt 0.516263 0.940671
vt 0.515313 0.937221
vt 0.511013 0.939771
vt 0.513363 0.943221
vt 0.510513 0.918221
vt 0.511463 0.918221
vt 0.510013 0.919071
vt 0.527263 0.921671
vt 0.525863 0.921671
vt 0.525863 0.934621
vt 0.523913 0.935471
vt 0.918313 0.778671
vt 0.905863 0.769721
vt 0.907663 0.774171
vt 0.520113 0.973421
vt 0.520563 0.966521
vt 0.521063 0.970821
vt 0.522513 0.958771
vt 0.509563 0.919971
vt 0.511013 0.934621
vt 0.510013 0.935471
vt 0.520113 0.970821
vt 0.961113 0.633671
vt 0.991563 0.633671
vt 0.961113 0.742171
vt 0.655263 0.976921
vt 0.656913 0.976921
vt 0.656363 0.981121
vt 0.510513 0.919071
vt 0.513363 0.933771
vt 0.514813 0.933771
vt 0.533013 0.982071
vt 0.521063 0.954471
vt 0.509563 0.889771
vt 0.508113 0.892371
vt 0.511013 0.892371
vt 0.514813 0.912171
vt 0.999613 1.000471
vt 0.597513 0.799971
vt 0.585413 0.802571
vt 0.594513 0.794721
vt 0.526813 0.982071
vt 0.524863 0.983771
vt 0.524413 0.976871
vt 0.766263 0.655371
vt 0.773063 0.700721
vt 0.773063 0.723371
vt 0.543563 0.940671
vt 0.545013 0.941521
vt 0.544513 0.937221
vt 0.599013 0.799971
vt 0.717763 0.680771
vt 0.713663 0.744121
vt 0.710963 0.701871
vt 0.530613 0.984621
vt 0.550263 0.919971
vt 0.548863 0.934621
vt 0.549813 0.935471
vt 0.603563 0.826121
vt 0.585413 0.826121
vt 0.597513 0.847021
vt 0.592963 0.833971
vt 0.567313 0.865321
vt 0.585413 0.860071
vt 0.907663 0.841371
vt 0.907663 0.854821
vt 0.900513 0.868271
vt 0.942113 0.633671
vt 0.949713 0.633671
vt 0.949713 0.742171
vt 0.528263 0.963071
vt 0.530163 0.968271
vt 0.526313 0.969971
vt 0.532563 0.921671
vt 0.594513 0.779021
vt 0.582413 0.786871
vt 0.596013 0.784271
vt 0.518163 0.909621
vt 0.518163 0.907021
vt 0.516263 0.909621
vt 0.525363 0.918221
vt 0.759463 0.700721
vt 0.756713 0.734721
vt 0.608113 0.760721
vt 0.710963 0.723021
vt 0.694663 0.733571
vt 0.528263 0.916521
vt 0.617163 0.805171
vt 0.927213 0.760721
vt 0.531613 0.916521
vt 0.519613 0.960471
vt 0.530163 0.917371
vt 0.533513 0.925971
vt 0.523913 0.971721
vt 0.521513 0.976021
vt 0.783913 0.678021
vt 0.787963 0.746071
vt 0.790713 0.723371
vt 0.886263 0.760721
vt 0.895163 0.778671
vt 0.547863 0.938921
vt 0.545513 0.938071
vt 0.529213 0.984621
vt 0.545963 0.890621
vt 0.548363 0.892371
vt 0.551713 0.894971
vt 0.804313 0.700721
vt 0.807013 0.734721
vt 0.790713 0.700721
vt 0.880913 0.868271
vt 0.907663 0.845871
vt 0.934363 0.845871
vt 0.531613 0.963071
vt 0.530163 0.964821
vt 0.768013 0.883921
vt 0.755013 0.989471
vt 0.763663 0.889471
vt 0.540213 0.960471
vt 0.537363 0.958771
vt 0.538763 0.954471
vt 0.524413 0.983771
vt 0.512913 0.992421
vt 0.521063 0.987221
vt 0.519613 0.986371
vt 0.554613 0.905321
vt 0.552213 0.893221
vt 0.553163 0.898421
vt 0.694413 0.770521
vt 0.742763 0.770521
vt 0.726663 0.862371
vt 0.754013 0.632671
vt 0.530163 0.982921
vt 0.522013 0.979471
vt 0.809713 0.632671
vt 0.691963 0.638571
vt 0.697363 0.701871
vt 0.879163 0.845871
vt 0.522013 0.969971
vt 0.520563 0.977721
vt 0.544513 0.909621
vt 0.545013 0.912171
vt 0.545963 0.912171
vt 0.779813 0.678021
vt 0.775763 0.746071
vt 0.912963 0.868271
vt 0.692913 0.992421
vt 0.728413 0.886821
vt 0.746163 0.992421
vt 0.656363 0.970121
vt 0.546463 0.908771
vt 0.547413 0.911321
vt 0.514813 0.908771
vt 0.513363 0.890621
vt 0.506663 0.893221
vt 0.534013 0.925971
vt 0.545513 0.913921
vt 0.547863 0.900971
vt 0.545963 0.894071
vt 0.552663 0.903571
vt 0.553163 0.905321
vt 0.546463 0.933771
vt 0.545013 0.933771
vt 0.546463 0.943221
vt 0.548863 0.939771
vt 0.549313 0.918221
vt 0.548363 0.918221
vt 0.524413 0.969121
vt 0.535413 0.935471
vt 0.534013 0.934621
vt 0.535913 0.935471
vt 0.538763 0.951021
vt 0.550263 0.919071
vt 0.538763 0.958771
vt 0.539263 0.966521
vt 0.932563 0.868271
vt 0.549313 0.919071
vt 0.940213 0.633671
vt 0.945913 0.742171
vt 0.947813 0.633671
vt 0.757913 0.894671
vt 0.806313 0.955921
vt 0.806313 0.986521
vt 0.549313 0.889771
vt 0.550763 0.892371
vt 0.797513 0.655371
vt 0.721813 0.680771
vt 0.725913 0.744121
vt 0.535413 0.969121
vt 0.747663 0.638571
vt 0.742213 0.701871
vt 0.543563 0.909621
vt 0.543563 0.907021
vt 0.533513 0.969971
vt 0.955563 0.633671
vt 0.976463 0.633671
vt 0.974563 0.742171
vt 0.961263 0.742171
vt 0.991663 0.742171
vt 0.991663 0.633671
vt 0.955563 0.742171
vt 0.942263 0.742171
vt 0.949863 0.742171
vt 0.942263 0.633671
vt 0.995463 0.633671
vt 0.995463 0.742171
vt 0.940363 0.633671
vt 0.946063 0.742171
vt 0.940363 0.742171
vt 0.961263 0.633671
vt 0.949863 0.633671
vt 0.947963 0.633671
vt 0.955413 0.633671
vt 0.974413 0.742171
vt 0.976313 0.633671
vt 0.991563 0.742171
vt 0.955413 0.742171
vt 0.942113 0.742171
vt 0.995363 0.633671
vt 0.995363 0.742171
vt 0.940213 0.742171
vt 0.520113 0.959621
vt 0.539763 0.959621
vt 0.542113 0.962221
vt 0.517713 0.962221
vt 0.953963 0.788721
vt 0.969163 0.754871
vt 0.969163 0.788721
vt 0.952263 0.788721
vt 0.952263 0.839471
vt 0.938763 0.873321
vt 0.969163 0.828171
vt 0.984363 0.788721
vt 0.994363 0.560371
vt 0.976713 0.509521
vt 0.994363 0.520221
vt 0.952263 0.754871
vt 0.950213 0.565721
vt 0.990863 0.573771
vt 0.962613 0.613921
vt 0.980513 0.607321
vt 0.982063 0.616071
vt 0.975963 0.616071
vt 0.532713 0.864721
vt 0.512113 0.871171
vt 0.532713 0.806571
vt 0.943163 0.576421
vt 0.952013 0.613921
vt 0.944913 0.608521
vt 0.959213 0.610221
vt 0.959213 0.616071
vt 0.953163 0.616071
vt 0.982713 0.788721
vt 0.984363 0.754871
vt 0.997913 0.873321
vt 0.548213 0.871171
vt 0.970563 0.844171
vt 0.954413 0.870071
vt 0.954413 0.857121
vt 0.983963 0.857121
vt 0.983963 0.870071
vt 0.990963 0.573971
vt 0.976813 0.509721
vt 0.957413 0.533821
vt 0.950313 0.565921
vt 0.952113 0.614121
vt 0.943263 0.576621
vt 0.945013 0.608771
vt 0.994463 0.560571
vt 0.962713 0.614121
vt 0.994463 0.520421
vt 0.957313 0.533621
vt 0.980513 0.543171
vt 0.994213 0.586921
vt 0.982063 0.543171
vt 0.968363 0.543171
vt 0.953163 0.543171
vt 0.954663 0.543171
vt 0.940963 0.586921
vt 0.984363 0.839471
vt 0.005636 0.001300
vt 0.006386 0.310500
vt 0.260286 0.242700
vt 0.260286 0.000500
vt 0.007336 0.996200
vt 0.260286 0.999500
vt 0.260286 0.878400
vt 0.260286 0.621100
vt 0.503286 0.727000
vt 0.500686 0.310500
vt 0.003786 0.727000
vt 0.503386 0.007200
vt 0.497786 0.994200
vt 0.511963 0.944121
vt 0.547863 0.944121
vt 0.504613 0.513021
vt 0.542613 0.963071
vt 0.517213 0.963071
vt 0.501813 0.793671
vt 0.558513 0.793671
vt 0.532713 0.754871
s 1
usemtl crashmat
f 1/1/1 2/2/2 3/3/3
f 4/4/4 2/2/2 5/5/5
f 6/6/6 1/1/1 7/7/7
f 8/8/8 9/9/9 10/10/10
f 11/11/11 12/12/12 13/13/13
f 13/13/13 14/14/14 11/11/11
f 8/8/8 15/15/15 9/9/9
f 16/16/16 15/15/15 14/14/14
f 17/17/17 4/4/4 5/5/5
f 7/7/7 18/18/18 6/6/6
f 16/16/16 14/14/14 19/19/19
f 19/19/19 14/14/14 13/13/13
f 7/7/7 1/1/1 20/20/20
f 20/20/20 1/1/1 3/3/3
f 21/21/21 8/8/8 10/10/10
f 11/11/11 8/8/8 21/21/21
f 22/22/22 5/5/5 6/6/6
f 17/17/17 5/5/5 22/22/22
f 19/19/19 13/13/13 23/23/23
f 24/24/24 7/7/7 20/20/20
f 13/13/13 12/12/12 25/25/25
f 26/26/26 18/18/18 7/7/7
f 27/27/27 28/28/28 29/29/29
f 30/30/30 31/31/31 32/32/32
f 33/33/33 31/34/31 30/35/30
f 34/36/34 28/37/28 35/38/35
f 31/31/31 36/39/36 32/32/32
f 36/40/36 31/34/31 37/41/37
f 38/42/38 39/43/39 40/44/40
f 41/45/41 42/46/42 43/47/43
f 44/48/44 41/45/41 43/47/43
f 45/49/45 46/50/46 47/51/47
f 48/52/48 49/53/49 50/54/50
f 51/55/51 46/50/46 45/49/45
f 42/46/42 52/56/52 53/57/53
f 46/50/46 54/58/54 55/59/55
f 56/60/56 57/61/57 58/62/58
f 56/60/56 51/63/59 59/64/60
f 51/55/51 60/65/61 46/50/46
f 61/66/62 45/49/45 47/51/47
f 60/65/61 62/67/63 54/58/54
f 45/49/45 59/68/64 51/55/51
f 51/69/59 56/70/56 63/71/65
f 60/65/61 54/58/54 46/50/46
f 64/72/66 65/73/67 56/70/56
f 47/51/47 46/50/46 55/59/55
f 66/74/68 67/75/69 68/76/70
f 50/54/50 67/77/69 48/52/48
f 68/78/70 69/79/71 66/80/68
f 70/81/72 71/82/73 72/83/74
f 73/84/75 40/85/76 74/86/77
f 75/87/78 76/88/79 48/52/48
f 77/89/80 78/90/81 79/91/82
f 68/76/70 67/75/69 50/92/50
f 78/93/81 80/94/83 81/95/84
f 82/96/85 83/97/86 84/98/87
f 85/99/88 79/100/82 86/101/89
f 83/102/86 87/103/90 43/104/43
f 85/105/88 88/106/91 89/107/92
f 77/89/80 90/108/93 80/109/83
f 91/110/94 92/111/95 44/48/44
f 93/112/96 87/103/90 94/113/97
f 95/114/98 96/115/99 97/116/100
f 58/117/58 98/118/101 56/70/56
f 99/119/102 100/120/103 101/121/104
f 102/122/105 103/123/106 104/124/107
f 69/79/71 105/125/108 66/80/68
f 100/120/103 94/126/97 101/121/104
f 61/66/62 106/127/109 45/49/45
f 48/52/48 76/88/79 49/53/49
f 107/97/110 108/128/111 109/129/112
f 107/97/110 109/129/112 110/130/113
f 108/128/111 107/97/110 111/131/114
f 112/132/115 113/133/116 45/134/45
f 58/135/117 57/136/118 45/134/45
f 114/137/119 115/138/120 116/139/121
f 117/140/122 118/141/123 29/29/29
f 87/142/90 119/143/124 111/131/114
f 114/137/119 116/139/121 120/144/125
f 106/127/109 112/145/115 45/49/45
f 106/127/109 61/66/62 75/66/126
f 54/58/54 121/146/127 55/59/55
f 111/147/114 107/148/110 87/149/90
f 122/150/128 123/151/128 124/152/128
f 125/153/129 94/154/97 103/123/106
f 62/155/63 113/133/116 54/156/54
f 126/157/130 127/158/131 128/159/132
f 129/160/133 130/161/134 131/162/135
f 106/127/109 75/66/126 132/163/136
f 133/164/137 134/165/138 135/166/139
f 103/167/106 94/113/97 87/103/90
f 93/96/96 136/168/140 119/143/124
f 137/169/141 138/161/142 139/170/143
f 140/171/144 141/172/145 142/173/146
f 118/174/123 117/175/122 143/176/147
f 24/177/148 144/178/149 145/179/150
f 146/180/151 147/181/152 148/182/153
f 71/183/154 149/184/155 150/185/156
f 142/173/146 151/171/157 152/186/158
f 153/187/159 154/188/160 131/162/135
f 155/189/161 156/190/162 157/191/163
f 158/192/164 159/193/165 160/194/166
f 57/61/57 56/60/56 59/64/60
f 98/118/101 161/195/167 56/70/56
f 57/136/118 59/196/64 45/134/45
f 45/134/45 113/133/116 58/135/117
f 160/194/166 159/193/165 162/197/168
f 90/108/93 96/115/99 80/109/83
f 163/198/169 164/199/170 165/200/171
f 136/168/140 93/96/96 166/201/172
f 167/202/173 106/127/109 54/58/54
f 168/203/174 138/161/142 131/162/135
f 109/129/112 53/204/53 110/130/113
f 100/205/103 99/206/102 166/201/172
f 131/162/135 130/161/134 168/203/174
f 169/207/175 170/208/176 171/209/177
f 121/146/127 54/58/54 106/127/109
f 140/171/144 168/203/174 172/210/178
f 152/186/158 140/171/144 142/173/146
f 173/211/179 91/212/94 174/213/180
f 168/203/174 151/171/157 172/210/178
f 175/214/181 90/108/93 111/215/182
f 82/96/85 176/216/183 177/217/184
f 44/218/44 43/219/43 174/213/180
f 178/220/185 146/221/151 148/222/153
f 179/223/186 118/174/123 143/176/147
f 180/224/187 150/185/156 149/184/155
f 90/108/93 175/214/181 181/225/188
f 154/188/160 129/160/133 131/162/135
f 138/161/142 153/187/159 131/162/135
f 93/96/96 94/226/97 100/205/103
f 42/227/42 182/228/189 83/97/86
f 183/229/190 184/230/191 169/231/175
f 90/108/93 181/225/188 96/115/99
f 113/133/116 167/232/173 54/156/54
f 185/170/192 130/161/134 137/169/141
f 110/233/113 53/57/53 186/121/193
f 187/234/194 38/42/38 188/235/195
f 104/236/107 103/167/106 87/103/90
f 110/233/113 186/121/193 173/126/179
f 189/237/196 149/238/197 158/192/164
f 190/239/198 123/240/199 162/197/168
f 110/130/113 173/241/179 107/97/110
f 111/215/182 119/242/200 175/214/181
f 29/29/29 118/141/123 27/27/27
f 122/243/201 124/244/202 180/245/203
f 86/101/89 165/200/171 85/99/88
f 87/103/90 82/112/85 104/236/107
f 191/246/204 185/170/192 137/169/141
f 78/90/81 77/89/80 80/109/83
f 160/194/166 189/237/196 158/192/164
f 95/114/98 97/116/100 175/214/181
f 180/245/203 124/244/202 190/239/198
f 162/197/168 123/240/199 160/194/166
f 85/99/88 165/200/171 192/247/205
f 193/248/206 194/249/207 73/84/75
f 88/250/91 192/251/205 195/252/208
f 34/36/34 35/38/35 196/253/209
f 197/254/210 177/217/184 99/206/102
f 198/255/211 199/256/212 200/257/213
f 201/258/214 202/259/215 196/260/209
f 83/97/86 203/261/216 84/98/87
f 204/262/217 205/263/218 206/264/219
f 207/265/220 208/266/221 205/267/218
f 209/268/222 133/164/137 210/269/223
f 141/172/145 151/171/157 142/173/146
f 158/270/224 211/271/225 212/272/226
f 119/242/200 95/114/98 175/214/181
f 179/223/186 213/273/227 118/174/123
f 214/274/228 215/275/229 216/276/230
f 217/277/231 133/164/137 135/166/139
f 190/239/198 124/244/202 123/240/199
f 191/246/204 137/169/141 139/170/143
f 49/53/49 146/180/151 178/52/185
f 79/100/82 85/99/88 89/278/92
f 164/199/170 192/247/205 165/200/171
f 218/279/232 148/182/153 147/181/152
f 180/245/203 149/238/197 122/243/201
f 173/126/179 186/121/193 91/110/94
f 189/280/128 160/281/128 123/151/128
f 219/282/233 220/283/234 221/284/235
f 222/285/236 219/286/233 221/287/235
f 113/133/116 62/155/63 58/135/117
f 220/288/234 219/286/233 157/289/163
f 42/227/42 53/204/53 182/228/189
f 197/254/210 82/96/85 177/217/184
f 83/97/86 182/228/189 203/261/216
f 113/290/237 116/139/121 167/291/238
f 120/144/125 116/139/121 112/292/239
f 116/139/121 115/138/120 167/291/238
f 112/292/239 116/139/121 113/290/237
f 161/195/167 223/293/240 56/70/56
f 56/70/56 224/294/241 63/71/65
f 65/73/67 224/294/241 56/70/56
f 223/293/240 64/72/66 56/70/56
f 225/295/242 195/252/208 192/251/205
f 226/45/243 104/47/107 197/296/210
f 102/48/105 104/47/107 226/45/243
f 227/297/244 228/298/245 229/299/246
f 128/159/132 230/300/247 126/157/130
f 231/301/248 232/302/249 227/297/244
f 197/296/210 99/119/102 233/56/250
f 229/299/246 234/303/251 39/304/39
f 188/305/252 235/306/253 133/307/137
f 133/307/137 232/308/254 231/309/255
f 231/301/248 229/299/246 236/310/256
f 237/311/257 228/298/245 227/297/244
f 204/262/217 207/312/220 205/263/218
f 236/310/256 39/304/39 187/313/194
f 227/297/244 229/299/246 231/301/248
f 231/314/255 134/165/138 133/164/137
f 236/310/256 229/299/246 39/304/39
f 238/315/258 133/164/137 217/277/231
f 228/298/245 234/303/251 229/299/246
f 239/316/259 127/317/131 240/318/260
f 241/319/261 126/157/130 230/300/247
f 240/320/260 242/321/262 243/322/263
f 244/323/264 126/157/130 241/319/261
f 202/259/215 201/258/214 80/109/83
f 80/94/83 201/324/214 81/95/84
f 128/325/132 127/317/131 239/316/259
f 164/199/170 163/198/169 196/253/209
f 82/326/85 87/327/90 83/328/86
f 82/329/85 197/330/210 104/331/107
f 245/332/265 184/333/191 246/334/266
f 202/259/215 80/109/83 95/114/98
f 103/123/106 102/122/105 125/153/129
f 87/149/90 93/329/96 119/335/124
f 133/164/137 247/336/267 188/337/252
f 28/37/28 248/338/268 249/339/269
f 94/126/97 125/110/129 101/121/104
f 240/320/260 243/322/263 239/340/259
f 182/228/189 108/128/111 203/261/216
f 250/341/270 28/37/28 34/36/34
f 237/311/257 227/297/244 200/257/213
f 84/98/87 176/216/183 82/96/85
f 216/276/230 251/342/271 252/343/272
f 43/344/43 42/345/42 83/148/86
f 102/48/105 253/111/273 125/110/129
f 28/346/28 254/347/274 248/348/268
f 194/349/275 227/350/244 38/42/38
f 227/350/244 235/351/276 188/235/195
f 255/352/277 73/84/75 74/86/77
f 256/353/278 20/354/279 257/355/280
f 258/356/281 259/357/282 260/358/283
f 255/352/277 193/248/206 73/84/75
f 230/300/247 208/157/221 207/312/220
f 200/257/213 227/297/244 194/359/275
f 198/255/211 200/257/213 39/304/39
f 72/360/128 252/361/128 70/362/128
f 249/339/269 164/199/170 196/253/209
f 261/363/284 262/364/285 72/83/74
f 39/304/39 234/303/251 198/255/211
f 187/234/194 39/43/39 38/42/38
f 184/230/191 18/365/18 246/366/266
f 194/249/207 38/367/286 73/84/75
f 177/217/184 176/216/183 136/168/140
f 200/257/213 199/256/212 244/311/287
f 173/368/179 87/103/90 107/102/110
f 262/369/128 216/370/128 252/361/128
f 38/367/286 40/85/76 73/84/75
f 43/104/43 87/103/90 174/371/180
f 221/284/235 220/283/234 156/372/162
f 71/82/73 261/363/284 72/83/74
f 210/269/223 133/164/137 238/315/258
f 28/37/28 250/341/270 263/373/288
f 18/365/18 264/374/289 246/366/266
f 184/230/191 245/375/265 169/231/175
f 29/29/29 28/28/28 263/376/288
f 252/343/272 251/342/271 149/238/197
f 251/342/271 216/276/230 215/275/229
f 71/82/73 70/81/72 149/238/197
f 26/377/290 7/378/7 24/379/291
f 235/306/253 232/308/254 133/307/137
f 173/368/179 174/371/180 87/103/90
f 247/336/267 133/164/137 209/268/222
f 235/351/276 227/350/244 232/380/249
f 188/235/195 38/42/38 227/350/244
f 216/276/230 262/364/285 214/274/228
f 95/114/98 80/109/83 96/115/99
f 100/205/103 166/201/172 93/96/96
f 261/363/284 214/274/228 262/364/285
f 40/381/40 39/304/39 200/257/213
f 156/382/162 265/383/292 221/287/235
f 251/384/293 266/385/294 211/271/225
f 21/386/21 10/387/10 267/388/295
f 268/179/296 269/389/297 270/390/298
f 271/391/299 272/392/300 273/393/301
f 274/394/302 23/395/303 25/396/304
f 275/397/305 273/398/306 272/399/307
f 276/400/289 25/401/304 12/402/12
f 277/403/308 278/404/309 19/405/310
f 279/406/311 267/392/312 280/407/313
f 281/408/314 282/409/315 283/410/314
f 282/411/316 284/412/317 283/413/318
f 171/414/177 183/229/190 169/231/175
f 279/406/311 21/415/319 267/392/312
f 273/398/306 16/416/16 285/417/320
f 285/417/320 16/416/16 19/418/19
f 286/419/315 282/409/315 281/408/314
f 10/387/10 272/399/307 267/388/295
f 269/420/321 274/394/302 284/412/317
f 268/421/322 274/394/302 269/420/321
f 284/412/317 282/411/316 269/420/321
f 23/395/303 274/394/302 268/421/322
f 287/422/323 268/179/296 270/390/298
f 276/423/289 288/424/324 274/425/302
f 283/413/318 284/412/317 289/426/325
f 274/427/302 25/401/304 276/400/289
f 278/404/309 285/428/326 19/405/310
f 22/429/22 6/430/6 290/413/327
f 272/392/300 271/391/299 291/407/328
f 25/377/304 23/379/303 13/431/13
f 23/432/329 268/179/296 287/422/323
f 274/425/302 288/424/324 292/433/330
f 284/401/317 292/434/330 289/435/325
f 171/209/177 170/208/176 264/436/289
f 12/402/12 293/437/331 276/400/289
f 289/435/325 292/434/330 294/438/332
f 289/435/325 293/437/331 12/402/12
f 292/434/330 284/401/317 274/427/302
f 283/413/318 11/439/11 21/386/21
f 11/439/11 283/413/318 289/426/325
f 289/426/325 12/440/12 11/439/11
f 6/430/6 184/441/191 290/413/327
f 22/429/22 295/388/333 17/442/17
f 145/179/150 296/443/334 297/444/335
f 260/358/283 298/445/336 258/356/281
f 171/446/177 26/396/290 24/395/291
f 299/397/337 258/399/338 298/447/339
f 264/374/289 18/365/18 26/229/290
f 300/448/340 20/354/279 256/353/278
f 301/406/341 302/357/342 295/356/343
f 303/449/344 290/450/344 304/409/345
f 304/411/346 290/413/327 183/412/190
f 184/441/191 6/430/6 18/451/18
f 301/406/341 295/356/343 22/415/347
f 298/447/339 257/452/348 3/416/3
f 257/452/348 20/453/20 3/416/3
f 305/419/345 303/449/344 304/409/345
f 17/442/17 295/388/333 258/399/338
f 297/420/349 183/412/190 171/446/177
f 145/454/350 297/420/349 171/446/177
f 183/412/190 297/420/349 304/411/346
f 24/395/291 145/454/350 171/446/177
f 144/178/149 296/443/334 145/179/150
f 264/374/289 26/229/290 171/414/177
f 290/413/327 184/441/191 183/412/190
f 174/213/180 91/212/94 44/218/44
f 254/455/274 118/174/123 306/456/351
f 306/456/351 118/174/123 89/278/92
f 248/348/268 254/347/274 307/457/352
f 306/458/351 307/457/352 254/347/274
f 179/223/186 79/100/82 213/273/227
f 225/459/242 164/460/170 249/346/269
f 192/461/205 164/460/170 225/459/242
f 192/461/205 88/106/91 85/105/88
f 28/37/28 249/339/269 35/38/35
f 35/38/35 249/339/269 196/253/209
f 79/100/82 89/278/92 213/273/227
f 213/273/227 89/278/92 118/174/123
f 299/397/337 298/447/339 3/416/3
f 275/397/305 16/416/16 273/398/306
f 275/397/305 9/462/9 15/463/15
f 10/387/10 275/397/305 272/399/307
f 17/442/17 258/399/338 299/397/337
f 299/397/337 2/463/2 4/464/4
f 17/442/17 299/397/337 4/464/4
f 10/387/10 9/462/9 275/397/305
f 3/416/3 2/463/2 299/397/337
f 16/416/16 275/397/305 15/463/15
f 37/465/37 308/466/353 36/467/36
f 309/468/354 31/469/31 33/470/33
f 310/471/355 37/465/37 31/469/31
f 32/472/32 311/473/356 30/474/30
f 151/475/157 312/476/357 37/465/37
f 311/473/356 313/477/358 261/478/359
f 311/479/356 32/480/32 36/481/36
f 309/468/354 310/471/355 31/469/31
f 36/467/36 308/466/353 314/482/360
f 37/465/37 310/471/355 151/475/157
f 215/483/361 315/484/362 266/485/363
f 36/486/36 314/487/360 311/488/356
f 261/478/359 34/489/34 311/473/356
f 214/490/364 261/478/359 313/477/358
f 203/491/365 105/492/108 316/493/366
f 176/494/367 317/495/368 136/496/369
f 167/497/238 318/498/370 106/499/371
f 319/500/372 98/501/101 58/502/58
f 319/500/372 60/503/373 63/504/65
f 58/502/58 62/505/374 319/500/372
f 319/500/372 62/505/374 60/503/373
f 148/506/153 320/507/375 178/508/185
f 60/503/373 51/509/59 63/504/65
f 68/510/70 321/511/376 69/512/71
f 50/513/50 49/514/49 320/507/375
f 218/515/232 322/516/377 148/506/153
f 132/517/378 75/518/78 48/508/48
f 323/506/379 121/519/380 132/517/378
f 316/493/366 105/492/108 69/512/71
f 90/520/93 105/492/108 324/521/381
f 132/517/378 48/508/48 323/506/379
f 105/492/108 77/522/80 66/523/68
f 203/491/365 324/521/381 105/492/108
f 77/522/80 105/492/108 90/520/93
f 201/524/214 165/525/171 81/526/84
f 219/527/233 325/528/382 179/529/186
f 77/522/80 79/530/82 66/523/68
f 323/506/379 55/531/383 121/519/380
f 147/532/152 326/533/384 218/515/232
f 222/534/236 325/528/382 219/527/233
f 303/535/344 301/536/341 290/537/344
f 158/538/224 251/539/293 211/540/225
f 320/507/375 49/514/49 178/508/185
f 47/541/385 146/542/151 61/518/386
f 76/543/79 75/518/78 61/518/386
f 214/490/364 312/476/357 266/544/294
f 61/518/386 146/542/151 76/543/79
f 323/506/379 48/508/48 67/545/69
f 64/546/66 319/500/372 65/547/67
f 64/546/66 223/548/240 319/500/372
f 318/498/370 112/549/239 106/499/371
f 106/550/109 132/550/136 121/550/127
f 153/551/159 138/552/142 137/553/141
f 212/554/226 327/555/387 162/556/388
f 162/557/388 159/558/389 212/559/226
f 128/560/132 328/561/390 230/562/247
f 137/553/141 130/552/134 129/563/133
f 158/564/224 329/565/391 159/566/389
f 130/567/134 312/476/357 151/475/157
f 234/568/392 204/569/217 330/570/393
f 168/571/174 140/572/144 138/552/142
f 141/573/145 172/574/178 151/572/157
f 151/572/157 310/575/355 152/576/158
f 29/577/29 331/578/394 117/579/122
f 76/543/79 146/542/151 49/514/49
f 296/580/334 305/581/345 304/582/345
f 117/583/122 150/584/156 180/585/187
f 317/495/368 95/586/98 136/496/369
f 332/587/395 211/588/225 185/589/192
f 310/575/355 140/572/144 152/576/158
f 333/590/396 114/591/119 120/592/125
f 203/491/365 108/593/397 324/521/381
f 151/572/157 168/571/174 130/552/134
f 212/559/226 334/594/398 335/595/399
f 147/532/152 55/531/383 326/533/384
f 324/521/381 108/593/397 90/520/93
f 191/596/204 139/589/143 332/587/395
f 159/566/400 212/597/400 335/598/401
f 108/593/397 111/599/182 90/520/93
f 154/600/160 137/553/141 129/563/133
f 154/600/160 153/551/159 137/553/141
f 163/601/169 165/525/171 201/524/214
f 136/496/369 95/586/98 119/602/200
f 336/603/402 67/545/69 79/530/82
f 84/604/403 337/605/404 176/494/367
f 190/606/405 157/607/163 179/529/186
f 251/608/293 338/609/406 266/610/294
f 86/611/89 78/612/81 165/525/171
f 334/594/398 159/558/407 335/595/399
f 328/561/390 205/613/218 208/614/221
f 138/615/142 140/615/144 327/555/387
f 209/616/222 210/617/223 339/618/408
f 215/550/361 266/550/363 340/550/409
f 159/550/407 341/550/410 212/550/226
f 342/619/411 315/620/362 215/621/361
f 118/622/123 254/578/274 27/623/27
f 201/524/214 196/624/209 163/601/169
f 55/531/383 147/532/152 47/541/385
f 266/610/363 315/620/362 342/619/411
f 263/625/288 150/584/156 343/626/412
f 157/627/163 156/628/162 220/629/234
f 344/630/413 196/631/209 127/632/131
f 265/633/292 156/634/162 345/635/414
f 146/542/151 47/541/385 147/532/152
f 345/635/414 156/634/162 155/636/161
f 314/482/360 313/477/358 311/473/356
f 236/637/415 135/638/139 134/639/138
f 181/640/188 97/641/100 96/642/99
f 179/529/186 325/528/382 79/530/82
f 341/643/410 334/594/398 212/559/226
f 211/644/225 327/555/387 212/554/226
f 346/645/416 190/606/405 162/556/388
f 340/646/409 266/610/363 342/619/411
f 50/513/50 320/507/375 68/510/70
f 341/647/410 159/566/407 334/648/398
f 78/612/81 86/611/89 79/649/82
f 117/583/122 343/626/412 150/584/156
f 211/588/225 130/552/134 185/589/192
f 139/589/143 138/552/142 211/588/225
f 332/587/395 139/589/143 211/588/225
f 191/596/204 332/587/395 185/589/192
f 347/650/417 222/534/236 221/651/235
f 215/621/418 266/610/294 338/609/406
f 310/471/355 221/651/235 265/633/292
f 193/652/206 348/653/419 194/654/207
f 230/562/247 328/561/390 208/614/221
f 158/655/224 212/559/226 329/656/391
f 140/615/144 265/633/292 327/555/387
f 79/530/82 67/545/69 66/523/68
f 263/657/288 331/578/394 29/577/29
f 181/658/188 175/659/181 97/660/100
f 159/558/420 329/656/391 212/559/420
f 149/661/155 251/539/293 158/538/224
f 327/555/387 211/644/225 138/615/142
f 78/612/81 81/526/84 165/525/171
f 74/662/77 40/663/76 348/653/419
f 141/573/145 140/572/144 172/574/178
f 203/491/365 316/493/366 84/604/403
f 120/592/125 112/549/239 318/498/370
f 115/664/120 318/498/370 167/497/238
f 161/665/167 98/501/101 319/500/372
f 63/504/65 224/666/241 319/500/372
f 223/548/240 161/665/167 319/500/372
f 65/547/67 319/500/372 224/666/241
f 176/494/367 337/605/404 242/667/262
f 40/663/76 200/668/421 348/653/419
f 188/669/252 247/670/267 339/618/408
f 135/638/139 236/637/415 339/618/408
f 339/618/408 187/671/422 188/669/252
f 339/618/408 236/637/415 187/671/422
f 134/639/138 231/672/255 236/637/415
f 207/673/220 241/674/261 230/562/247
f 349/675/423 206/676/219 205/613/218
f 199/677/424 126/614/130 244/678/264
f 350/613/425 126/614/130 199/677/424
f 143/679/147 190/606/405 179/529/186
f 157/607/163 190/606/405 346/645/416
f 337/605/404 243/680/263 242/667/262
f 202/681/215 242/667/262 240/682/260
f 128/560/132 239/683/259 328/561/390
f 199/677/424 198/684/426 350/613/425
f 242/667/262 202/681/215 95/586/98
f 176/494/367 242/667/262 317/495/368
f 243/680/263 351/685/427 239/683/259
f 95/586/98 317/495/368 242/667/262
f 157/607/163 346/645/416 155/636/161
f 347/650/417 221/651/235 310/471/355
f 196/631/209 352/686/428 34/489/34
f 240/682/260 127/632/131 196/631/209
f 265/633/292 140/615/144 310/471/355
f 350/613/425 198/684/426 234/568/392
f 33/470/33 30/474/30 352/686/428
f 254/578/274 28/687/28 27/623/27
f 228/688/429 207/673/220 204/569/217
f 241/674/261 237/678/430 244/678/264
f 237/678/430 241/674/261 207/673/220
f 144/689/149 20/690/279 300/691/340
f 200/692/213 244/693/287 237/694/257
f 350/613/425 127/632/131 126/614/130
f 204/569/217 234/568/392 228/688/429
f 339/618/408 210/617/223 238/695/258
f 238/695/258 217/696/231 339/618/408
f 348/653/419 200/668/421 194/654/207
f 266/610/294 215/621/431 214/697/364
f 211/644/225 312/476/357 130/567/134
f 251/698/293 215/483/418 338/699/406
f 34/489/34 261/478/359 250/700/270
f 207/673/220 228/688/429 237/678/430
f 339/618/408 217/696/231 135/638/139
f 206/676/219 330/570/393 204/569/217
f 339/618/408 247/670/267 209/616/222
f 340/701/409 342/702/411 215/483/361
f 196/631/209 202/681/215 240/682/260
f 353/703/432 255/704/277 74/662/77
f 263/625/288 71/705/154 150/584/156
f 312/476/357 211/644/225 266/544/294
f 353/703/432 193/652/206 255/704/277
f 261/478/359 71/705/154 250/700/270
f 278/706/309 271/707/299 273/708/301
f 283/709/314 21/710/319 279/711/311
f 278/706/309 273/708/301 285/712/326
f 269/713/297 282/714/315 270/715/298
f 280/716/313 267/717/312 272/717/300
f 280/716/313 272/717/300 291/716/328
f 250/700/270 71/705/154 263/625/288
f 287/718/323 19/719/310 23/720/329
f 281/721/314 283/709/314 279/711/311
f 270/715/298 282/714/315 286/722/315
f 287/718/323 277/723/308 19/719/310
f 143/679/147 180/585/187 190/606/405
f 143/679/147 117/583/122 180/585/187
f 256/724/278 298/725/336 260/726/283
f 290/537/344 301/536/341 22/727/347
f 256/724/278 257/728/280 298/725/336
f 297/729/335 296/580/334 304/582/345
f 302/730/342 258/731/281 295/731/343
f 302/730/342 259/730/282 258/731/281
f 144/689/149 24/732/148 20/690/279
f 34/489/34 30/474/30 311/473/356
f 352/686/428 30/474/30 34/489/34
f 157/607/163 219/527/233 179/529/186
f 354/733/433 347/650/417 321/511/376
f 68/510/70 354/733/433 321/511/376
f 351/685/427 355/734/434 239/683/259
f 351/685/427 309/468/354 355/734/434
f 356/735/435 309/468/354 33/470/33
f 222/534/236 347/650/417 357/736/436
f 358/737/437 195/738/438 359/739/439
f 360/740/440 306/741/441 89/742/442
f 307/743/443 306/741/441 360/740/440
f 361/739/444 362/744/445 307/743/443
f 302/745/446 260/746/446 259/747/446
f 358/737/437 88/748/447 195/738/438
f 300/749/446 301/750/446 303/751/446
f 72/752/128 262/753/128 252/754/128
f 343/755/412 117/756/122 363/757/448
f 144/758/446 305/759/446 296/760/446
f 331/755/394 364/757/449 117/756/122
f 122/761/128 189/762/128 123/763/128
f 302/745/446 301/750/446 260/746/446
f 365/764/450 225/765/451 249/766/452
f 331/755/394 263/767/288 364/757/449
f 149/768/197 189/769/196 122/770/201
f 365/764/450 195/738/438 225/765/451
f 149/768/197 70/771/72 252/772/272
f 300/749/446 303/751/446 144/758/446
f 343/755/412 363/757/448 263/767/288
f 279/773/446 271/774/446 278/775/446
f 279/773/446 278/775/446 277/776/446
f 286/777/446 287/778/446 270/779/446
f 280/780/446 271/774/446 279/773/446
f 287/778/446 286/777/446 281/781/446
f 277/776/446 287/778/446 281/781/446
f 277/776/446 281/781/446 279/773/446
f 280/780/446 291/782/446 271/774/446
f 301/750/446 256/783/446 260/746/446
f 301/750/446 300/749/446 256/783/446
f 305/759/446 144/758/446 303/751/446
f 365/784/453 249/785/269 362/786/454
f 361/787/455 365/784/453 362/786/454
f 360/788/456 358/789/457 361/787/455
f 358/789/457 360/788/456 89/790/92
f 361/739/444 307/743/443 360/740/440
f 195/738/438 365/764/450 359/739/439
f 359/787/455 361/787/455 358/789/457
f 365/784/453 361/787/455 359/787/455
f 307/743/443 362/744/445 248/791/458
f 248/791/458 362/744/445 249/766/452
f 88/748/447 358/737/437 89/742/442
f 333/590/396 115/664/120 114/591/119
f 316/792/366 69/793/71 366/794/459
f 316/792/366 366/794/459 84/795/403
f 347/796/417 310/797/355 367/798/460
f 368/799/461 351/800/427 243/801/263
f 321/802/376 347/796/417 367/798/460
f 69/793/71 321/802/376 368/799/461
f 366/794/459 243/801/263 337/803/404
f 367/798/460 309/804/354 351/800/427
f 84/795/403 366/794/459 337/803/404
f 367/798/460 310/797/355 309/804/354
f 55/531/383 323/506/379 326/533/384
f 326/533/384 323/506/379 218/515/232
f 330/570/393 206/676/219 350/613/425
f 234/568/392 330/570/393 350/613/425
f 37/465/37 313/477/358 308/466/353
f 314/482/360 308/466/353 313/477/358
f 346/645/416 265/633/292 345/635/414
f 346/645/416 345/635/414 155/636/161
f 218/515/232 323/506/379 369/805/462
f 67/545/69 336/603/402 323/506/379
f 127/632/131 350/613/425 344/630/413
f 206/676/219 370/806/463 350/613/425
f 354/733/433 68/510/70 320/507/375
f 322/516/377 218/515/232 369/805/462
f 328/561/390 239/683/259 355/734/434
f 206/676/219 349/675/423 370/806/463
f 52/56/52 371/807/464 53/57/53
f 233/56/250 99/119/102 372/807/465
f 33/470/33 373/808/466 356/735/435
f 350/613/425 370/806/463 373/808/466
f 357/736/436 374/809/467 222/534/236
f 374/809/467 369/805/462 323/506/379
f 117/756/122 364/757/449 375/810/468
f 263/767/288 376/811/469 364/757/449
f 368/799/461 367/798/460 351/800/427
f 321/802/376 367/798/460 368/799/461
f 263/767/288 363/757/448 376/811/469
f 363/757/448 117/756/122 375/810/468
f 325/528/382 222/534/236 374/809/467
f 323/506/379 336/603/402 374/809/467
f 373/808/466 33/470/33 352/686/428
f 373/808/466 344/630/413 350/613/425
f 53/57/53 371/807/464 186/121/193
f 372/807/465 99/119/102 101/121/104
f 309/468/354 356/735/435 355/734/434
f 349/675/423 355/734/434 356/735/435
f 322/516/377 357/736/436 354/733/433
f 354/733/433 357/736/436 347/650/417
f 375/810/468 364/757/449 377/812/470
f 377/812/470 363/757/448 375/810/468
f 313/477/358 37/465/37 312/476/357
f 313/477/358 312/476/357 214/490/364
f 265/633/292 346/645/416 327/555/387
f 162/556/388 327/555/387 346/645/416
f 5/5/5 2/2/2 1/1/1
f 6/6/6 5/5/5 1/1/1
f 14/14/14 8/8/8 11/11/11
f 14/14/14 15/15/15 8/8/8
f 378/56/471 92/111/95 91/110/94
f 125/110/129 253/111/273 379/56/472
f 363/757/448 377/812/470 376/811/469
f 376/811/469 377/812/470 364/757/449
f 226/45/243 197/296/210 233/56/250
f 41/45/41 52/56/52 42/46/42
f 357/736/436 322/516/377 369/805/462
f 369/805/462 374/809/467 357/736/436
f 356/735/435 370/806/463 349/675/423
f 370/806/463 356/735/435 373/808/466
f 320/507/375 322/516/377 354/733/433
f 320/507/375 148/506/153 322/516/377
f 355/734/434 349/675/423 328/561/390
f 205/613/218 328/561/390 349/675/423
f 108/128/111 182/228/189 109/129/112
f 182/228/189 53/204/53 109/129/112
f 177/217/184 136/168/140 166/201/172
f 99/206/102 177/217/184 166/201/172
f 294/438/332 293/437/331 289/435/325
f 352/686/428 344/630/413 373/808/466
f 196/631/209 344/630/413 352/686/428
f 374/809/467 336/603/402 325/528/382
f 79/530/82 325/528/382 336/603/402
f 333/590/396 318/498/370 115/664/120
f 333/590/396 120/592/125 318/498/370
f 101/121/104 125/110/129 379/56/472
f 379/56/472 372/807/465 101/121/104
f 371/807/464 378/56/471 186/121/193
f 186/121/193 378/56/471 91/110/94
f 353/703/432 74/662/77 348/653/419
f 353/703/432 348/653/419 193/652/206
f 69/793/71 368/799/461 366/794/459
f 366/794/459 368/799/461 243/801/263
