# Blender v3.4.1 OBJ File: 'glock1.blend'
# www.blender.org
mtllib glock.mtl
o glock
v 0.100000 -0.200000 -0.800000
v 0.100000 0.000000 -0.800000
v 0.100000 -0.200000 0.200000
v 0.100000 0.000000 0.200000
v -0.100000 -0.200000 -0.800000
v -0.100000 0.000000 -0.800000
v -0.100000 -0.200000 0.200000
v -0.100000 0.000000 0.200000
v 0.068035 -0.013330 0.094996
v 0.068035 -0.011857 -0.099779
v 0.068035 0.478676 0.296122
v 0.068035 0.480149 0.101346
v -0.068035 -0.013330 0.094996
v -0.068035 -0.011857 -0.099779
v -0.068035 0.478676 0.296122
v -0.068035 0.480149 0.101346
v -0.000000 -0.187877 -0.830300
v -0.000000 -0.187877 -0.798498
v 0.035355 -0.173232 -0.830300
v 0.035355 -0.173232 -0.798498
v 0.050000 -0.137877 -0.830300
v 0.050000 -0.137877 -0.798498
v 0.035355 -0.102521 -0.830300
v 0.035355 -0.102521 -0.798498
v -0.000000 -0.087877 -0.830300
v -0.000000 -0.087877 -0.798498
v -0.035355 -0.102521 -0.830300
v -0.035355 -0.102521 -0.798498
v -0.050000 -0.137877 -0.830300
v -0.050000 -0.137877 -0.798498
v -0.035355 -0.173232 -0.830300
v -0.035355 -0.173232 -0.798498
v -0.000000 -0.175377 -0.830300
v -0.000000 -0.175377 -0.798498
v 0.026516 -0.164393 -0.830300
v 0.026516 -0.164393 -0.798498
v 0.037500 -0.137877 -0.830300
v 0.037500 -0.137877 -0.798498
v 0.026516 -0.111360 -0.830300
v 0.026516 -0.111360 -0.798498
v -0.000000 -0.100377 -0.830300
v -0.000000 -0.100377 -0.798498
v -0.026516 -0.111360 -0.830300
v -0.026516 -0.111360 -0.798498
v -0.037500 -0.137877 -0.830300
v -0.037500 -0.137877 -0.798498
v -0.026516 -0.164393 -0.830300
v -0.026516 -0.164393 -0.798498
v 0.032233 0.091166 -0.047095
v -0.032234 0.091166 -0.047095
v 0.032233 0.089788 -0.132104
v -0.032234 0.089788 -0.132104
v 0.032233 0.059072 -0.182361
v -0.032234 0.059072 -0.182361
v 0.032233 -0.005272 -0.196851
v -0.032234 -0.005272 -0.196851
v 0.032233 0.114307 -0.036773
v -0.032234 0.114307 -0.036773
v 0.032233 0.115115 -0.132878
v -0.032234 0.115115 -0.132878
v 0.032233 0.073948 -0.202874
v -0.032234 0.073948 -0.202874
v 0.032233 -0.005272 -0.222189
v -0.032234 -0.005272 -0.222189
v 0.015901 -0.001680 -0.120978
v -0.015902 -0.001680 -0.120978
v 0.015901 0.028834 -0.108178
v -0.015902 0.028834 -0.108178
v 0.015901 0.056466 -0.120048
v -0.015902 0.056466 -0.120048
v 0.015901 -0.002524 -0.108506
v -0.015902 -0.002524 -0.108506
v 0.015901 0.028834 -0.095678
v -0.015902 0.028834 -0.095678
v 0.015901 0.063073 -0.109436
v -0.015902 0.063073 -0.109436
v -0.010000 -0.202097 -0.717872
v -0.010000 -0.220867 -0.717872
v -0.010000 -0.202097 -0.771711
v -0.010000 -0.227399 -0.771711
v 0.010000 -0.202097 -0.717872
v 0.010000 -0.220867 -0.717872
v 0.010000 -0.202097 -0.771711
v 0.010000 -0.227399 -0.771711
v -0.030867 -0.200000 0.130000
v -0.030867 -0.230000 0.130000
v -0.030867 -0.200000 0.110000
v -0.030867 -0.230000 0.110000
v 0.030867 -0.200000 0.130000
v 0.030867 -0.230000 0.130000
v 0.030867 -0.200000 0.110000
v 0.030867 -0.230000 0.110000
vt 0.353934 0.153804
vt 0.973570 0.029876
vt 0.973570 0.153804
vt 0.142086 0.674849
vt 0.266014 0.550922
vt 0.266014 0.674849
vt 0.973943 0.170601
vt 0.354308 0.294528
vt 0.354308 0.170601
vt 0.354078 0.446878
vt 0.973713 0.322951
vt 0.973713 0.446878
vt 0.354042 0.675109
vt 0.973678 0.551182
vt 0.973678 0.675109
vt 0.007376 0.674849
vt 0.131304 0.550922
vt 0.131304 0.674849
vt 0.246207 0.971454
vt 0.161893 0.666589
vt 0.246207 0.666589
vt 0.415207 0.427071
vt 0.294517 0.342757
vt 0.415207 0.342757
vt 0.415437 0.972416
vt 0.419372 0.666639
vt 0.294747 0.971504
vt 0.111497 0.972366
vt 0.027183 0.667502
vt 0.111497 0.667502
vt 0.415171 0.972626
vt 0.419106 0.666849
vt 0.539796 0.667762
vt 0.679859 0.808163
vt 0.829859 0.958163
vt 0.679859 0.958163
vt 0.992453 0.567768
vt 0.972747 0.558694
vt 0.992453 0.558694
vt 0.992453 0.589676
vt 0.972747 0.567768
vt 0.992453 0.611583
vt 0.972747 0.589676
vt 0.992489 0.384914
vt 0.972783 0.363007
vt 0.992489 0.363007
vt 0.992489 0.406822
vt 0.972783 0.384914
vt 0.992719 0.589466
vt 0.973013 0.611373
vt 0.992719 0.611373
vt 0.992719 0.567558
vt 0.973013 0.589466
vt 0.992719 0.558484
vt 0.973013 0.567558
vt 0.679859 0.808163
vt 0.829859 0.958163
vt 0.679859 0.958163
vt 0.679859 0.808163
vt 0.829859 0.958163
vt 0.679859 0.958163
vt 0.679859 0.808163
vt 0.829859 0.958163
vt 0.679859 0.958163
vt 0.679859 0.808163
vt 0.829859 0.958163
vt 0.679859 0.958163
vt 0.679859 0.958163
vt 0.829859 0.808163
vt 0.829859 0.958163
vt 0.679859 0.808163
vt 0.829859 0.958163
vt 0.679859 0.958163
vt 0.679859 0.808163
vt 0.829859 0.958163
vt 0.679859 0.958163
vt 0.679859 0.808163
vt 0.829859 0.958163
vt 0.679859 0.958163
vt 0.069340 0.566180
vt 0.047433 0.567508
vt 0.069340 0.558434
vt 0.679859 0.958163
vt 0.829859 0.808163
vt 0.829859 0.958163
vt 0.052909 0.572985
vt 0.038358 0.589416
vt 0.679859 0.958163
vt 0.829859 0.808163
vt 0.829859 0.958163
vt 0.052909 0.605846
vt 0.047433 0.611323
vt 0.829859 0.958163
vt 0.679859 0.958163
vt 0.069340 0.620398
vt 0.679859 0.808163
vt 0.829859 0.958163
vt 0.679859 0.958163
vt 0.069340 0.612652
vt 0.091247 0.611323
vt 0.679859 0.958163
vt 0.829859 0.808163
vt 0.829859 0.958163
vt 0.085771 0.605846
vt 0.100322 0.589416
vt 0.679859 0.958163
vt 0.829859 0.958163
vt 0.085771 0.572985
vt 0.091247 0.567508
vt 0.829859 0.958163
vt 0.679859 0.958163
vt 0.829859 0.958163
vt 0.679859 0.958163
vt 0.507150 0.731599
vt 0.560305 0.746438
vt 0.500755 0.745938
vt 0.560571 0.746228
vt 0.507416 0.731389
vt 0.501021 0.745728
vt 0.559825 0.730745
vt 0.603677 0.720930
vt 0.603943 0.720720
vt 0.560091 0.730535
vt 0.590966 0.711712
vt 0.615645 0.671842
vt 0.615911 0.671632
vt 0.591232 0.711502
vt 0.679859 0.808163
vt 0.829859 0.958163
vt 0.679859 0.958163
vt 0.679859 0.808163
vt 0.829859 0.958163
vt 0.679859 0.958163
vt 0.679859 0.808163
vt 0.829859 0.958163
vt 0.679859 0.958163
vt 0.500791 0.404887
vt 0.560341 0.364941
vt 0.560341 0.404887
vt 0.089313 0.746178
vt 0.049367 0.720670
vt 0.089313 0.720670
vt 0.089313 0.671582
vt 0.049367 0.671582
vt 0.545203 0.673545
vt 0.545000 0.692975
vt 0.537254 0.692975
vt 0.545266 0.692765
vt 0.545469 0.673335
vt 0.537520 0.692765
vt 0.545780 0.714191
vt 0.546045 0.713981
vt 0.679859 0.808163
vt 0.829859 0.958163
vt 0.679859 0.958163
vt 0.679859 0.808163
vt 0.829859 0.958163
vt 0.679859 0.958163
vt 0.679859 0.808163
vt 0.829859 0.958163
vt 0.679859 0.958163
vt 0.679859 0.808163
vt 0.829859 0.958163
vt 0.679859 0.958163
vt 0.956415 0.549673
vt 0.923054 0.538042
vt 0.923054 0.549673
vt 0.063144 0.549623
vt 0.075536 0.533945
vt 0.075536 0.549623
vt 0.956149 0.549883
vt 0.922788 0.538252
vt 0.956149 0.534205
vt 0.679859 0.808163
vt 0.829859 0.958163
vt 0.679859 0.958163
vt 0.829859 0.958163
vt 0.679859 0.958163
vt 0.922681 0.098036
vt 0.956042 0.085643
vt 0.956042 0.098036
vt 0.410075 0.550972
vt 0.397682 0.532383
vt 0.397682 0.550972
vt 0.050214 0.550922
vt 0.088466 0.532333
vt 0.088466 0.550922
vt 0.397416 0.551182
vt 0.409809 0.532593
vt 0.409809 0.551182
vt 0.184924 0.550922
vt 0.223176 0.532333
vt 0.223176 0.550922
vt 0.679859 0.808163
vt 0.829859 0.958163
vt 0.679859 0.958163
vt 0.397309 0.110966
vt 0.409702 0.072714
vt 0.409702 0.110966
vt 0.353934 0.029876
vt 0.142086 0.550922
vt 0.973943 0.294528
vt 0.354078 0.322951
vt 0.354042 0.551182
vt 0.007376 0.550922
vt 0.161893 0.971454
vt 0.294517 0.427071
vt 0.540062 0.667552
vt 0.027183 0.972366
vt 0.294481 0.971714
vt 0.829859 0.808163
vt 0.972747 0.611583
vt 0.972783 0.406822
vt 0.973013 0.558484
vt 0.829859 0.808163
vt 0.829859 0.808163
vt 0.829859 0.808163
vt 0.829859 0.808163
vt 0.046104 0.589416
vt 0.092576 0.589416
vt 0.599945 0.671842
vt 0.600211 0.671632
vt 0.829859 0.808163
vt 0.829859 0.808163
vt 0.829859 0.808163
vt 0.500791 0.364941
vt 0.049367 0.746178
vt 0.552931 0.674068
vt 0.553197 0.673858
vt 0.552355 0.710098
vt 0.552621 0.709888
vt 0.829859 0.808163
vt 0.829859 0.808163
vt 0.829859 0.808163
vt 0.829859 0.808163
vt 0.956415 0.533995
vt 0.063144 0.533945
vt 0.922788 0.549883
vt 0.829859 0.808163
vt 0.829859 0.808163
vt 0.922681 0.085643
vt 0.410075 0.532383
vt 0.050214 0.532333
vt 0.397416 0.532593
vt 0.184924 0.532333
vt 0.829859 0.808163
vt 0.397309 0.072714
vn 0.0000 -1.0000 0.0000
vn 0.0000 0.0000 1.0000
vn -1.0000 0.0000 0.0000
vn 0.0000 1.0000 0.0000
vn 1.0000 0.0000 0.0000
vn 0.0000 0.0000 -1.0000
vn 0.0000 -0.3784 0.9256
vn 0.0000 1.0000 0.0076
vn 0.0000 0.3784 -0.9256
vn 0.0000 -1.0000 -0.0076
vn 0.3827 -0.9239 0.0000
vn 0.9239 -0.3827 0.0000
vn 0.9239 0.3827 0.0000
vn 0.3827 0.9239 0.0000
vn -0.3827 0.9239 0.0000
vn -0.9239 0.3827 0.0000
vn -0.9239 -0.3827 0.0000
vn -0.3827 -0.9239 0.0000
vn 0.0000 -0.9999 0.0162
vn 0.0000 -0.8533 0.5215
vn 0.0000 -0.2197 0.9756
vn 0.0000 1.0000 0.0084
vn 0.0000 0.8620 -0.5070
vn 0.0000 0.2369 -0.9715
vn 0.0000 0.3868 -0.9222
vn 0.0000 -0.3947 -0.9188
vn 0.0000 -0.3786 0.9255
vn 0.0000 0.3729 0.9279
vn 0.0000 -0.9927 0.1204
usemtl Material
s off
f 3/1/1 5/2/1 1/3/1
f 8/4/2 3/5/2 4/6/2
f 6/7/3 7/8/3 8/9/3
f 8/10/4 2/11/4 6/12/4
f 4/13/5 1/14/5 2/15/5
f 2/16/6 5/17/6 6/18/6
f 11/19/7 13/20/7 9/21/7
f 16/22/8 11/23/8 12/24/8
f 16/25/3 13/26/3 15/27/3
f 16/28/9 10/29/9 14/30/9
f 12/31/5 9/32/5 10/33/5
f 10/34/10 13/35/10 14/36/10
f 19/37/11 18/38/11 17/39/11
f 21/40/12 20/41/12 19/37/12
f 23/42/13 22/43/13 21/40/13
f 25/44/14 24/45/14 23/46/14
f 27/47/15 26/48/15 25/44/15
f 29/49/16 28/50/16 27/51/16
f 31/52/17 30/53/17 29/49/17
f 17/54/18 32/55/18 31/52/18
f 34/56/15 35/57/15 33/58/15
f 36/59/16 37/60/16 35/61/16
f 38/62/17 39/63/17 37/64/17
f 40/65/18 41/66/18 39/67/18
f 41/68/11 44/69/11 43/70/11
f 44/71/12 45/72/12 43/73/12
f 46/74/13 47/75/13 45/76/13
f 48/77/14 33/78/14 47/79/14
f 33/80/6 19/81/6 17/82/6
f 20/83/2 34/84/2 18/85/2
f 35/86/6 21/87/6 19/81/6
f 22/88/2 36/89/2 20/90/2
f 21/87/6 39/91/6 23/92/6
f 40/65/2 22/93/2 24/94/2
f 39/91/6 25/95/6 23/92/6
f 42/96/2 24/97/2 26/98/2
f 41/99/6 27/100/6 25/95/6
f 28/101/2 42/102/2 26/103/2
f 43/104/6 29/105/6 27/100/6
f 30/106/2 44/69/2 28/107/2
f 29/105/6 47/108/6 31/109/6
f 48/77/2 30/110/2 32/111/2
f 31/109/6 33/80/6 17/82/6
f 34/56/2 32/112/2 18/113/2
f 49/114/5 59/115/5 57/116/5
f 60/117/3 50/118/3 58/119/3
f 51/120/5 61/121/5 59/115/5
f 62/122/3 52/123/3 60/117/3
f 53/124/5 63/125/5 61/121/5
f 64/126/3 54/127/3 62/122/3
f 51/128/19 50/129/19 52/130/19
f 53/131/20 52/132/20 54/133/20
f 55/134/21 54/135/21 56/136/21
f 58/137/22 59/138/22 60/139/22
f 60/140/23 61/141/23 62/142/23
f 64/143/24 61/141/24 63/144/24
f 71/145/5 67/146/5 73/147/5
f 68/148/3 72/149/3 74/150/3
f 67/146/5 75/151/5 73/147/5
f 76/152/3 68/148/3 74/150/3
f 67/153/25 66/154/25 68/155/25
f 69/156/26 68/157/26 70/158/26
f 72/159/27 73/160/27 74/161/27
f 74/162/28 75/163/28 76/164/28
f 79/165/3 78/166/3 77/167/3
f 83/168/6 80/169/6 79/170/6
f 83/171/5 82/172/5 84/173/5
f 77/174/2 82/175/2 81/176/2
f 77/174/4 83/177/4 79/178/4
f 82/179/29 80/180/29 84/181/29
f 87/182/3 86/183/3 85/184/3
f 91/185/6 88/186/6 87/187/6
f 89/188/5 92/189/5 91/190/5
f 85/191/2 90/192/2 89/193/2
f 85/194/4 91/195/4 87/196/4
f 90/197/1 88/198/1 92/199/1
f 3/1/1 7/200/1 5/2/1
f 8/4/2 7/201/2 3/5/2
f 6/7/3 5/202/3 7/8/3
f 8/10/4 4/203/4 2/11/4
f 4/13/5 3/204/5 1/14/5
f 2/16/6 1/205/6 5/17/6
f 11/19/7 15/206/7 13/20/7
f 16/22/8 15/207/8 11/23/8
f 16/25/3 14/208/3 13/26/3
f 16/28/9 12/209/9 10/29/9
f 12/31/5 11/210/5 9/32/5
f 10/34/10 9/211/10 13/35/10
f 19/37/11 20/41/11 18/38/11
f 21/40/12 22/43/12 20/41/12
f 23/42/13 24/212/13 22/43/13
f 25/44/14 26/48/14 24/45/14
f 27/47/15 28/213/15 26/48/15
f 29/49/16 30/53/16 28/50/16
f 31/52/17 32/55/17 30/53/17
f 17/54/18 18/214/18 32/55/18
f 34/56/15 36/89/15 35/57/15
f 36/59/16 38/215/16 37/60/16
f 38/62/17 40/216/17 39/63/17
f 40/65/18 42/102/18 41/66/18
f 41/68/11 42/96/11 44/69/11
f 44/71/12 46/217/12 45/72/12
f 46/74/13 48/218/13 47/75/13
f 48/77/14 34/84/14 33/78/14
f 33/80/6 35/86/6 19/81/6
f 20/83/2 36/59/2 34/84/2
f 35/86/6 37/219/6 21/87/6
f 22/88/2 38/62/2 36/89/2
f 21/87/6 37/219/6 39/91/6
f 40/65/2 38/215/2 22/93/2
f 39/91/6 41/99/6 25/95/6
f 42/96/2 40/216/2 24/97/2
f 41/99/6 43/104/6 27/100/6
f 28/101/2 44/71/2 42/102/2
f 43/104/6 45/220/6 29/105/6
f 30/106/2 46/74/2 44/69/2
f 29/105/6 45/220/6 47/108/6
f 48/77/2 46/217/2 30/110/2
f 31/109/6 47/108/6 33/80/6
f 34/56/2 48/218/2 32/112/2
f 49/114/5 51/120/5 59/115/5
f 60/117/3 52/123/3 50/118/3
f 51/120/5 53/124/5 61/121/5
f 62/122/3 54/127/3 52/123/3
f 53/124/5 55/221/5 63/125/5
f 64/126/3 56/222/3 54/127/3
f 51/128/19 49/223/19 50/129/19
f 53/131/20 51/224/20 52/132/20
f 55/134/21 53/225/21 54/135/21
f 58/137/22 57/226/22 59/138/22
f 60/140/23 59/227/23 61/141/23
f 64/143/24 62/142/24 61/141/24
f 71/145/5 65/228/5 67/146/5
f 68/148/3 66/229/3 72/149/3
f 67/146/5 69/230/5 75/151/5
f 76/152/3 70/231/3 68/148/3
f 67/153/25 65/232/25 66/154/25
f 69/156/26 67/233/26 68/157/26
f 72/159/27 71/234/27 73/160/27
f 74/162/28 73/235/28 75/163/28
f 79/165/3 80/236/3 78/166/3
f 83/168/6 84/237/6 80/169/6
f 83/171/5 81/238/5 82/172/5
f 77/174/2 78/239/2 82/175/2
f 77/174/4 81/240/4 83/177/4
f 82/179/29 78/241/29 80/180/29
f 87/182/3 88/242/3 86/183/3
f 91/185/6 92/243/6 88/186/6
f 89/188/5 90/244/5 92/189/5
f 85/191/2 86/245/2 90/192/2
f 85/194/4 89/246/4 91/195/4
f 90/197/1 86/247/1 88/198/1
