# Blender 4.0.2
# www.blender.org
mtllib heavytank.mtl
o heavytank5
v 0.480000 0.400000 -1.000000
v 0.400000 -0.000000 -0.600000
v 0.490000 0.410000 1.000000
v 0.410000 -0.000000 0.600000
v -0.480000 0.400000 -1.000000
v -0.400000 0.000000 -0.600000
v -0.490000 0.410000 1.000000
v -0.410000 0.000000 0.600000
v -0.520000 0.590000 0.000000
v 0.290000 1.000000 0.700000
v -0.290000 1.000000 0.700000
v 0.310000 1.000000 0.300000
v -0.310000 1.000000 0.300000
v 0.520000 0.590000 -0.000000
v -0.100000 0.700000 0.300000
v -0.100000 0.900000 0.300000
v -0.100000 0.700000 -1.000000
v -0.100000 0.900000 -1.000000
v 0.100000 0.700000 0.300000
v 0.100000 0.900000 0.300000
v 0.100000 0.700000 -1.000000
v 0.100000 0.900000 -1.000000
v 0.650000 0.350000 0.300000
v 0.550000 0.350000 0.300000
v 0.650000 0.350000 -0.300000
v 0.550000 0.350000 -0.300000
v 0.650000 0.450000 0.300000
v 0.550000 0.450000 0.300000
v 0.650000 0.450000 -0.300000
v 0.550000 0.450000 -0.300000
vn 0.9276 0.3617 0.0929
vn -0.9822 -0.1878 -0.0040
vn -0.0000 -0.0000 1.0000
vn -0.0000 -0.6983 0.7158
vn -1.0000 -0.0000 -0.0000
vn -0.0000 1.0000 -0.0000
vn -0.0000 0.9824 -0.1867
vn -0.0000 -0.0000 -1.0000
vn -0.0000 -1.0000 -0.0000
vn -0.0000 -0.7071 -0.7071
vn -0.0000 0.5905 -0.8070
vn -0.0000 0.4532 0.8914
vn 1.0000 -0.0000 -0.0000
vn 0.9798 -0.1999 -0.0039
vn -0.9276 0.3617 0.0929
vn 0.9021 0.4291 0.0451
vn -0.9826 -0.1859 -0.0040
vn -0.9789 -0.2039 -0.0082
vn 0.9826 -0.1859 -0.0040
vn 0.9829 -0.1838 -0.0082
vn -0.9021 0.4291 0.0451
vt 0.823529 0.852941
vt 0.735294 0.970588
vt 0.676471 0.794118
vt 0.029412 0.147059
vt 0.264706 0.029412
vt 0.323529 0.147059
vt 0.970588 0.647059
vt 0.676471 0.352941
vt 0.970588 0.352941
vt 0.970588 0.470588
vt 0.705882 0.352941
vt 0.941176 0.352941
vt 0.029412 0.294118
vt 0.235294 0.235294
vt 0.235294 0.294118
vt 0.264706 0.735294
vt 0.088235 0.676471
vt 0.264706 0.676471
vt 0.147059 0.735294
vt 0.205882 0.970588
vt 0.147059 0.970588
vt 0.029412 0.794118
vt 0.323529 0.970588
vt 0.029412 0.970588
vt 0.147059 0.617647
vt 0.205882 0.558824
vt 0.205882 0.617647
vt 0.676471 0.029412
vt 0.970588 0.323529
vt 0.676471 0.323529
vt 0.058824 0.470588
vt 0.294118 0.352941
vt 0.323529 0.470588
vt 0.852941 0.029412
vt 0.794118 0.264706
vt 0.794118 0.029412
vt 0.029412 0.676471
vt 0.029412 0.529412
vt 0.264706 0.647059
vt 0.088235 0.647059
vt 0.911765 0.647059
vt 0.676471 0.470588
vt 0.323529 0.029412
vt 0.029412 0.323529
vt 0.029412 0.029412
vt 0.970588 0.117647
vt 0.676471 0.117647
vt 0.794118 0.941176
vt 0.970588 0.882353
vt 0.970588 0.941176
vt 0.676471 0.970588
vt 0.970588 0.676471
vt 0.970588 0.970588
vt 0.352941 0.352941
vt 0.647059 0.647059
vt 0.352941 0.647059
vt 0.323529 0.352941
vt 0.029412 0.647059
vt 0.029412 0.352941
vt 0.911765 0.676471
vt 0.970588 0.794118
vt 0.294118 0.323529
vt 0.176471 0.205882
vt 0.794118 0.970588
vt 0.088235 0.029412
vt 0.676471 0.647059
vt 0.029412 0.235294
vt 0.088235 0.735294
vt 0.205882 0.735294
vt 0.323529 0.794118
vt 0.147059 0.558824
vt 0.970588 0.029412
vt 0.058824 0.352941
vt 0.852941 0.264706
vt 0.323529 0.676471
vt 0.323529 0.529412
vt 0.735294 0.647059
vt 0.323529 0.323529
vt 0.794118 0.882353
vt 0.676471 0.676471
vt 0.647059 0.352941
vt 0.323529 0.647059
vt 0.735294 0.676471
vt 0.235294 0.323529
s 0
usemtl Material
f 14/1/1 10/2/1 3/3/1
f 5/4/2 8/5/2 7/6/2
f 27/7/3 24/8/3 23/9/3
f 3/10/4 8/11/4 4/12/4
f 18/13/5 15/14/5 16/15/5
f 12/16/6 11/17/6 10/18/6
f 16/19/6 22/20/6 18/21/6
f 9/22/7 1/23/7 5/24/7
f 22/25/8 17/26/8 18/27/8
f 26/28/9 23/29/9 24/30/9
f 1/31/10 6/32/10 5/33/10
f 21/34/9 15/35/9 17/36/9
f 28/37/6 29/23/6 30/24/6
f 14/38/11 13/39/11 12/40/11
f 10/41/12 7/42/12 3/10/12
f 24/43/5 30/44/5 26/45/5
f 2/46/9 8/30/9 6/47/9
f 20/48/13 21/49/13 22/50/13
f 27/51/13 25/52/13 29/53/13
f 20/54/3 15/55/3 19/56/3
f 26/57/8 29/58/8 25/59/8
f 3/3/14 2/60/14 1/61/14
f 11/62/15 9/63/15 7/6/15
f 14/1/16 12/64/16 10/2/16
f 7/6/17 9/63/17 5/4/17
f 5/4/18 6/65/18 8/5/18
f 27/7/3 28/66/3 24/8/3
f 3/10/4 7/42/4 8/11/4
f 18/13/5 17/67/5 15/14/5
f 12/16/6 13/68/6 11/17/6
f 16/19/6 20/69/6 22/20/6
f 9/22/7 14/70/7 1/23/7
f 22/25/8 21/71/8 17/26/8
f 26/28/9 25/72/9 23/29/9
f 1/31/10 2/73/10 6/32/10
f 21/34/9 19/74/9 15/35/9
f 28/37/6 27/75/6 29/23/6
f 14/38/11 9/76/11 13/39/11
f 10/41/12 11/77/12 7/42/12
f 24/43/5 28/78/5 30/44/5
f 2/46/9 4/29/9 8/30/9
f 20/48/13 19/79/13 21/49/13
f 27/51/13 23/80/13 25/52/13
f 20/54/3 16/81/3 15/55/3
f 26/57/8 30/82/8 29/58/8
f 1/61/19 14/1/19 3/3/19
f 3/3/20 4/83/20 2/60/20
f 11/62/21 13/84/21 9/63/21
