# Blender 3.4.1
# www.blender.org
mtllib heavytank6.mtl
o heavytank5
v 0.480000 0.400000 -1.000000
v 0.400000 -0.000000 -0.600000
v 0.490000 0.410000 1.000000
v 0.410000 -0.000000 0.600000
v -0.480000 0.400000 -1.000000
v -0.400000 0.000000 -0.600000
v -0.490000 0.410000 1.000000
v -0.410000 0.000000 0.600000
v -0.520000 0.590000 0.000000
v 0.290000 1.000000 0.700000
v -0.290000 1.000000 0.700000
v 0.310000 1.000000 0.300000
v -0.310000 1.000000 0.300000
v 0.520000 0.590000 -0.000000
v -0.100000 0.700000 0.300000
v -0.100000 0.900000 0.300000
v -0.100000 0.700000 -1.000000
v -0.100000 0.900000 -1.000000
v 0.100000 0.700000 0.300000
v 0.100000 0.900000 0.300000
v 0.100000 0.700000 -1.000000
v 0.100000 0.900000 -1.000000
v 0.650000 0.350000 0.300000
v 0.550000 0.350000 0.300000
v 0.650000 0.350000 -0.300000
v 0.550000 0.350000 -0.300000
v 0.650000 0.450000 0.300000
v 0.550000 0.450000 0.300000
v 0.650000 0.450000 -0.300000
v 0.550000 0.450000 -0.300000
vn 0.9276 0.3617 0.0929
vn -0.9822 -0.1878 -0.0040
vn -0.0000 -0.0000 1.0000
vn -0.0000 -0.6983 0.7158
vn -1.0000 -0.0000 -0.0000
vn -0.0000 1.0000 -0.0000
vn -0.0000 0.9824 -0.1867
vn -0.0000 -0.0000 -1.0000
vn -0.0000 -1.0000 -0.0000
vn -0.0000 -0.7071 -0.7071
vn -0.0000 0.5905 -0.8070
vn -0.0000 0.4532 0.8914
vn 1.0000 -0.0000 -0.0000
vn 0.9798 -0.1999 -0.0039
vn -0.9276 0.3617 0.0929
vn 0.9021 0.4291 0.0451
vn -0.9826 -0.1859 -0.0040
vn -0.9789 -0.2039 -0.0082
vn 0.9826 -0.1859 -0.0040
vn 0.9829 -0.1838 -0.0082
vn -0.9021 0.4291 0.0451
vt 0.323529 0.970588
vt 0.058824 0.470588
vt 0.970588 0.794118
vt 0.058824 0.352941
vt 0.970588 0.117647
vt 0.911765 0.676471
vt 0.970588 0.470588
vt 0.676471 0.794118
vt 0.941176 0.352941
vt 0.970588 0.323529
vt 0.735294 0.676471
vt 0.029412 0.970588
vt 0.323529 0.470588
vt 0.029412 0.147059
vt 0.676471 0.117647
vt 0.088235 0.029412
vt 0.294118 0.352941
vt 0.323529 0.147059
vt 0.676471 0.470588
vt 0.264706 0.029412
vt 0.705882 0.352941
vt 0.676471 0.323529
vt 0.029412 0.794118
vt 0.323529 0.529412
vt 0.176471 0.205882
vt 0.264706 0.676471
vt 0.735294 0.970588
vt 0.911765 0.647059
vt 0.088235 0.676471
vt 0.735294 0.647059
vt 0.294118 0.323529
vt 0.088235 0.647059
vt 0.794118 0.970588
vt 0.264706 0.735294
vt 0.088235 0.735294
vt 0.264706 0.647059
vt 0.235294 0.323529
vt 0.323529 0.794118
vt 0.029412 0.529412
vt 0.823529 0.852941
vt 0.235294 0.235294
vt 0.794118 0.264706
vt 0.647059 0.647059
vt 0.235294 0.294118
vt 0.147059 0.735294
vt 0.647059 0.352941
vt 0.794118 0.029412
vt 0.029412 0.235294
vt 0.205882 0.558824
vt 0.147059 0.970588
vt 0.205882 0.617647
vt 0.029412 0.294118
vt 0.352941 0.647059
vt 0.852941 0.264706
vt 0.794118 0.882353
vt 0.205882 0.735294
vt 0.794118 0.941176
vt 0.352941 0.352941
vt 0.147059 0.558824
vt 0.852941 0.029412
vt 0.970588 0.882353
vt 0.970588 0.941176
vt 0.205882 0.970588
vt 0.147059 0.617647
vt 0.970588 0.352941
vt 0.970588 0.323529
vt 0.676471 0.676471
vt 0.676471 0.323529
vt 0.676471 0.352941
vt 0.323529 0.029412
vt 0.029412 0.352941
vt 0.970588 0.029412
vt 0.970588 0.676471
vt 0.029412 0.029412
vt 0.676471 0.029412
vt 0.323529 0.352941
vt 0.970588 0.647059
vt 0.323529 0.676471
vt 0.676471 0.970588
vt 0.676471 0.647059
vt 0.029412 0.676471
vt 0.323529 0.323529
vt 0.970588 0.970588
vt 0.323529 0.970588
vt 0.029412 0.647059
vt 0.029412 0.970588
vt 0.029412 0.323529
vt 0.323529 0.647059
s 0
usemtl Material
f 14/40/1 10/27/1 3/8/1
f 5/14/2 8/20/2 7/18/2
f 27/77/3 24/69/3 23/65/3
f 3/7/4 8/21/4 4/9/4
f 18/52/5 15/41/5 16/44/5
f 12/34/6 11/29/6 10/26/6
f 16/45/6 22/63/6 18/50/6
f 9/23/7 1/1/7 5/12/7
f 22/64/8 17/49/8 18/51/8
f 26/75/9 23/66/9 24/68/9
f 1/2/10 6/17/10 5/13/10
f 21/60/9 15/42/9 17/47/9
f 28/81/6 29/84/6 30/86/6
f 14/39/11 13/36/11 12/32/11
f 10/28/12 7/19/12 3/7/12
f 24/70/5 30/87/5 26/74/5
f 2/5/9 8/22/9 6/15/9
f 20/57/13 21/61/13 22/62/13
f 27/79/13 25/73/13 29/83/13
f 20/58/3 15/43/3 19/53/3
f 26/76/8 29/85/8 25/71/8
f 3/8/14 2/6/14 1/3/14
f 11/31/15 9/25/15 7/18/15
f 14/40/16 12/33/16 10/27/16
f 7/18/17 9/25/17 5/14/17
f 5/14/18 6/16/18 8/20/18
f 27/77/3 28/80/3 24/69/3
f 3/7/4 7/19/4 8/21/4
f 18/52/5 17/48/5 15/41/5
f 12/34/6 13/35/6 11/29/6
f 16/45/6 20/56/6 22/63/6
f 9/23/7 14/38/7 1/1/7
f 22/64/8 21/59/8 17/49/8
f 26/75/9 25/72/9 23/66/9
f 1/2/10 2/4/10 6/17/10
f 21/60/9 19/54/9 15/42/9
f 28/81/6 27/78/6 29/84/6
f 14/39/11 9/24/11 13/36/11
f 10/28/12 11/30/12 7/19/12
f 24/70/5 28/82/5 30/87/5
f 2/5/9 4/10/9 8/22/9
f 20/57/13 19/55/13 21/61/13
f 27/79/13 23/67/13 25/73/13
f 20/58/3 16/46/3 15/43/3
f 26/76/8 30/88/8 29/85/8
f 1/3/19 14/40/19 3/8/19
f 3/8/20 4/11/20 2/6/20
f 11/31/21 13/37/21 9/25/21
