# Blender v3.4.1 OBJ File: 'laraleg.blend'
# www.blender.org
mtllib laraleg.mtl
o M005
v 0.360000 -1.435575 -0.200000
v 0.360000 -1.095575 -0.180001
v 0.130000 -1.095575 0.039999
v 0.360000 -1.435575 -0.200000
v 0.130000 -1.095575 0.039999
v 0.040000 -1.435575 0.060000
v 0.590000 -1.095575 0.039999
v 0.360000 -1.095575 -0.180001
v 0.360000 -1.435575 -0.200000
v 0.590000 -1.095575 0.039999
v 0.360000 -1.435575 -0.200000
v 0.670000 -1.435575 0.050000
v 0.510000 -1.105575 0.279999
v 0.590000 -1.095575 0.039999
v 0.670000 -1.435575 0.050000
v 0.510000 -1.105575 0.279999
v 0.670000 -1.435575 0.050000
v 0.550000 -1.555575 0.380000
v 0.160000 -1.555575 0.380000
v 0.220000 -1.105575 0.279999
v 0.510000 -1.105575 0.279999
v 0.160000 -1.555575 0.380000
v 0.510000 -1.105575 0.279999
v 0.550000 -1.555575 0.380000
v 0.040000 -1.435575 0.060000
v 0.130000 -1.095575 0.039999
v 0.220000 -1.105575 0.279999
v 0.040000 -1.435575 0.060000
v 0.220000 -1.105575 0.279999
v 0.160000 -1.555575 0.380000
v 0.430000 -2.195575 0.110000
v 0.490000 -2.195575 -0.060000
v 0.170000 -2.195575 -0.060000
v 0.430000 -2.195575 0.110000
v 0.170000 -2.195575 -0.060000
v 0.230000 -2.195575 0.120000
v 0.490000 -2.195575 -0.060000
v 0.430000 -2.195575 0.110000
v 0.550000 -1.555575 0.380000
v 0.490000 -2.195575 -0.060000
v 0.550000 -1.555575 0.380000
v 0.670000 -1.435575 0.050000
v 0.430000 -2.195575 0.110000
v 0.230000 -2.195575 0.120000
v 0.160000 -1.555575 0.380000
v 0.430000 -2.195575 0.110000
v 0.160000 -1.555575 0.380000
v 0.550000 -1.555575 0.380000
v 0.170000 -2.195575 -0.060000
v 0.040000 -1.435575 0.060000
v 0.160000 -1.555575 0.380000
v 0.170000 -2.195575 -0.060000
v 0.160000 -1.555575 0.380000
v 0.230000 -2.195575 0.120000
v 0.180000 -0.305575 -0.060001
v 0.130000 -1.095575 0.039999
v 0.360000 -1.095575 -0.180001
v 0.180000 -0.305575 -0.060001
v 0.360000 -1.095575 -0.180001
v 0.330000 -0.305575 -0.190001
v 0.330000 -0.305575 -0.190001
v 0.360000 -1.095575 -0.180001
v 0.590000 -1.095575 0.039999
v 0.330000 -0.305575 -0.190001
v 0.590000 -1.095575 0.039999
v 0.490000 -0.305575 -0.060001
v 0.490000 -0.305575 -0.060001
v 0.590000 -1.095575 0.039999
v 0.510000 -1.105575 0.279999
v 0.490000 -0.305575 -0.060001
v 0.510000 -1.105575 0.279999
v 0.430000 -0.305575 0.159999
v 0.430000 -0.305575 0.159999
v 0.510000 -1.105575 0.279999
v 0.220000 -1.105575 0.279999
v 0.430000 -0.305575 0.159999
v 0.220000 -1.105575 0.279999
v 0.230000 -0.305575 0.159999
v 0.240000 -0.195575 -0.080001
v 0.450000 -0.195575 -0.090001
v 0.350000 -0.195575 0.099999
v 0.490000 -2.195575 -0.060000
v 0.330000 -2.195575 -0.230000
v 0.170000 -2.195575 -0.060000
v 0.360000 -1.435575 -0.200000
v 0.170000 -2.195575 -0.060000
v 0.330000 -2.195575 -0.230000
v 0.360000 -1.435575 -0.200000
v 0.040000 -1.435575 0.060000
v 0.170000 -2.195575 -0.060000
v 0.490000 -2.195575 -0.060000
v 0.670000 -1.435575 0.050000
v 0.360000 -1.435575 -0.200000
v 0.360000 -1.435575 -0.200000
v 0.330000 -2.195575 -0.230000
v 0.490000 -2.195575 -0.060000
v 0.240000 -0.195575 -0.080001
v 0.180000 -0.305575 -0.060001
v 0.330000 -0.305575 -0.190001
v 0.450000 -0.195575 -0.090001
v 0.330000 -0.305575 -0.190001
v 0.490000 -0.305575 -0.060001
v 0.450000 -0.195575 -0.090001
v 0.240000 -0.195575 -0.080001
v 0.330000 -0.305575 -0.190001
v 0.430000 -0.305575 0.159999
v 0.350000 -0.195575 0.099999
v 0.450000 -0.195575 -0.090001
v 0.450000 -0.195575 -0.090001
v 0.490000 -0.305575 -0.060001
v 0.430000 -0.305575 0.159999
v 0.350000 -0.195575 0.099999
v 0.430000 -0.305575 0.159999
v 0.230000 -0.305575 0.159999
v 0.240000 -0.195575 -0.080001
v 0.230000 -0.305575 0.159999
v 0.180000 -0.305575 -0.060001
v 0.240000 -0.195575 -0.080001
v 0.350000 -0.195575 0.099999
v 0.230000 -0.305575 0.159999
v 0.220000 -1.105575 0.279999
v 0.180000 -0.305575 -0.060001
v 0.230000 -0.305575 0.159999
v 0.180000 -0.305575 -0.060001
v 0.220000 -1.105575 0.279999
v 0.130000 -1.095575 0.039999
v 0.190000 0.772986 -0.890001
v 0.170000 0.972986 -0.910001
v 0.070000 0.982986 -0.370001
v 0.190000 0.772986 -0.890001
v 0.070000 0.982986 -0.370001
v 0.110000 0.612986 -0.380001
v 0.460000 0.972986 -0.910001
v 0.440000 0.772986 -0.890001
v 0.520000 0.612986 -0.380001
v 0.460000 0.972986 -0.910001
v 0.520000 0.612986 -0.380001
v 0.560000 0.982986 -0.470001
v 0.170000 0.972986 -0.910001
v 0.460000 0.972986 -0.910001
v 0.560000 0.982986 -0.470001
v 0.170000 0.972986 -0.910001
v 0.560000 0.982986 -0.470001
v 0.070000 0.982986 -0.370001
v 0.460000 0.412986 0.179999
v 0.170000 0.412986 0.179999
v 0.140000 0.632986 0.249999
v 0.460000 0.412986 0.179999
v 0.140000 0.632986 0.249999
v 0.490000 0.632986 0.249999
v 0.160000 0.982986 0.289999
v 0.470000 0.982986 0.289999
v 0.490000 0.632986 0.249999
v 0.160000 0.982986 0.289999
v 0.490000 0.632986 0.249999
v 0.140000 0.632986 0.249999
v 0.460000 0.432986 -0.170001
v 0.170000 0.432986 -0.170001
v 0.170000 0.412986 0.179999
v 0.460000 0.432986 -0.170001
v 0.170000 0.412986 0.179999
v 0.460000 0.412986 0.179999
v 0.070000 0.982986 -0.370001
v 0.560000 0.982986 -0.470001
v 0.470000 0.982986 0.289999
v 0.070000 0.982986 -0.370001
v 0.470000 0.982986 0.289999
v 0.160000 0.982986 0.289999
v 0.170000 0.972986 -0.910001
v 0.190000 0.772986 -0.890001
v 0.440000 0.772986 -0.890001
v 0.170000 0.972986 -0.910001
v 0.440000 0.772986 -0.890001
v 0.460000 0.972986 -0.910001
v 0.190000 0.772986 -0.890001
v 0.110000 0.612986 -0.380001
v 0.520000 0.612986 -0.380001
v 0.190000 0.772986 -0.890001
v 0.520000 0.612986 -0.380001
v 0.440000 0.772986 -0.890001
v 0.110000 0.612986 -0.380001
v 0.170000 0.432986 -0.170001
v 0.460000 0.432986 -0.170001
v 0.110000 0.612986 -0.380001
v 0.460000 0.432986 -0.170001
v 0.520000 0.612986 -0.380001
v 0.170000 0.412986 0.179999
v 0.170000 0.432986 -0.170001
v 0.110000 0.612986 -0.380001
v 0.110000 0.612986 -0.380001
v 0.140000 0.632986 0.249999
v 0.170000 0.412986 0.179999
v 0.460000 0.432986 -0.170001
v 0.460000 0.412986 0.179999
v 0.490000 0.632986 0.249999
v 0.490000 0.632986 0.249999
v 0.520000 0.612986 -0.380001
v 0.460000 0.432986 -0.170001
v 0.070000 0.982986 -0.370001
v 0.160000 0.982986 0.289999
v 0.110000 0.612986 -0.380001
v 0.160000 0.982986 0.289999
v 0.140000 0.632986 0.249999
v 0.110000 0.612986 -0.380001
v 0.470000 0.982986 0.289999
v 0.560000 0.982986 -0.470001
v 0.520000 0.612986 -0.380001
v 0.520000 0.612986 -0.380001
v 0.490000 0.632986 0.249999
v 0.470000 0.982986 0.289999
vt 0.968627 0.759563
vt 0.968627 0.759563
vt 0.968627 0.759563
vt 0.968627 0.759563
vt 0.968627 0.759563
vt 0.968627 0.759563
vt 0.968627 0.759563
vt 0.968627 0.759563
vt 0.968627 0.759563
vt 0.968627 0.759563
vt 0.968627 0.759563
vt 0.968627 0.759563
vt 0.968627 0.759563
vt 0.968627 0.759563
vt 0.968627 0.759563
vt 0.968627 0.759563
vt 0.968627 0.759563
vt 0.968627 0.759563
vt 0.968627 0.759563
vt 0.968627 0.759563
vt 0.968627 0.759563
vt 0.968627 0.759563
vt 0.968627 0.759563
vt 0.968627 0.759563
vt 0.968627 0.759563
vt 0.968627 0.759563
vt 0.968627 0.759563
vt 0.968627 0.759563
vt 0.968627 0.759563
vt 0.968627 0.759563
vt 0.968627 0.759563
vt 0.968627 0.759563
vt 0.968627 0.759563
vt 0.968627 0.759563
vt 0.968627 0.759563
vt 0.968627 0.759563
vt 0.968627 0.759563
vt 0.968627 0.759563
vt 0.968627 0.759563
vt 0.968627 0.759563
vt 0.968627 0.759563
vt 0.968627 0.759563
vt 0.968627 0.759563
vt 0.968627 0.759563
vt 0.968627 0.759563
vt 0.968627 0.759563
vt 0.968627 0.759563
vt 0.968627 0.759563
vt 0.968627 0.759563
vt 0.968627 0.759563
vt 0.968627 0.759563
vt 0.968627 0.759563
vt 0.968627 0.759563
vt 0.968627 0.759563
vt 0.054902 0.442623
vt 0.054902 0.644809
vt 0.003922 0.644809
vt 0.054902 0.442623
vt 0.003922 0.644809
vt 0.003922 0.442623
vt 0.003922 0.442623
vt 0.003922 0.644809
vt 0.054902 0.644809
vt 0.003922 0.442623
vt 0.054902 0.442623
vt 0.054902 0.644809
vt 0.996078 0.792350
vt 0.996078 0.994536
vt 0.945098 0.994536
vt 0.996078 0.792350
vt 0.945098 0.792350
vt 0.945098 0.994536
vt 0.996078 0.792350
vt 0.996078 0.994536
vt 0.945098 0.994536
vt 0.996078 0.792350
vt 0.945098 0.994536
vt 0.945098 0.792350
vt 0.956863 0.759563
vt 0.956863 0.759563
vt 0.956863 0.759563
vt 0.968627 0.759563
vt 0.968627 0.759563
vt 0.968627 0.759563
vt 0.968627 0.759563
vt 0.968627 0.759563
vt 0.968627 0.759563
vt 0.968627 0.759563
vt 0.968627 0.759563
vt 0.968627 0.759563
vt 0.968627 0.759563
vt 0.968627 0.759563
vt 0.968627 0.759563
vt 0.968627 0.759563
vt 0.968627 0.759563
vt 0.968627 0.759563
vt 0.956863 0.759563
vt 0.956863 0.759563
vt 0.956863 0.759563
vt 0.956863 0.759563
vt 0.956863 0.759563
vt 0.956863 0.759563
vt 0.956863 0.759563
vt 0.956863 0.759563
vt 0.956863 0.759563
vt 0.956863 0.759563
vt 0.956863 0.759563
vt 0.956863 0.759563
vt 0.956863 0.759563
vt 0.956863 0.759563
vt 0.956863 0.759563
vt 0.956863 0.759563
vt 0.956863 0.759563
vt 0.956863 0.759563
vt 0.956863 0.759563
vt 0.956863 0.759563
vt 0.956863 0.759563
vt 0.956863 0.759563
vt 0.956863 0.759563
vt 0.956863 0.759563
vt 0.996078 0.994536
vt 0.945098 0.792350
vt 0.996078 0.792350
vt 0.945098 0.792350
vt 0.996078 0.994536
vt 0.945098 0.994536
vt 0.956863 0.759563
vt 0.956863 0.759563
vt 0.956863 0.759563
vt 0.956863 0.759563
vt 0.956863 0.759563
vt 0.956863 0.759563
vt 0.956863 0.759563
vt 0.956863 0.759563
vt 0.956863 0.759563
vt 0.956863 0.759563
vt 0.956863 0.759563
vt 0.956863 0.759563
vt 0.968627 0.775956
vt 0.968627 0.775956
vt 0.968627 0.775956
vt 0.968627 0.775956
vt 0.968627 0.775956
vt 0.968627 0.775956
vt 0.956863 0.759563
vt 0.956863 0.759563
vt 0.956863 0.759563
vt 0.956863 0.759563
vt 0.956863 0.759563
vt 0.956863 0.759563
vt 0.956863 0.759563
vt 0.956863 0.759563
vt 0.956863 0.759563
vt 0.956863 0.759563
vt 0.956863 0.759563
vt 0.956863 0.759563
vt 0.956863 0.759563
vt 0.956863 0.759563
vt 0.956863 0.759563
vt 0.956863 0.759563
vt 0.956863 0.759563
vt 0.956863 0.759563
vt 0.968627 0.775956
vt 0.968627 0.775956
vt 0.968627 0.775956
vt 0.968627 0.775956
vt 0.968627 0.775956
vt 0.968627 0.775956
vt 0.956863 0.759563
vt 0.956863 0.759563
vt 0.956863 0.759563
vt 0.956863 0.759563
vt 0.956863 0.759563
vt 0.956863 0.759563
vt 0.807843 0.136612
vt 0.756863 0.251366
vt 0.807843 0.251366
vt 0.807843 0.136612
vt 0.756863 0.136612
vt 0.756863 0.251366
vt 0.117647 0.005464
vt 0.117647 0.120219
vt 0.066667 0.120219
vt 0.117647 0.005464
vt 0.066667 0.005464
vt 0.066667 0.120219
vt 0.956863 0.759563
vt 0.956863 0.759563
vt 0.956863 0.759563
vt 0.956863 0.759563
vt 0.956863 0.759563
vt 0.956863 0.759563
vt 0.956863 0.759563
vt 0.956863 0.759563
vt 0.956863 0.759563
vt 0.956863 0.759563
vt 0.956863 0.759563
vt 0.956863 0.759563
vt 0.956863 0.759563
vt 0.956863 0.759563
vt 0.956863 0.759563
vt 0.956863 0.759563
vt 0.956863 0.759563
vt 0.956863 0.759563
vt 0.956863 0.759563
vt 0.956863 0.759563
vt 0.956863 0.759563
vt 0.956863 0.759563
vt 0.956863 0.759563
vt 0.956863 0.759563
vn -0.6906 0.0425 -0.7220
vn 0.6260 -0.1204 0.7705
vn 0.6906 0.0425 -0.7220
vn 0.6229 0.1238 -0.7724
vn -0.9213 -0.2261 -0.3165
vn 0.9055 0.1672 0.3901
vn 0.0000 -0.2169 -0.9762
vn 0.0000 0.2169 0.9762
vn 0.9008 -0.2590 -0.3486
vn -0.8871 0.2097 0.4113
vn 0.0000 1.0000 0.0000
vn -0.8988 0.3024 -0.3172
vn 0.9345 -0.2570 0.2464
vn -0.0464 0.3716 -0.9272
vn 0.0000 -0.3887 0.9214
vn -0.9393 -0.2042 0.2757
vn -0.9241 -0.2262 0.3080
vn 0.6904 0.0477 0.7218
vn 0.6545 0.0344 0.7552
vn -0.6911 -0.0171 0.7225
vn 0.6305 -0.0184 -0.7760
vn -0.9347 -0.1586 -0.3182
vn 0.9560 0.1347 0.2607
vn 0.0000 -0.1483 -0.9889
vn 0.0000 -1.0000 0.0000
vn -0.7271 0.0557 -0.6843
vn -0.6305 0.0147 -0.7760
vn -0.6273 0.0360 0.7779
vn -0.7282 0.0017 0.6854
vn -0.6397 0.2147 -0.7381
vn 0.6305 0.0176 -0.7760
vn 0.0343 -0.6925 0.7206
vn -0.6585 -0.6680 -0.3466
vn 0.8887 0.3893 0.2424
vn 0.0000 0.4789 0.8779
vn -0.8464 0.4966 0.1924
vn 0.5422 -0.7722 -0.3313
vn 0.9741 -0.0454 -0.2214
vn 0.9299 -0.1035 -0.3530
vn -0.9771 -0.1156 -0.1788
vn 0.9776 0.1007 0.1849
vn 0.9750 -0.1164 -0.1895
vn 0.9639 -0.1566 -0.2155
vn 0.0000 0.9997 -0.0227
vn -0.0039 0.9998 -0.0192
vn 0.0000 -0.3032 0.9529
vn 0.0000 0.3032 -0.9529
vn 0.0000 -0.1135 0.9935
vn 0.0000 0.1135 -0.9935
vn 0.0000 -0.9984 -0.0570
vn 0.0000 0.9984 0.0570
vn 0.0000 -0.0995 -0.9950
vn 0.0000 -0.9541 -0.2993
vn 0.0000 0.7593 0.6508
vn 0.0000 -0.7593 -0.6508
vn 0.9416 0.3363 0.0192
vn 0.9872 0.1511 -0.0518
vn -0.9911 0.1327 0.0076
vn 0.9645 -0.2584 0.0541
vn -0.9848 -0.1101 0.1343
vn 0.9976 -0.0518 -0.0459
vn -0.9900 0.0785 -0.1172
vn 0.9976 0.0518 0.0459
usemtl tile0
s 1
f 1/1/1 3/2/1 2/3/1
f 4/4/2 5/5/2 6/6/2
f 7/7/3 9/8/3 8/9/3
f 10/10/4 12/11/4 11/12/4
f 13/13/5 14/14/5 15/15/5
f 16/16/6 18/17/6 17/18/6
f 19/19/7 20/20/7 21/21/7
f 22/22/8 24/23/8 23/24/8
f 25/25/9 26/26/9 27/27/9
f 28/28/10 30/29/10 29/30/10
f 31/31/11 32/32/11 33/33/11
f 34/34/11 35/35/11 36/36/11
f 37/37/12 38/38/12 39/39/12
f 40/40/13 42/41/13 41/42/13
f 43/43/14 44/44/14 45/45/14
f 46/46/15 48/47/15 47/48/15
f 49/49/16 51/50/16 50/51/16
f 52/52/17 54/53/17 53/54/17
f 55/55/18 56/56/18 57/57/18
f 58/58/19 59/59/19 60/60/19
f 61/61/20 62/62/20 63/63/20
f 64/64/21 66/65/21 65/66/21
f 67/67/22 68/68/22 69/69/22
f 70/70/23 72/71/23 71/72/23
f 73/73/24 74/74/24 75/75/24
f 76/76/24 77/77/24 78/78/24
f 79/79/25 80/80/25 81/81/25
f 82/82/25 84/83/25 83/84/25
f 85/85/26 87/86/26 86/87/26
f 88/88/27 90/89/27 89/90/27
f 91/91/28 92/92/28 93/93/28
f 94/94/29 95/95/29 96/96/29
f 97/97/30 99/98/30 98/99/30
f 100/100/31 102/101/31 101/102/31
f 103/103/32 104/104/32 105/105/32
f 106/106/33 107/107/33 108/108/33
f 109/109/34 111/110/34 110/111/34
f 112/112/35 114/113/35 113/114/35
f 115/115/36 117/116/36 116/117/36
f 118/118/37 119/119/37 120/120/37
f 121/121/38 122/122/38 123/123/38
f 124/124/39 125/125/39 126/126/39
f 127/127/40 129/128/40 128/129/40
f 130/130/41 131/131/41 132/132/41
f 133/133/42 135/134/42 134/135/42
f 136/136/43 138/137/43 137/138/43
f 139/139/44 141/140/44 140/141/44
f 142/142/45 144/143/45 143/144/45
f 145/145/46 147/146/46 146/147/46
f 148/148/47 149/149/47 150/150/47
f 151/151/48 153/152/48 152/153/48
f 154/154/49 155/155/49 156/156/49
f 157/157/50 159/158/50 158/159/50
f 160/160/51 161/161/51 162/162/51
f 163/163/25 164/164/25 165/165/25
f 166/166/25 167/167/25 168/168/25
f 169/169/52 171/170/52 170/171/52
f 172/172/52 174/173/52 173/174/52
f 175/175/53 177/176/53 176/177/53
f 178/178/53 180/179/53 179/180/53
f 181/181/54 182/182/54 183/183/54
f 184/184/55 186/185/55 185/186/55
f 187/187/56 188/188/56 189/189/56
f 190/190/57 191/191/57 192/192/57
f 193/193/58 194/194/58 195/195/58
f 196/196/59 198/197/59 197/198/59
f 199/199/60 201/200/60 200/201/60
f 202/202/61 203/203/61 204/204/61
f 205/205/62 206/206/62 207/207/62
f 208/208/63 210/209/63 209/210/63
