# Blender 3.4.1
# www.blender.org
mtllib runway_numbers.mtl
o Runway_landing_designator_marking-Numbers
v 6.771790 -0.000000 5.830505
v 6.771790 -0.000000 6.297485
v 6.375061 -0.000000 6.657715
v 6.370117 -0.000000 6.968750
v 6.573792 -0.000000 6.783752
v 6.573792 -0.000000 6.784058
v 6.998596 -0.000000 6.397888
v 6.998596 -0.000000 4.271667
v 6.573792 -0.000000 4.271667
v 6.148254 -0.000000 4.271667
v 6.148254 -0.000000 5.830505
v 6.573792 -0.000000 5.830505
v 6.375061 -0.000000 4.696503
v 6.771790 -0.000000 4.696503
v 6.771790 -0.000000 5.405701
v 6.375061 -0.000000 5.405701
v 4.518311 -0.000000 4.271698
v 4.093475 -0.000000 4.271698
v 4.093475 -0.000000 5.221069
v 4.249359 -0.000000 5.376892
v 4.093475 -0.000000 5.532776
v 4.093475 -0.000000 6.822693
v 4.518311 -0.000000 6.822693
v 4.943817 -0.000000 6.822693
v 4.943817 -0.000000 5.532776
v 4.787964 -0.000000 5.376892
v 4.943817 -0.000000 5.221069
v 4.943817 -0.000000 4.271698
v 4.320282 -0.000000 6.397888
v 4.320282 -0.000000 5.589661
v 4.717041 -0.000000 5.589661
v 4.717041 -0.000000 6.397888
v 4.717041 -0.000000 5.164856
v 4.320282 -0.000000 5.164856
v 4.320282 -0.000000 4.696503
v 4.717041 -0.000000 4.696503
v 0.145830 -0.000000 0.438480
v 0.145830 -0.000000 0.097920
v 0.230789 -0.000000 0.012960
v 0.457600 -0.000000 0.012960
v 0.457600 -0.000000 2.564697
v 0.230789 -0.000000 2.564697
v 0.230789 -0.000000 0.438480
v 2.631561 -0.000000 0.835213
v 2.008011 -0.000000 1.827393
v 2.008011 -0.000000 2.139175
v 2.631561 -0.000000 2.139175
v 2.631561 -0.000000 2.564697
v 1.781204 -0.000000 2.564697
v 1.781204 -0.000000 1.827393
v 2.404739 -0.000000 0.835213
v 2.404739 -0.000000 0.438480
v 2.008011 -0.000000 0.438480
v 2.008011 -0.000000 0.693382
v 1.781204 -0.000000 0.693382
v 1.781204 -0.000000 0.012960
v 2.631561 -0.000000 0.012960
v 6.674011 -0.000000 11.087036
v 6.900818 -0.000000 11.087036
v 6.900818 -0.000000 10.037964
v 7.084778 -0.000000 10.037964
v 7.297546 -0.000000 11.087036
v 7.524353 -0.000000 11.087036
v 7.311584 -0.000000 10.037964
v 7.524353 -0.000000 10.037964
v 7.524353 -0.000000 8.535339
v 6.674011 -0.000000 8.535339
v 7.297546 -0.000000 9.612488
v 6.900818 -0.000000 9.612488
v 6.900818 -0.000000 8.960876
v 7.297546 -0.000000 8.960876
v 4.943817 -0.000000 1.345703
v 4.943817 -0.000000 2.564697
v 4.093475 -0.000000 2.564697
v 4.093475 -0.000000 2.139175
v 4.717041 -0.000000 2.139175
v 4.717041 -0.000000 1.430664
v 4.320282 -0.000000 1.033928
v 4.717041 -0.000000 0.636501
v 4.717041 -0.000000 0.438480
v 4.093475 -0.000000 0.438480
v 4.093475 -0.000000 0.012960
v 4.943817 -0.000000 0.012960
v 4.943817 -0.000000 0.722168
v 4.632050 -0.000000 1.033928
v 6.372620 -0.000000 0.012960
v 6.602905 -0.000000 0.012960
v 6.323425 -0.000000 1.600586
v 6.698425 -0.000000 1.600586
v 6.698425 -0.000000 0.778328
v 6.925232 -0.000000 0.778328
v 6.925232 -0.000000 1.600586
v 7.123230 -0.000000 1.600586
v 7.123230 -0.000000 2.026108
v 6.925232 -0.000000 2.026108
v 6.925232 -0.000000 2.564697
v 6.698425 -0.000000 2.564697
v 6.698425 -0.000000 2.026108
v 6.018005 -0.000000 2.026108
v 9.136353 -0.000000 2.139175
v 9.136353 -0.000000 1.203857
v 8.512817 -0.000000 1.203857
v 8.512817 -0.000000 0.012960
v 9.363159 -0.000000 0.012960
v 9.363159 -0.000000 0.438480
v 8.738953 -0.000000 0.438480
v 8.738953 -0.000000 0.778328
v 9.363159 -0.000000 0.778328
v 9.363159 -0.000000 2.564697
v 8.512817 -0.000000 2.564697
v 8.512817 -0.000000 2.139175
v 0.251860 -0.000000 5.263855
v 0.251860 -0.000000 4.796906
v 0.648590 -0.000000 4.436707
v 0.653511 -0.000000 4.125641
v 0.449871 -0.000000 4.310608
v 0.449871 -0.000000 4.310303
v 0.025050 -0.000000 4.696503
v 0.025050 -0.000000 6.822693
v 0.449871 -0.000000 6.822693
v 0.875397 -0.000000 6.822693
v 0.875397 -0.000000 5.263855
v 0.251860 -0.000000 6.397888
v 0.251860 -0.000000 5.688721
v 0.648590 -0.000000 5.688721
v 0.648590 -0.000000 6.397888
v 9.549438 -0.000000 4.271698
v 9.124634 -0.000000 4.271698
v 9.124634 -0.000000 6.822693
v 9.974976 -0.000000 6.822693
v 9.974976 -0.000000 4.271698
v 9.748169 -0.000000 6.397888
v 9.351440 -0.000000 6.397888
v 9.351440 -0.000000 4.696503
v 9.549805 -0.000000 6.822693
v 9.748169 -0.000000 4.696503
v 1.924454 -0.000000 6.822693
v 2.491104 -0.000000 4.696503
v 1.839493 -0.000000 4.696503
v 1.839493 -0.000000 4.271698
v 2.831665 -0.000000 4.271698
v 2.151260 -0.000000 6.822693
v 4.363861 -0.000000 11.087036
v 4.363861 -0.000000 8.535339
v 4.590668 -0.000000 8.535339
v 4.590668 -0.000000 10.661499
v 5.214172 -0.000000 10.661499
v 5.214172 -0.000000 11.087036
v 9.635803 -0.000000 10.661499
v 9.635803 -0.000000 10.491577
v 9.862610 -0.000000 10.491577
v 9.862610 -0.000000 11.087036
v 9.012268 -0.000000 11.087036
v 9.012268 -0.000000 8.535339
v 9.862610 -0.000000 8.535339
v 9.862610 -0.000000 9.130798
v 9.635803 -0.000000 9.130798
v 9.635803 -0.000000 8.960815
v 9.239075 -0.000000 8.960815
v 9.239075 -0.000000 10.661499
v 6.998596 -0.000000 5.410738
v 6.674011 -0.000000 9.811188
vn -0.0000 1.0000 -0.0000
vt 1.000000 0.000000
vt 1.000000 1.000000
vt 0.000000 0.000000
vt 1.000000 0.000000
vt 1.000000 1.000000
vt 1.000000 1.000000
vt 0.000000 0.000000
vt 1.000000 0.000000
vt 1.000000 1.000000
vt 0.000000 0.000000
vt 0.000000 0.000000
vt 1.000000 0.000000
vt 1.000000 1.000000
vt 1.000000 0.000000
vt 1.000000 0.000000
vt 1.000000 1.000000
vt 0.000000 0.000000
vt 0.000000 0.000000
vt 1.000000 1.000000
vt 1.000000 0.000000
vt 0.000000 0.000000
vt 0.000000 0.000000
vt 1.000000 1.000000
vt 1.000000 0.000000
vt 1.000000 1.000000
vt 0.000000 0.000000
vt 1.000000 0.000000
vt 1.000000 1.000000
vt 1.000000 1.000000
vt 0.000000 0.000000
vt 0.000000 0.000000
vt 1.000000 0.000000
vt 1.000000 0.000000
vt 1.000000 1.000000
vt 0.000000 0.000000
vt 1.000000 1.000000
vt 1.000000 1.000000
vt 0.000000 0.000000
vt 1.000000 0.000000
vt 0.000000 0.000000
vt 1.000000 0.000000
vt 0.000000 0.000000
vt 1.000000 1.000000
vt 1.000000 0.000000
vt 1.000000 0.000000
vt 0.000000 0.000000
vt 1.000000 1.000000
vt 0.000000 0.000000
vt 1.000000 0.000000
vt 1.000000 0.000000
vt 1.000000 1.000000
vt 1.000000 0.000000
vt 0.000000 0.000000
vt 1.000000 1.000000
vt 0.000000 0.000000
vt 1.000000 0.000000
vt 1.000000 1.000000
vt 1.000000 1.000000
vt 0.000000 0.000000
vt 1.000000 0.000000
vt 1.000000 1.000000
vt 1.000000 1.000000
vt 1.000000 0.000000
vt 1.000000 0.000000
vt 1.000000 1.000000
vt 1.000000 1.000000
vt 1.000000 0.000000
vt 0.000000 0.000000
vt 1.000000 1.000000
vt 1.000000 0.000000
vt 0.000000 0.000000
vt 1.000000 0.000000
vt 0.000000 0.000000
vt 1.000000 0.000000
vt 1.000000 1.000000
vt 1.000000 0.000000
vt 0.000000 0.000000
vt 1.000000 0.000000
vt 0.000000 0.000000
vt 1.000000 1.000000
vt 1.000000 0.000000
vt 1.000000 0.000000
vt 0.000000 0.000000
vt 1.000000 1.000000
vt 0.000000 0.000000
vt 1.000000 0.000000
vt 0.000000 0.000000
vt 1.000000 1.000000
vt 1.000000 0.000000
vt 1.000000 1.000000
vt 0.000000 0.000000
vt 1.000000 0.000000
vt 1.000000 1.000000
vt 1.000000 1.000000
vt 1.000000 0.000000
vt 0.000000 0.000000
vt 1.000000 0.000000
vt 0.000000 0.000000
vt 1.000000 0.000000
vt 0.000000 0.000000
vt 1.000000 1.000000
vt 1.000000 0.000000
vt 1.000000 1.000000
vt 1.000000 0.000000
vt 0.000000 0.000000
vt 1.000000 1.000000
vt 1.000000 0.000000
vt 0.000000 0.000000
vt 1.000000 1.000000
vt 1.000000 0.000000
vt 1.000000 0.000000
vt 1.000000 0.000000
vt 0.000000 0.000000
vt 0.000000 0.000000
vt 1.000000 0.000000
vt 0.000000 0.000000
vt 1.000000 0.000000
vt 1.000000 1.000000
vt 1.000000 1.000000
vt 1.000000 1.000000
vt 0.000000 0.000000
vt 1.000000 0.000000
vt 1.000000 1.000000
vt 0.000000 0.000000
vt 1.000000 0.000000
vt 0.000000 0.000000
vt 1.000000 0.000000
vt 1.000000 1.000000
vt 1.000000 0.000000
vt 0.000000 0.000000
vt 1.000000 1.000000
vt 1.000000 0.000000
vt 1.000000 1.000000
vt 0.000000 0.000000
vt 0.000000 0.000000
vt 1.000000 1.000000
vt 0.000000 0.000000
vt 1.000000 1.000000
vt 1.000000 0.000000
vt 1.000000 1.000000
vt 1.000000 0.000000
vt 1.000000 0.000000
vt 1.000000 1.000000
vt 0.000000 0.000000
vt 1.000000 1.000000
vt 1.000000 1.000000
vt 1.000000 0.000000
vt 1.000000 1.000000
vt 1.000000 0.000000
vt 1.000000 0.000000
vt 1.000000 0.000000
vt 0.000000 0.000000
vt 0.000000 0.000000
vt 1.000000 1.000000
vt 1.000000 1.000000
vt 1.000000 0.000000
vt 1.000000 1.000000
vt 0.000000 0.000000
vt 1.000000 0.000000
vt 1.000000 1.000000
vt 1.000000 0.000000
vt 1.000000 0.000000
vt 0.000000 0.000000
vt 1.000000 0.000000
vt 0.000000 0.000000
vt 0.000000 0.000000
vt 1.000000 0.000000
vt 1.000000 0.000000
vt 0.000000 0.000000
vt 1.000000 1.000000
vt 1.000000 0.000000
vt 1.000000 0.000000
vt 1.000000 0.000000
vt 0.000000 0.000000
vt 0.000000 0.000000
vt 1.000000 1.000000
vt 1.000000 0.000000
vt 0.000000 0.000000
vt 1.000000 0.000000
vt 1.000000 0.000000
vt 1.000000 1.000000
vt 0.000000 0.000000
vt 1.000000 1.000000
vt 1.000000 0.000000
vt 1.000000 0.000000
vt 1.000000 1.000000
vt 1.000000 0.000000
vt 0.000000 0.000000
vt 1.000000 1.000000
vt 1.000000 0.000000
vt 1.000000 0.000000
vt 1.000000 1.000000
vt 0.000000 0.000000
vt 1.000000 1.000000
vt 1.000000 0.000000
vt 0.000000 0.000000
vt 1.000000 0.000000
vt 1.000000 1.000000
vt 0.000000 0.000000
vt 1.000000 0.000000
vt 1.000000 1.000000
vt 1.000000 1.000000
vt 1.000000 0.000000
vt 1.000000 1.000000
vt 1.000000 0.000000
vt 1.000000 0.000000
vt 0.000000 0.000000
vt 1.000000 0.000000
vt 0.000000 0.000000
vt 1.000000 1.000000
vt 1.000000 1.000000
vt 1.000000 0.000000
vt 1.000000 1.000000
vt 1.000000 0.000000
vt 1.000000 1.000000
vt 1.000000 0.000000
vt 1.000000 0.000000
vt 1.000000 0.000000
vt 1.000000 1.000000
vt 1.000000 1.000000
vt 0.000000 0.000000
vt 1.000000 1.000000
vt 0.000000 0.000000
vt 0.000000 0.000000
vt 1.000000 0.000000
vt 0.000000 0.000000
vt 1.000000 0.000000
vt 0.000000 0.000000
vt 1.000000 1.000000
vt 1.000000 0.000000
vt 1.000000 0.000000
vt 1.000000 1.000000
vt 0.000000 0.000000
vt 0.000000 0.000000
vt 0.000000 0.000000
vt 1.000000 0.000000
vt 1.000000 0.000000
vt 0.000000 0.000000
vt 1.000000 0.000000
vt 1.000000 1.000000
vt 1.000000 0.000000
vt 0.000000 0.000000
vt 1.000000 1.000000
vt 1.000000 1.000000
vt 1.000000 0.000000
vt 1.000000 1.000000
vt 0.000000 0.000000
vt 0.000000 0.000000
vt 1.000000 1.000000
vt 1.000000 0.000000
vt 1.000000 0.000000
vt 0.000000 0.000000
vt 1.000000 1.000000
vt 1.000000 1.000000
vt 1.000000 0.000000
vt 1.000000 0.000000
vt 1.000000 1.000000
vt 1.000000 0.000000
vt 1.000000 1.000000
vt 1.000000 1.000000
vt 0.000000 0.000000
vt 1.000000 1.000000
vt 1.000000 0.000000
vt 0.000000 0.000000
vt 1.000000 0.000000
vt 1.000000 1.000000
vt 0.000000 0.000000
vt 1.000000 0.000000
vt 1.000000 0.000000
vt 0.000000 0.000000
vt 1.000000 1.000000
vt 0.000000 0.000000
vt 1.000000 0.000000
vt 1.000000 1.000000
vt 1.000000 0.000000
vt 0.000000 0.000000
vt 1.000000 0.000000
vt 0.000000 0.000000
vt 0.000000 0.000000
vt 1.000000 1.000000
vt 1.000000 0.000000
vt 0.000000 0.000000
vt 1.000000 0.000000
vt 1.000000 1.000000
vt 1.000000 0.000000
vt 1.000000 0.000000
vt 1.000000 0.000000
vt 0.000000 0.000000
vt 0.000000 0.000000
vt 1.000000 0.000000
vt 0.000000 0.000000
vt 1.000000 1.000000
vt 1.000000 0.000000
vt 1.000000 0.000000
vt 0.000000 0.000000
vt 0.000000 0.000000
vt 1.000000 0.000000
vt 1.000000 1.000000
vt 0.000000 0.000000
vt 0.000000 0.000000
vt 1.000000 0.000000
vt 1.000000 1.000000
vt 1.000000 0.000000
vt 0.000000 0.000000
vt 1.000000 1.000000
vt 1.000000 0.000000
vt 0.000000 0.000000
vt 0.000000 0.000000
vt 1.000000 0.000000
s 0
f 14/26/1 9/15/1 13/25/1
f 10/18/1 13/24/1 9/16/1
f 35/73/1 17/33/1 18/36/1
f 35/73/1 36/76/1 17/34/1
f 162/308/1 70/141/1 67/133/1
f 67/134/1 71/142/1 66/131/1
f 127/247/1 134/258/1 136/262/1
f 128/248/1 134/258/1 127/246/1
f 43/87/1 40/82/1 38/80/1
f 45/91/1 44/89/1 51/103/1
f 72/144/1 85/168/1 77/154/1
f 98/193/1 92/180/1 89/176/1
f 107/209/1 102/200/1 101/198/1
f 123/238/1 120/231/1 126/244/1
f 121/234/1 125/241/1 126/244/1
f 121/234/1 126/245/1 120/232/1
f 120/233/1 123/237/1 119/229/1
f 122/235/1 112/218/1 125/243/1
f 125/242/1 112/218/1 124/240/1
f 115/224/1 117/225/1 114/222/1
f 114/223/1 117/225/1 113/220/1
f 117/226/1 118/227/1 113/220/1
f 113/221/1 118/227/1 112/219/1
f 123/238/1 124/239/1 119/229/1
f 118/228/1 124/239/1 112/219/1
f 138/267/1 142/273/1 141/271/1
f 20/40/1 34/72/1 19/37/1
f 27/55/1 33/70/1 26/54/1
f 34/71/1 26/52/1 33/69/1
f 20/40/1 21/41/1 30/62/1
f 26/53/1 31/64/1 25/51/1
f 32/68/1 25/50/1 31/65/1
f 29/59/1 23/45/1 32/66/1
f 23/46/1 29/60/1 22/43/1
f 21/42/1 29/60/1 30/62/1
f 19/38/1 35/74/1 18/36/1
f 17/35/1 36/76/1 28/58/1
f 36/77/1 27/56/1 28/58/1
f 24/48/1 32/67/1 23/47/1
f 9/17/1 14/27/1 8/13/1
f 11/21/1 13/24/1 10/19/1
f 16/31/1 11/20/1 12/23/1
f 12/22/1 1/1/1 15/29/1
f 15/30/1 16/32/1 12/23/1
f 2/3/1 7/12/1 1/2/1
f 161/307/1 14/27/1 15/29/1
f 15/30/1 1/1/1 161/305/1
f 7/11/1 161/306/1 1/2/1
f 6/10/1 2/4/1 3/6/1
f 3/7/1 4/8/1 6/9/1
f 127/247/1 136/263/1 131/254/1
f 136/264/1 130/251/1 131/254/1
f 130/252/1 132/255/1 135/260/1
f 135/261/1 132/255/1 133/257/1
f 135/261/1 133/256/1 129/249/1
f 128/248/1 133/256/1 134/259/1
f 148/282/1 147/281/1 146/280/1
f 69/137/1 162/309/1 60/120/1
f 60/121/1 58/117/1 59/119/1
f 69/137/1 61/122/1 68/136/1
f 60/121/1 61/122/1 69/138/1
f 68/135/1 61/122/1 64/128/1
f 65/130/1 71/142/1 68/136/1
f 64/126/1 65/129/1 68/136/1
f 62/124/1 64/127/1 61/123/1
f 159/300/1 158/297/1 154/292/1
f 20/40/1 31/64/1 26/54/1
f 162/308/1 69/139/1 70/140/1
f 67/134/1 70/141/1 71/143/1
f 38/79/1 37/78/1 43/88/1
f 43/87/1 42/86/1 41/84/1
f 41/85/1 40/82/1 43/88/1
f 40/83/1 39/81/1 38/80/1
f 56/114/1 55/112/1 53/109/1
f 55/113/1 54/111/1 53/109/1
f 48/98/1 47/97/1 46/94/1
f 56/114/1 53/110/1 52/106/1
f 49/100/1 48/99/1 46/94/1
f 57/116/1 56/115/1 52/106/1
f 49/100/1 46/95/1 50/101/1
f 46/96/1 45/92/1 50/101/1
f 57/116/1 52/107/1 44/90/1
f 52/108/1 51/104/1 44/90/1
f 51/105/1 50/102/1 45/93/1
f 85/169/1 84/167/1 79/157/1
f 84/166/1 83/164/1 80/160/1
f 79/158/1 84/167/1 80/160/1
f 83/165/1 82/162/1 80/160/1
f 82/163/1 81/161/1 80/160/1
f 76/152/1 75/150/1 74/148/1
f 76/152/1 74/149/1 73/146/1
f 85/169/1 79/159/1 78/155/1
f 77/153/1 76/151/1 72/145/1
f 76/152/1 73/147/1 72/145/1
f 85/169/1 78/156/1 77/154/1
f 88/174/1 87/172/1 86/170/1
f 98/193/1 97/191/1 96/189/1
f 95/188/1 94/185/1 93/183/1
f 98/193/1 96/190/1 95/186/1
f 88/174/1 86/171/1 99/194/1
f 91/178/1 90/177/1 89/176/1
f 89/175/1 88/173/1 98/192/1
f 88/174/1 99/195/1 98/192/1
f 98/193/1 95/187/1 92/181/1
f 95/188/1 93/184/1 92/181/1
f 92/182/1 91/179/1 89/176/1
f 100/196/1 111/217/1 110/215/1
f 106/207/1 105/206/1 104/204/1
f 100/196/1 110/216/1 109/213/1
f 106/207/1 104/205/1 103/202/1
f 101/199/1 100/197/1 109/213/1
f 107/209/1 106/208/1 103/202/1
f 101/199/1 109/214/1 108/211/1
f 107/209/1 103/203/1 102/201/1
f 101/199/1 108/212/1 107/210/1
f 121/234/1 122/236/1 125/243/1
f 118/228/1 119/230/1 124/240/1
f 141/272/1 140/269/1 138/266/1
f 140/270/1 139/268/1 138/266/1
f 138/267/1 137/265/1 142/274/1
f 34/71/1 20/39/1 26/54/1
f 32/68/1 24/49/1 25/51/1
f 21/42/1 22/44/1 29/61/1
f 19/38/1 34/72/1 35/75/1
f 36/77/1 33/70/1 27/57/1
f 11/21/1 16/32/1 13/25/1
f 161/307/1 8/14/1 14/28/1
f 6/10/1 7/12/1 2/5/1
f 136/264/1 132/255/1 130/253/1
f 128/248/1 129/250/1 133/257/1
f 145/279/1 144/277/1 146/280/1
f 144/278/1 143/275/1 146/280/1
f 143/276/1 148/283/1 146/280/1
f 60/121/1 162/309/1 58/118/1
f 65/130/1 66/132/1 71/143/1
f 62/124/1 63/125/1 64/128/1
f 152/289/1 151/287/1 149/284/1
f 151/288/1 150/286/1 149/284/1
f 157/296/1 156/294/1 158/298/1
f 156/295/1 155/293/1 158/298/1
f 153/291/1 152/290/1 149/284/1
f 153/291/1 149/285/1 160/302/1
f 158/299/1 155/293/1 154/292/1
f 153/291/1 160/303/1 154/292/1
f 160/304/1 159/301/1 154/292/1
f 20/40/1 30/63/1 31/65/1
l 5 6
l 115 116
l 4 5
l 116 117
