# Blender v3.4.1 OBJ File: 'sliced.blend'
# www.blender.org
mtllib sliced.mtl
o sliced_Cube
v 0.000000 0.000000 0.000000
v 0.000000 -1.000000 0.000000
v 0.000000 0.000000 -1.000000
v 1.000000 0.000000 0.000000
vt 0.000000 0.500000
vt 0.500000 0.000000
vt 0.500000 0.500000
vt 1.000000 0.500000
vt 0.500000 1.000000
vt 0.500000 0.500000
vt 0.500000 0.000000
vt 1.000000 0.500000
vt 0.500000 0.500000
vt 0.000000 0.500000
vn -1.0000 0.0000 0.0000
vn 0.0000 1.0000 0.0000
vn 0.0000 0.0000 1.0000
vn 0.5774 -0.5774 -0.5774
usemtl Material
s off
f 1/1/1 3/2/1 2/3/1
f 1/4/2 4/5/2 3/6/2
f 2/7/3 4/8/3 1/9/3
f 4/5/4 2/10/4 3/6/4
