# Blender 4.0.2
# www.blender.org
mtllib LaraCroft.mtl
o Combined_Mesh
v -0.196933 2.630000 0.578534
v 0.113067 2.490000 0.678534
v -0.196933 3.140000 0.448534
v -0.136934 2.640000 -0.431466
v -0.266933 2.450000 0.058534
v -0.116933 2.350000 -0.351466
v -0.006934 2.330000 -0.421466
v -0.006933 2.340000 0.108534
v 0.093067 2.350000 -0.351466
v -0.096933 1.930000 0.648534
v -0.126933 2.490000 0.678534
v 0.073067 1.930000 0.648534
v 0.173067 2.630000 0.578534
v -0.016933 2.100000 0.378534
v -0.146933 2.280000 0.458534
v -0.296933 2.170000 0.288534
v -0.526933 2.410000 0.138534
v 0.243067 2.450000 0.058534
v 0.513067 2.410000 0.138534
v 0.273067 2.170000 0.288534
v 0.123067 2.280000 0.458534
v -0.466933 2.830000 0.098534
v -0.166934 3.360000 -0.301465
v 0.323067 3.230000 0.158535
v 0.323067 3.190000 -0.211465
v 0.243067 3.220000 -0.181465
v 0.153066 3.350000 -0.351465
v 0.293066 2.980000 -0.331466
v 0.303067 2.850000 0.048534
v -0.336933 3.230000 0.158535
v -0.326934 2.800000 -0.311466
v -0.006933 3.350000 0.058535
v 0.173067 3.150000 0.448534
v -0.006933 3.230000 -0.331465
v -0.006934 2.970000 -0.461466
v 0.463067 2.820000 0.008534
v -0.006934 2.670000 -0.551466
v -0.306933 2.980000 -0.321466
v -0.006934 2.810000 -0.451466
v -0.316933 2.850000 0.048534
v -0.326933 3.210000 -0.131465
v -0.236933 3.220000 -0.181465
v 0.313067 2.800000 -0.311466
v 0.113066 2.650000 -0.431466
v -0.006934 2.640000 -0.491466
v -0.006933 1.950000 0.468534
v 0.113067 -0.480000 -0.101466
v -0.086933 -0.480000 -0.111466
v -0.276934 0.210000 -0.371466
v -0.656933 0.210000 -0.091466
v -0.346933 0.550000 -0.291466
v -0.346933 0.580000 0.098534
v -0.516933 0.240000 0.408534
v 0.293066 0.210000 -0.361466
v 0.363067 0.550000 -0.281466
v 0.543067 0.240000 0.418533
v 0.643067 -0.280000 0.488533
v -0.636933 -0.280000 0.478534
v -0.466933 -0.530000 0.318534
v -0.786933 -0.250000 -0.041466
v 0.473067 -0.530000 0.328533
v 0.363067 -0.250000 -0.331467
v 0.793067 -0.250000 -0.041467
v -0.326934 -0.250000 -0.341466
v 0.663067 0.210000 -0.091467
v 0.373067 0.580000 0.108534
v -0.666933 -0.920000 0.188534
v -0.966933 -0.950000 -0.121466
v -0.706933 -0.930000 -0.141466
v -1.046933 -0.040000 -0.091466
v -0.786933 -0.020000 -0.111466
v -0.736933 -0.010000 0.318534
v -0.996933 -0.030000 0.338534
v -0.926933 -0.940000 0.218534
v -0.706933 -1.160000 -0.081466
v -0.136933 -2.060000 -0.021466
v -0.426933 -2.180000 -0.101466
v -0.436933 -2.060000 0.148534
v -0.506933 -2.060000 -0.021466
v -0.226933 -2.180000 -0.101466
v -0.206933 -2.060000 0.148534
v -0.326933 -2.180000 0.098534
v -0.356933 -1.160000 -0.351466
v -0.386933 -0.180000 -0.331466
v -0.796933 -0.180000 -0.081466
v -0.576933 -1.160000 0.318534
v -0.146933 -1.160000 0.318534
v -0.646933 -0.190000 0.338534
v 0.013067 -0.180000 -0.071466
v -0.006933 -1.160000 -0.081466
v -0.146933 -0.190000 0.338534
v -0.326933 -2.060000 -0.191466
v -0.346933 -3.150000 -0.141467
v -0.336933 -2.810000 -0.161466
v -0.656933 -2.810000 0.088534
v -0.486933 -3.140000 0.318533
v -0.536933 -2.690000 0.418534
v -0.026933 -2.810000 0.088534
v -0.206933 -3.140000 0.318533
v -0.216933 -2.050000 0.148534
v -0.156933 -2.050000 -0.021466
v -0.316933 -2.050000 -0.191466
v -0.406933 -2.050000 0.148534
v -0.146933 -2.690000 0.418534
v -0.316933 -3.940000 -0.161467
v -0.116933 -3.150000 0.078533
v -0.576933 -3.150000 0.068533
v -0.476933 -3.940000 -0.021467
v -0.416933 -3.940000 0.198533
v -0.216933 -3.940000 0.198533
v -0.336933 -4.050000 0.138533
v -0.226933 -4.050000 -0.051467
v -0.466933 -2.050000 -0.021466
v -0.436933 -4.050000 -0.051467
v -0.166933 -3.940000 -0.021467
v -0.186934 -4.510000 -0.881467
v -0.206934 -4.310000 -0.871467
v -0.566933 -4.520000 -0.441467
v -0.466934 -4.510000 -0.881467
v -0.076933 -4.520000 -0.351468
v -0.186933 -3.950000 0.198533
v -0.466933 -3.970000 -0.151467
v -0.466933 -3.950000 0.198533
v -0.446934 -4.310000 -0.871467
v -0.116934 -4.150000 -0.361467
v -0.186933 -3.970000 -0.151467
v -0.146933 -4.170000 0.268533
v -0.506933 -4.170000 0.268533
v -0.176933 -4.520000 0.318533
v -0.476933 -4.520000 0.318533
v -0.536933 -4.150000 -0.361467
v 0.803067 -0.010000 -0.111467
v 1.063066 -0.030000 -0.091467
v 0.723067 -0.920000 -0.131467
v 0.943067 -0.940000 0.218533
v 0.753067 -0.000000 0.328533
v 0.683067 -0.910000 0.198533
v 0.983067 -0.940000 -0.111467
v 1.013067 -0.030000 0.348533
v 0.373067 -1.150000 -0.341466
v 0.153067 -2.060000 -0.011466
v 0.723067 -1.150000 -0.081467
v 0.593067 -1.150000 0.318533
v 0.223067 -2.060000 0.158534
v 0.023067 -1.150000 -0.081466
v 0.343067 -2.170000 0.098533
v 0.443067 -2.170000 -0.091467
v 0.523067 -2.060000 -0.021467
v -0.006933 -0.170000 -0.071466
v 0.403066 -0.170000 -0.331467
v 0.653067 -0.180000 0.338533
v 0.153067 -0.180000 0.338534
v 0.153067 -1.150000 0.318534
v 0.813067 -0.170000 -0.071467
v 0.233067 -2.170000 -0.091466
v 0.343067 -2.060000 -0.191467
v 0.453067 -2.060000 0.158533
v 0.363067 -2.810000 -0.171467
v 0.593067 -3.150000 0.068532
v 0.673067 -2.810000 0.078533
v 0.043067 -2.810000 0.088534
v 0.223067 -3.140000 0.308532
v 0.163067 -2.690000 0.408534
v 0.493067 -2.050000 -0.031467
v 0.433067 -2.050000 0.138533
v 0.553067 -2.690000 0.408533
v 0.233067 -2.050000 0.148534
v 0.183067 -3.940000 -0.031468
v 0.363067 -3.150000 -0.151468
v 0.493067 -3.940000 -0.031468
v 0.513067 -3.140000 0.308532
v 0.433067 -3.940000 0.188532
v 0.233067 -3.940000 0.188532
v 0.453067 -4.050000 -0.061468
v 0.173067 -2.050000 -0.031466
v 0.333067 -2.050000 -0.201467
v 0.333067 -3.940000 -0.161468
v 0.353067 -4.050000 0.128532
v 0.243067 -4.050000 -0.051468
v 0.133067 -3.150000 0.068533
v 0.563067 -4.530000 -0.441468
v 0.463067 -3.960000 0.208532
v 0.493067 -4.180000 0.278532
v 0.463067 -3.980000 -0.141468
v 0.173067 -3.960000 0.208532
v 0.073067 -4.530000 -0.341468
v 0.473067 -4.530000 0.318532
v 0.173066 -4.520000 -0.881468
v 0.463066 -4.520000 -0.881468
v 0.193066 -4.320000 -0.861468
v 0.443066 -4.320000 -0.861468
v 0.173067 -3.980000 -0.141468
v 0.113067 -4.160000 -0.351468
v 0.143067 -4.180000 0.278532
v 0.163067 -4.530000 0.318532
v 0.523066 -4.160000 -0.351468
v 0.413067 1.350000 0.638534
v -0.426933 1.350000 0.638534
v 0.483067 1.270000 0.298534
v 0.353067 0.540000 0.138534
v 0.353067 0.540000 -0.271466
v 0.133067 2.030000 0.258534
v -0.126933 2.430000 0.238534
v 0.133067 2.030000 -0.081466
v 0.103067 2.430000 -0.031466
v 0.103067 2.430000 0.238534
v -0.126933 2.430000 -0.031466
v -0.156933 2.030000 0.258534
v -0.156933 2.030000 -0.081466
v -0.296933 0.910000 0.168534
v -0.366933 0.540000 0.138534
v -0.366933 0.540000 -0.271466
v -0.296933 0.890000 -0.291466
v 0.463066 1.490000 -0.691466
v 0.543067 2.030000 -0.131466
v -0.406933 2.000000 0.568534
v 0.463067 1.200000 -0.311466
v 0.313067 0.890000 -0.291466
v 0.313067 0.910000 0.168534
v -0.476933 1.200000 -0.311466
v 0.393067 2.000000 0.568534
v -0.486933 1.270000 0.298534
v -0.556933 2.030000 0.268534
v -0.476934 1.490000 -0.691466
v 0.543067 2.030000 0.268533
v -0.556933 2.030000 -0.131466
v 0.683067 1.880000 0.198533
v 0.713067 0.940000 0.188533
v 0.483067 1.940000 0.138534
v 0.483067 1.940000 -0.061466
v 0.673067 1.880000 -0.121466
v 0.703067 0.940000 -0.111467
v 0.693067 0.850000 -0.041467
v 0.693067 0.850000 0.118533
v 0.603067 0.850000 0.038533
v 0.653067 2.020000 0.118534
v 0.803067 1.830000 0.038533
v 0.553067 2.020000 0.038534
v 0.653067 2.020000 -0.041466
v 0.823067 0.930000 0.038533
v 0.533067 0.940000 0.138534
v 0.533067 0.940000 -0.051466
v 0.533067 0.940000 -0.031466
v 0.533067 0.940000 0.148534
v 0.713067 0.940000 -0.091467
v 0.813067 0.930000 0.058533
v 0.713067 0.940000 0.208533
v 0.583067 -0.070000 0.118533
v 0.713067 -0.070000 0.158533
v 0.693067 -0.160000 0.108533
v 0.783067 -0.070000 0.058533
v 0.633067 -0.160000 0.058533
v 0.583067 -0.070000 -0.001467
v 0.703067 -0.070000 -0.041467
v 0.693067 -0.160000 0.008533
v 0.783067 -0.090000 0.178533
v 0.583067 -0.060000 0.178533
v 0.783067 -0.090000 -0.051467
v 0.583067 -0.060000 -0.051467
v 0.473067 -0.540000 0.208533
v 0.753067 -0.560000 -0.141467
v 0.763067 -0.530000 0.208533
v 0.463067 -0.570000 -0.141467
v -0.666933 1.880000 -0.121466
v -0.716933 0.940000 0.188534
v -0.666933 1.880000 0.198534
v -0.536933 0.940000 0.138534
v -0.706933 0.940000 -0.111466
v -0.526933 0.940000 -0.051466
v -0.636933 2.020000 -0.041466
v -0.786933 1.830000 0.038534
v -0.546933 2.020000 0.038534
v -0.476933 1.940000 0.138534
v -0.636933 2.020000 0.118534
v -0.466933 1.940000 -0.061466
v -0.826933 0.940000 0.038534
v -0.696933 0.850000 0.118534
v -0.606933 0.850000 0.038534
v -0.696933 0.850000 -0.041466
v -0.536933 0.940000 0.148534
v -0.706933 0.930000 -0.091466
v -0.776933 -0.080000 0.058534
v -0.706933 -0.070000 0.158534
v -0.586933 -0.070000 0.118534
v -0.536933 0.940000 -0.031466
v -0.686933 -0.160000 0.108534
v -0.706933 0.930000 0.208534
v -0.816933 0.920000 0.058534
v -0.706933 -0.070000 -0.041466
v -0.586933 -0.070000 -0.001466
v -0.686933 -0.160000 0.008534
v -0.626933 -0.160000 0.058534
v -0.766933 -0.090000 -0.061466
v -0.576933 -0.060000 -0.061466
v -0.766933 -0.090000 0.168534
v -0.576933 -0.060000 0.168534
v -0.746933 -0.530000 0.198534
v -0.456933 -0.540000 0.198534
v -0.456933 -0.570000 -0.151466
v -0.746933 -0.560000 -0.151466
vn -0.5772 0.6545 0.4884
vn -0.3039 -0.5275 0.7933
vn 0.2819 0.7742 0.5666
vn 0.6886 -0.3811 0.6170
vn -0.8598 -0.3327 -0.3874
vn 0.9959 0.0265 -0.0864
vn -0.0073 0.8814 0.4722
vn 0.1473 0.6033 0.7838
vn -0.6302 -0.2184 -0.7451
vn -0.5042 -0.2987 -0.8103
vn -0.4353 -0.5937 -0.6768
vn -0.8934 -0.4415 -0.0826
vn 0.0039 -0.9998 0.0214
vn 0.0159 -0.9992 0.0372
vn 0.6399 -0.2256 -0.7346
vn 0.4890 -0.2432 -0.8377
vn 0.8921 -0.4435 -0.0861
vn 0.5216 -0.5642 -0.6400
vn -0.8358 -0.5456 -0.0615
vn 0.9377 -0.3235 -0.1270
vn 0.3007 -0.8414 0.4490
vn -0.0901 -0.9848 0.1488
vn -0.0123 -0.7336 -0.6795
vn -0.8166 0.1595 0.5548
vn 0.0115 -0.7325 -0.6806
vn 0.7375 -0.0031 0.6754
vn -0.2074 -0.1865 -0.9603
vn 0.9557 0.1945 0.2210
vn 0.3043 0.4924 -0.8155
vn -0.2834 -0.7231 -0.6299
vn -0.8216 0.4133 -0.3926
vn -0.4173 -0.1028 -0.9029
vn -0.8799 0.1662 0.4452
vn -0.4270 -0.4434 -0.7881
vn -0.9548 0.0319 -0.2956
vn -0.9670 0.1837 -0.1768
vn 0.8968 -0.1265 -0.4241
vn -0.0895 0.9775 0.1911
vn -0.1442 0.9548 -0.2601
vn 0.0751 -0.2413 -0.9675
vn 0.3206 0.2116 -0.9233
vn -0.3553 0.2143 -0.9098
vn -0.0321 0.6102 -0.7916
vn 0.0194 -0.3846 -0.9229
vn 0.0117 -0.1368 -0.9905
vn 0.0943 -0.9024 -0.4206
vn 0.3765 -0.7705 -0.5144
vn -0.2112 -0.7313 0.6485
vn -0.1262 -0.9539 -0.2723
vn -0.3797 -0.8196 -0.4291
vn 0.2012 -0.4305 -0.8799
vn -0.1588 -0.5937 -0.7889
vn -0.8573 0.4465 0.2561
vn -0.0995 0.9941 -0.0443
vn -0.5207 0.2314 -0.8218
vn -0.3486 -0.6244 -0.6990
vn 0.0309 -0.5251 0.8505
vn 0.0363 0.2738 0.9611
vn 0.3375 0.9011 -0.2722
vn 0.3815 0.0779 -0.9211
vn -0.4012 0.5291 0.7477
vn 0.0955 -0.1775 -0.9795
vn 0.5978 0.7815 0.1784
vn 0.4926 -0.0404 -0.8693
vn 0.8156 0.5595 0.1471
vn -0.0502 -0.0225 0.9985
vn 0.8094 -0.3290 0.4865
vn 0.0314 -0.9967 0.0750
vn 0.5813 0.3861 -0.7163
vn -0.0874 0.9959 -0.0243
vn -0.5721 -0.7137 0.4042
vn -0.0536 0.0550 -0.9970
vn -0.7966 0.5523 -0.2457
vn 0.1491 -0.1514 0.9772
vn -0.2265 0.8984 0.3764
vn 0.8562 0.5102 -0.0812
vn 0.1111 0.5863 -0.8024
vn -0.4780 -0.0919 -0.8735
vn 0.6058 -0.0181 -0.7954
vn -0.6233 -0.0796 -0.7779
vn 0.9153 -0.2811 0.2885
vn 0.9673 0.2535 -0.0061
vn -0.6969 -0.1256 -0.7061
vn -0.8789 -0.3872 0.2785
vn -0.8242 -0.5089 0.2484
vn -0.6808 -0.6039 0.4145
vn -0.0177 -0.5842 0.8114
vn 0.1021 0.2481 0.9633
vn -0.4143 -0.8627 0.2901
vn 0.0387 -0.9960 -0.0809
vn 0.3855 -0.8825 0.2693
vn -0.0659 -0.1094 0.9918
vn 0.6752 -0.0201 -0.7373
vn -0.6799 -0.0030 -0.7333
vn -0.2570 -0.6519 -0.7135
vn 0.8955 -0.2350 0.3781
vn -0.6870 0.0745 -0.7228
vn -0.9043 -0.2176 0.3674
vn -0.0024 -0.1985 0.9801
vn -0.9288 0.2308 0.2899
vn 0.9281 -0.1406 0.3447
vn -0.0513 0.2582 0.9647
vn -0.0920 0.9870 0.1317
vn -0.0473 0.9971 0.0595
vn 0.9959 -0.0848 -0.0305
vn -0.3730 0.9271 -0.0362
vn 0.0013 0.3719 0.9283
vn 0.6691 0.0013 -0.7432
vn 0.9578 -0.0580 0.2815
vn -0.6820 -0.0010 -0.7314
vn -0.8941 -0.3799 0.2370
vn -0.0079 -0.5850 0.8110
vn 0.3237 -0.9449 0.0482
vn -0.4461 -0.8208 0.3568
vn 0.3884 -0.8686 0.3078
vn 0.1327 -0.8681 -0.4783
vn -0.3602 -0.5364 -0.7633
vn 0.9672 0.0970 -0.2350
vn 0.9160 0.2573 0.3079
vn -0.9321 -0.0980 -0.3486
vn 0.2640 0.5819 -0.7692
vn -0.9325 0.1946 -0.3042
vn -0.0328 -0.9994 0.0137
vn 0.0127 0.3384 0.9409
vn 0.4749 0.8246 -0.3075
vn 0.0580 0.3699 0.9272
vn -0.1979 0.7355 0.6479
vn -0.7589 -0.5988 -0.2559
vn 0.6843 0.3646 0.6315
vn -0.0673 0.8248 -0.5613
vn -0.2538 0.8968 0.3623
vn -0.6288 0.7313 0.2643
vn 0.0529 0.0448 -0.9976
vn -0.6194 -0.6670 -0.4141
vn -0.1430 -0.1602 0.9767
vn 0.0641 0.0321 -0.9974
vn 0.5484 -0.7344 0.3999
vn 0.7916 0.5642 -0.2346
vn -0.1271 -0.1462 0.9811
vn 0.8828 0.4600 -0.0952
vn 0.1149 0.5482 -0.8284
vn -0.2134 0.9051 0.3678
vn -0.0885 -0.1049 0.9905
vn -0.5909 -0.0757 -0.8032
vn 0.6036 -0.0885 -0.7924
vn -0.6017 0.0108 -0.7986
vn -0.9649 0.2545 -0.0650
vn 0.9347 -0.1406 0.3265
vn 0.6875 -0.1439 -0.7118
vn -0.0066 -0.1046 0.9945
vn 0.8030 -0.5503 0.2286
vn -0.9399 -0.0762 0.3327
vn 0.0268 -0.6220 0.7825
vn -0.0855 -0.9946 -0.0588
vn 0.3517 -0.8982 0.2638
vn -0.3038 -0.9221 0.2398
vn -0.4949 -0.0687 -0.8662
vn -0.4299 -0.5506 -0.7156
vn -0.6768 0.0385 -0.7352
vn -0.6657 -0.0676 -0.7432
vn -0.8878 -0.2540 0.3838
vn 0.6683 -0.0353 -0.7431
vn 0.9107 -0.2037 0.3592
vn 0.9307 -0.1836 0.3163
vn 0.9299 0.2199 0.2948
vn 0.0684 0.2151 0.9742
vn -0.9268 -0.0923 0.3640
vn -0.2758 0.7665 0.5800
vn 0.9997 -0.0195 -0.0155
vn -0.1354 0.9699 0.2026
vn 0.1890 0.4815 0.8558
vn -0.8883 0.3600 -0.2851
vn 0.6224 -0.0933 -0.7771
vn 0.9471 -0.1078 0.3024
vn -0.0098 -0.5678 0.8231
vn -0.4445 -0.8446 0.2983
vn -0.3698 -0.8745 0.3137
vn 0.4335 -0.8311 0.3484
vn -0.3489 -0.9338 0.0787
vn 0.6736 0.7111 -0.2014
vn -0.5816 0.8122 0.0459
vn 0.3709 -0.5071 -0.7780
vn -0.1344 -0.8643 -0.4847
vn -0.9994 -0.0174 -0.0305
vn 0.9309 0.2189 -0.2923
vn -0.0613 0.1417 -0.9880
vn 0.9977 0.0321 0.0602
vn 0.0334 -0.9993 0.0182
vn -0.0603 0.3685 0.9277
vn -0.4836 0.8141 -0.3215
vn -0.0035 0.3356 0.9420
vn 0.2989 0.7894 0.5361
vn -0.6721 0.3626 0.6456
vn 0.7645 -0.5868 -0.2668
vn -0.1319 0.9113 -0.3900
vn 0.1209 0.9366 -0.3288
vn -0.0162 0.9914 0.1299
vn -0.5905 -0.2028 0.7811
vn -0.0240 0.9870 0.1592
vn 0.9941 -0.0876 0.0638
vn 0.1724 -0.9138 0.3678
vn 0.4842 0.3186 0.8149
vn 0.0372 -0.9581 0.2839
vn -0.7489 0.1349 0.6488
vn -0.9859 -0.1550 -0.0626
vn 0.0394 -0.0569 -0.9976
vn -0.6677 -0.6222 -0.4088
vn -0.0200 0.1108 0.9936
vn -0.0369 -0.0945 0.9948
vn 0.9847 -0.1704 0.0355
vn 0.6690 -0.6409 0.3765
vn -0.0952 -0.0262 -0.9951
vn -0.6878 -0.2681 0.6746
vn -0.0082 0.0506 0.9987
vn 0.0082 0.0506 0.9987
vn 0.0019 0.9999 -0.0131
vn -0.0113 0.1232 -0.9923
vn 0.9944 0.1044 0.0159
vn 0.3061 0.7265 -0.6153
vn -0.9970 0.0761 -0.0110
vn -0.1168 -0.6257 -0.7713
vn -0.0723 0.7378 -0.6711
vn 0.0909 -0.8299 -0.5505
vn 0.8432 0.2846 -0.4560
vn -0.9297 0.1825 0.3200
vn 0.1236 0.4636 -0.8774
vn 0.8015 0.1406 -0.5812
vn 0.7384 0.4918 0.4614
vn 0.6313 -0.4654 -0.6204
vn -0.3601 -0.1659 -0.9180
vn -0.2635 0.0859 0.9608
vn 0.8173 -0.1436 0.5580
vn -0.8135 0.5737 -0.0955
vn -0.1668 -0.5391 0.8256
vn -0.1456 0.4201 -0.8957
vn -0.7674 -0.6408 0.0225
vn -0.0964 0.9952 -0.0142
vn -0.2170 0.9691 -0.1178
vn 0.0155 0.9999 -0.0000
vn -0.2506 -0.9640 -0.0887
vn -0.1742 -0.9843 0.0279
vn -0.7204 -0.6447 0.2556
vn 0.1226 0.4895 -0.8633
vn -0.9865 -0.1363 0.0907
vn -0.3326 0.9187 0.2128
vn 0.8704 0.4681 -0.1528
vn 0.8610 -0.1027 0.4981
vn 0.7029 -0.4367 -0.5614
vn -0.3262 -0.1205 -0.9376
vn 0.8251 -0.1192 0.5523
vn -0.2580 -0.4034 0.8779
vn -0.8344 -0.5512 -0.0081
vn -0.4511 -0.8104 -0.3738
vn -0.3777 -0.9086 0.1782
vn -0.9053 -0.4248 -0.0000
vn 0.7277 0.6070 -0.3193
vn -0.0306 0.2462 -0.9687
vn -0.4822 0.8083 0.3378
vn 0.0216 0.0828 0.9963
vn -0.7100 -0.6070 -0.3570
vn -0.0034 0.0451 0.9990
vn 0.7278 -0.6109 0.3117
vn -0.0582 0.2573 -0.9646
vn -0.6470 -0.4813 -0.5914
vn -0.7367 0.4971 0.4585
vn -0.8218 0.1428 -0.5516
vn 0.3406 -0.1455 -0.9289
vn -0.8228 -0.1033 0.5589
vn 0.2743 0.0825 0.9581
vn 0.1648 -0.5400 0.8254
vn 0.8282 0.5565 -0.0668
vn 0.7330 -0.6780 0.0553
vn 0.1362 0.4461 -0.8846
vn 0.2056 0.9050 0.3724
vn 0.0334 0.9972 0.0664
vn 0.0580 0.9968 -0.0559
vn 0.6261 -0.6990 0.3456
vn 0.1713 -0.9850 0.0197
vn 0.2329 -0.9693 -0.0790
vn 0.2806 0.9414 0.1869
vn 0.9832 -0.1425 0.1139
vn -0.1312 0.4478 -0.8844
vn -0.8582 0.4901 -0.1528
vn -0.7076 -0.4217 -0.5670
vn -0.8444 -0.1088 0.5245
vn 0.3296 -0.1697 -0.9287
vn -0.8125 -0.1391 0.5662
vn 0.2837 -0.3778 0.8813
vn 0.8721 -0.4891 -0.0112
vn 0.9349 -0.3548 -0.0001
vn 0.4139 -0.8863 0.2076
vn 0.4139 -0.8863 -0.2075
vn -0.3955 0.6932 -0.6026
vn -0.9997 -0.0001 0.0258
vn 0.2181 0.7556 0.6176
vn 0.9631 0.2669 -0.0347
vn -0.6641 -0.7037 -0.2523
vn -0.0416 0.0806 0.9959
vn -0.1481 0.2542 -0.9557
vn 0.8111 -0.4128 0.4144
vt 0.839844 0.793478
vt 0.839844 0.994565
vt 0.726562 0.994565
vt 0.726562 0.793478
vt 0.996094 0.135870
vt 0.996094 0.250000
vt 0.945312 0.250000
vt 0.945312 0.135870
vt 0.968750 0.760870
vt 0.992188 0.777174
vt 0.003906 0.119565
vt 0.054688 0.005435
vt 0.054688 0.119565
vt 0.933594 0.250000
vt 0.882812 0.135870
vt 0.933594 0.135870
vt 0.820312 0.135870
vt 0.871094 0.250000
vt 0.820312 0.250000
vt 0.128906 0.119565
vt 0.179688 0.005435
vt 0.128906 0.005435
vt 0.179688 0.119565
vt 0.242188 0.005435
vt 0.191406 0.119565
vt 0.191406 0.005435
vt 0.242188 0.119565
vt 0.492188 0.423913
vt 0.410156 0.266304
vt 0.492188 0.266304
vt 0.589844 0.423913
vt 0.507812 0.266304
vt 0.507812 0.423913
vt 0.410156 0.423913
vt 0.902344 0.119565
vt 0.851562 0.048913
vt 0.902344 0.048913
vt 0.285156 0.646739
vt 0.492188 0.483696
vt 0.492188 0.646739
vt 0.285156 0.483696
vt 0.003906 0.663043
vt 0.148438 0.994565
vt 0.003906 0.994565
vt 0.148438 0.423913
vt 0.003906 0.266304
vt 0.148438 0.266304
vt 0.160156 0.266304
vt 0.304688 0.423913
vt 0.160156 0.423913
vt 0.839844 0.646739
vt 0.695312 0.483696
vt 0.695312 0.646739
vt 0.148438 0.663043
vt 0.851562 0.119565
vt 0.945312 0.777174
vt 0.242188 0.663043
vt 0.242188 0.994565
vt 0.160156 0.994565
vt 0.160156 0.663043
vt 0.746094 0.135870
vt 0.746094 0.250000
vt 0.664062 0.250000
vt 0.664062 0.135870
vt 0.933594 0.750000
vt 0.933594 0.777174
vt 0.882812 0.777174
vt 0.882812 0.750000
vt 0.695312 0.048913
vt 0.695312 0.119565
vt 0.839844 0.119565
vt 0.839844 0.048913
vt 0.210938 0.135870
vt 0.210938 0.250000
vt 0.003906 0.250000
vt 0.003906 0.135870
vt 0.378906 0.135870
vt 0.378906 0.250000
vt 0.527344 0.250000
vt 0.527344 0.135870
vt 0.683594 0.483696
vt 0.683594 0.646739
vt 0.507812 0.646739
vt 0.507812 0.483696
vt 0.492188 0.048913
vt 0.492188 0.119565
vt 0.316406 0.119565
vt 0.316406 0.048913
vt 0.945312 0.760870
vt 0.539062 0.135870
vt 0.652344 0.250000
vt 0.539062 0.250000
vt 0.652344 0.135870
vt 0.914062 0.048913
vt 0.964844 0.119565
vt 0.964844 0.048913
vt 0.968750 0.777174
vt 0.621094 0.706522
vt 0.621094 0.994565
vt 0.601562 0.994565
vt 0.601562 0.706522
vt 0.527344 0.706522
vt 0.527344 0.994565
vt 0.472656 0.994565
vt 0.472656 0.706522
vt 0.589844 0.706522
vt 0.589844 0.994565
vt 0.539062 0.994565
vt 0.539062 0.706522
vt 0.003906 0.440217
vt 0.003906 0.646739
vt 0.054688 0.646739
vt 0.054688 0.440217
vt 0.996094 0.793478
vt 0.996094 0.994565
vt 0.945312 0.994565
vt 0.945312 0.793478
vt 0.957031 0.760870
vt 0.757812 0.135870
vt 0.757812 0.250000
vt 0.808594 0.250000
vt 0.808594 0.135870
vt 0.117188 0.005435
vt 0.117188 0.119565
vt 0.066406 0.119565
vt 0.066406 0.005435
vt 0.957031 0.777174
vt 0.980469 0.777174
vt 0.367188 0.135870
vt 0.367188 0.250000
vt 0.222656 0.250000
vt 0.222656 0.135870
vt 0.871094 0.750000
vt 0.871094 0.777174
vt 0.726562 0.777174
vt 0.726562 0.750000
vt 0.273438 0.483696
vt 0.273438 0.646739
vt 0.066406 0.646739
vt 0.066406 0.483696
vt 0.460938 0.706522
vt 0.460938 0.994565
vt 0.253906 0.994565
vt 0.253906 0.706522
vt 0.507812 0.048913
vt 0.507812 0.119565
vt 0.683594 0.119565
vt 0.683594 0.048913
vt 0.996094 0.483696
vt 0.996094 0.646739
vt 0.851562 0.646739
vt 0.851562 0.483696
vt 0.632812 0.750000
vt 0.714844 0.994565
vt 0.632812 0.994565
vt 0.714844 0.750000
vt 0.253906 0.119565
vt 0.304688 0.005435
vt 0.253906 0.005435
vt 0.851562 0.994565
vt 0.933594 0.793478
vt 0.933594 0.994565
vt 0.851562 0.793478
vt 0.398438 0.266304
vt 0.398438 0.423913
vt 0.316406 0.423913
vt 0.316406 0.266304
vt 0.882812 0.266304
vt 0.882812 0.423913
vt 0.964844 0.423913
vt 0.964844 0.266304
vt 0.871094 0.266304
vt 0.871094 0.423913
vt 0.789062 0.423913
vt 0.789062 0.266304
vt 0.777344 0.266304
vt 0.777344 0.423913
vt 0.695312 0.423913
vt 0.695312 0.266304
vt 0.683594 0.266304
vt 0.683594 0.423913
vt 0.601562 0.423913
vt 0.601562 0.266304
s 1
usemtl tile0
f 1/1/1 11/2/2 2/3/3
f 1/1/1 2/3/3 13/4/4
f 11/5/2 10/6/5 12/7/6
f 11/5/2 12/7/6 2/8/3
f 13/1/4 33/2/7 3/3/8
f 13/1/4 3/3/8 1/4/1
f 6/9/9 31/9/10 4/9/11
f 5/10/12 6/10/9 8/10/13
f 7/10/14 9/10/15 8/10/13
f 43/9/16 18/9/17 9/9/15
f 44/9/18 43/9/16 9/9/15
f 6/9/9 5/9/12 31/9/10
f 9/10/15 18/10/17 8/10/13
f 6/10/9 7/10/14 8/10/13
f 15/11/19 10/12/5 11/13/2
f 1/14/1 15/15/19 11/16/2
f 12/17/6 21/18/20 2/19/3
f 21/15/20 13/14/4 2/16/3
f 14/20/21 12/21/6 46/22/22
f 12/21/6 14/20/21 21/23/20
f 10/24/5 14/25/21 46/26/22
f 14/25/21 10/24/5 15/27/19
f 16/4/23 8/2/13 14/3/21
f 5/1/12 16/3/23 17/4/24
f 15/3/19 17/1/24 16/2/23
f 17/1/24 15/3/19 1/4/1
f 8/3/13 20/1/25 14/2/21
f 18/2/17 20/4/25 8/1/13
f 19/4/26 21/2/20 20/3/25
f 21/2/20 19/4/26 13/1/4
f 36/3/27 24/1/28 19/2/26
f 29/4/29 25/2/30 36/3/27
f 40/3/31 17/1/24 22/2/32
f 22/2/32 30/4/33 41/1/34
f 42/3/35 41/1/34 23/2/36
f 41/3/34 40/1/31 22/2/32
f 25/2/30 29/4/29 26/1/37
f 27/2/38 24/4/28 25/1/30
f 32/3/39 34/1/40 23/2/36
f 30/1/33 23/3/36 41/4/34
f 24/4/28 27/2/38 32/3/39
f 26/3/37 34/1/40 27/2/38
f 28/28/41 29/29/29 43/30/16
f 29/2/29 19/4/26 18/1/17
f 30/4/33 22/2/32 17/3/24
f 31/31/10 5/32/12 40/33/31
f 14/4/21 15/2/19 16/3/23
f 17/1/24 40/3/31 5/4/12
f 38/28/42 40/29/31 42/34/35
f 23/3/36 30/1/33 32/2/39
f 20/2/25 18/4/17 19/1/26
f 24/2/28 13/4/4 19/1/26
f 24/3/28 32/1/39 33/2/7
f 18/32/17 43/31/16 29/33/29
f 38/35/42 34/36/40 35/37/43
f 34/36/40 28/35/41 35/37/43
f 28/38/41 39/39/44 35/40/43
f 25/2/30 24/4/28 36/1/27
f 40/29/31 38/28/42 31/30/10
f 38/38/42 39/39/44 31/41/10
f 9/42/15 45/43/45 44/44/18
f 39/45/44 44/46/18 37/47/46
f 45/48/45 4/49/11 37/50/46
f 45/43/45 6/42/9 4/44/11
f 31/51/10 39/52/44 4/53/11
f 39/39/44 38/38/42 35/40/43
f 39/39/44 28/38/41 43/41/16
f 40/1/31 41/3/34 42/4/35
f 39/52/44 43/51/16 44/53/18
f 29/29/29 28/28/41 26/34/37
f 44/49/18 45/48/45 37/50/46
f 4/46/11 39/45/44 37/47/46
f 34/4/40 32/2/39 27/3/38
f 25/3/30 26/1/37 27/2/38
f 33/3/7 32/1/39 3/2/8
f 32/4/39 30/2/33 3/3/8
f 34/4/40 42/2/35 23/3/36
f 21/3/20 14/1/21 20/2/25
f 12/3/6 10/1/5 46/4/22
f 16/1/23 5/3/12 8/4/13
f 45/43/45 9/42/15 7/54/14
f 28/35/41 34/36/40 26/55/37
f 19/4/26 29/2/29 36/3/27
f 13/4/4 24/2/28 33/3/7
f 1/1/1 30/3/33 17/4/24
f 30/3/33 1/1/1 3/2/8
f 6/42/9 45/43/45 7/54/14
f 34/36/40 38/35/42 42/55/35
f 47/56/47 61/56/48 59/56/49
f 47/56/47 59/56/49 48/56/50
f 47/56/47 48/56/50 64/56/51
f 47/56/47 64/56/51 62/56/52
f 50/57/53 51/58/54 49/59/55
f 50/57/53 49/59/55 60/60/56
f 58/61/57 53/62/58 50/63/53
f 58/61/57 50/63/53 60/64/56
f 66/65/59 55/66/60 51/67/54
f 66/65/59 51/67/54 52/68/61
f 49/69/55 51/70/54 55/71/60
f 49/69/55 55/71/60 54/72/62
f 56/73/63 66/74/59 52/75/61
f 56/73/63 52/75/61 53/76/58
f 64/77/51 49/78/55 54/79/62
f 64/77/51 54/79/62 62/80/52
f 63/60/64 54/59/62 55/58/60
f 63/60/64 55/58/60 65/57/65
f 63/64/64 65/63/65 56/62/63
f 63/64/64 56/62/63 57/61/66
f 57/81/66 56/82/63 53/83/58
f 57/81/66 53/83/58 58/84/57
f 61/85/48 57/86/66 58/87/57
f 61/85/48 58/87/57 59/88/49
f 48/89/50 59/89/49 60/89/56
f 60/89/56 64/89/51 48/89/50
f 58/89/57 60/89/56 59/89/49
f 63/89/64 61/89/48 47/89/47
f 47/89/47 62/89/52 63/89/64
f 61/89/48 63/89/64 57/89/66
f 50/90/53 52/91/61 51/92/54
f 52/91/61 50/90/53 53/93/58
f 60/94/56 49/95/55 64/96/51
f 66/91/59 65/90/65 55/92/60
f 65/90/65 66/91/59 56/93/63
f 54/95/62 63/94/64 62/96/52
f 72/97/67 67/97/68 69/97/69
f 72/97/67 69/97/69 71/97/70
f 69/97/69 68/97/71 70/97/72
f 69/97/69 70/97/72 71/97/70
f 71/97/70 70/97/72 73/97/73
f 71/97/70 73/97/73 72/97/67
f 72/97/67 73/97/73 74/97/74
f 72/97/67 74/97/74 67/97/68
f 67/97/68 74/97/74 68/97/71
f 67/97/68 68/97/71 69/97/69
f 73/97/73 70/97/72 68/97/71
f 73/97/73 68/97/71 74/97/74
f 85/89/75 91/89/76 89/89/77
f 85/89/75 89/89/77 84/89/78
f 92/9/79 83/9/80 90/9/81
f 92/9/79 90/9/81 76/9/82
f 79/9/83 75/9/84 83/9/80
f 79/9/83 83/9/80 92/9/79
f 78/9/85 86/9/86 75/9/84
f 78/9/85 75/9/84 79/9/83
f 81/9/87 87/9/88 86/9/86
f 81/9/87 86/9/86 78/9/85
f 76/9/82 90/9/81 87/9/88
f 76/9/82 87/9/88 81/9/87
f 77/9/89 82/9/90 78/9/85
f 77/9/89 78/9/85 79/9/83
f 80/9/91 76/9/82 81/9/87
f 80/9/91 81/9/87 82/9/90
f 83/98/80 84/99/78 89/100/77
f 83/98/80 89/100/77 90/101/81
f 75/101/84 85/100/75 84/99/78
f 75/101/84 84/99/78 83/98/80
f 86/102/86 88/103/92 85/104/75
f 86/102/86 85/104/75 75/105/84
f 87/106/88 91/107/76 88/108/92
f 87/106/88 88/108/92 86/109/86
f 90/105/81 89/104/77 91/103/76
f 90/105/81 91/103/76 87/102/88
f 82/9/90 77/9/89 80/9/91
f 85/89/75 88/89/92 91/89/76
f 92/9/79 76/9/82 80/9/91
f 79/9/83 92/9/79 77/9/89
f 92/9/79 80/9/91 77/9/89
f 81/9/87 78/9/85 82/9/90
f 106/9/93 93/9/94 94/9/95
f 106/9/93 94/9/95 98/9/96
f 107/9/97 95/9/98 94/9/95
f 107/9/97 94/9/95 93/9/94
f 96/9/99 97/9/100 95/9/98
f 96/9/99 95/9/98 107/9/97
f 96/9/99 99/9/101 104/9/102
f 96/9/99 104/9/102 97/9/100
f 99/9/101 106/9/93 98/9/96
f 99/9/101 98/9/96 104/9/102
f 113/9/103 100/9/104 101/9/105
f 113/9/103 101/9/105 102/9/106
f 97/9/100 103/9/107 113/9/103
f 97/9/100 113/9/103 95/9/98
f 104/9/102 100/9/104 103/9/107
f 104/9/102 103/9/107 97/9/100
f 101/9/105 100/9/104 104/9/102
f 101/9/105 104/9/102 98/9/96
f 105/110/108 93/111/94 106/112/93
f 105/110/108 106/112/93 115/113/109
f 108/113/110 107/112/97 93/111/94
f 108/113/110 93/111/94 105/110/108
f 109/114/111 96/115/99 107/116/97
f 109/114/111 107/116/97 108/117/110
f 110/114/112 99/115/101 96/116/99
f 110/114/112 96/116/99 109/117/111
f 111/118/113 114/118/114 112/118/115
f 113/9/103 103/9/107 100/9/104
f 102/9/106 101/9/105 94/9/95
f 101/9/105 98/9/96 94/9/95
f 113/9/103 102/9/106 94/9/95
f 94/9/95 95/9/98 113/9/103
f 105/118/108 115/118/109 112/118/115
f 108/118/110 105/118/108 114/118/114
f 105/118/108 112/118/115 114/118/114
f 114/118/114 111/118/113 109/118/111
f 109/118/111 108/118/110 114/118/114
f 110/118/112 109/118/111 111/118/113
f 115/118/109 110/118/112 112/118/115
f 110/118/112 111/118/113 112/118/115
f 99/116/101 115/114/109 106/115/93
f 115/114/109 99/116/101 110/117/112
f 120/118/116 116/118/117 117/118/118
f 120/118/116 117/118/118 125/118/119
f 131/118/120 124/118/121 119/118/122
f 131/118/120 119/118/122 118/118/123
f 118/97/123 119/97/122 116/97/117
f 118/97/123 116/97/117 120/97/116
f 127/118/124 121/118/125 123/118/126
f 127/118/124 123/118/126 128/118/127
f 128/118/127 130/118/128 129/118/129
f 128/118/127 129/118/129 127/118/124
f 121/118/125 126/118/130 122/118/131
f 121/118/125 122/118/131 123/118/126
f 130/97/128 118/97/123 120/97/116
f 130/97/128 120/97/116 129/97/129
f 124/118/121 117/118/118 116/118/117
f 124/118/121 116/118/117 119/118/122
f 124/119/121 131/120/120 125/121/119
f 124/119/121 125/121/119 117/122/118
f 126/123/130 125/124/119 131/125/120
f 126/123/130 131/125/120 122/126/131
f 125/118/119 126/118/130 121/118/125
f 121/118/125 127/118/124 125/118/119
f 128/118/127 123/118/126 122/118/131
f 122/118/131 131/118/120 128/118/127
f 125/118/119 129/118/129 120/118/116
f 125/118/119 127/118/124 129/118/129
f 131/118/120 118/118/123 130/118/128
f 130/118/128 128/118/127 131/118/120
f 132/97/132 134/97/133 137/97/134
f 132/97/132 137/97/134 136/97/135
f 133/97/136 138/97/137 134/97/133
f 133/97/136 134/97/133 132/97/132
f 139/97/138 133/97/136 132/97/132
f 139/97/138 132/97/132 136/97/135
f 135/97/139 139/97/138 136/97/135
f 135/97/139 136/97/135 137/97/134
f 138/97/137 135/97/139 137/97/134
f 138/97/137 137/97/134 134/97/133
f 138/97/137 133/97/136 139/97/138
f 138/97/137 139/97/138 135/97/139
f 151/89/140 154/89/141 149/89/142
f 151/89/140 149/89/142 152/89/143
f 145/9/144 140/9/145 156/9/146
f 145/9/144 156/9/146 141/9/147
f 140/9/145 142/9/148 148/9/149
f 140/9/145 148/9/149 156/9/146
f 142/9/148 143/9/150 157/9/151
f 142/9/148 157/9/151 148/9/149
f 143/9/150 153/9/152 144/9/153
f 143/9/150 144/9/153 157/9/151
f 153/9/152 145/9/144 141/9/147
f 153/9/152 141/9/147 144/9/153
f 157/9/151 146/9/154 147/9/155
f 157/9/151 147/9/155 148/9/149
f 144/9/153 141/9/147 155/9/156
f 144/9/153 155/9/156 146/9/154
f 145/101/144 149/100/142 150/99/157
f 145/101/144 150/99/157 140/98/145
f 140/98/145 150/99/157 154/100/141
f 140/98/145 154/100/141 142/101/148
f 142/105/148 154/104/141 151/103/140
f 142/105/148 151/103/140 143/102/150
f 143/106/150 151/107/140 152/108/143
f 143/106/150 152/108/143 153/109/152
f 153/102/152 152/103/143 149/104/142
f 153/102/152 149/104/142 145/105/144
f 155/9/156 147/9/155 146/9/154
f 154/89/141 150/89/157 149/89/142
f 155/9/156 141/9/147 156/9/146
f 147/9/155 156/9/146 148/9/149
f 147/9/155 155/9/156 156/9/146
f 146/9/154 157/9/151 144/9/153
f 158/9/158 169/9/159 180/9/160
f 158/9/158 180/9/160 161/9/161
f 159/9/162 169/9/159 158/9/158
f 159/9/162 158/9/158 160/9/163
f 171/9/164 159/9/162 160/9/163
f 171/9/164 160/9/163 166/9/165
f 163/9/166 162/9/167 171/9/164
f 163/9/166 171/9/164 166/9/165
f 161/9/161 180/9/160 162/9/167
f 161/9/161 162/9/167 163/9/166
f 165/9/168 164/9/169 175/9/170
f 165/9/168 175/9/170 167/9/171
f 164/9/169 165/9/168 166/9/165
f 164/9/169 166/9/165 160/9/163
f 165/9/168 167/9/171 163/9/166
f 165/9/168 163/9/166 166/9/165
f 175/9/170 161/9/161 163/9/166
f 175/9/170 163/9/166 167/9/171
f 168/113/172 180/112/160 169/111/159
f 168/113/172 169/111/159 177/110/173
f 177/110/173 169/111/159 159/112/162
f 177/110/173 159/112/162 170/113/174
f 170/114/174 159/115/162 171/116/164
f 170/114/174 171/116/164 172/117/175
f 172/114/175 171/115/164 162/116/167
f 172/114/175 162/116/167 173/117/176
f 179/118/177 174/118/178 178/118/179
f 164/9/169 176/9/180 175/9/170
f 158/9/158 175/9/170 176/9/180
f 158/9/158 161/9/161 175/9/170
f 164/9/169 160/9/163 158/9/158
f 158/9/158 176/9/180 164/9/169
f 179/118/177 168/118/172 177/118/173
f 174/118/178 177/118/173 170/118/174
f 174/118/178 179/118/177 177/118/173
f 172/118/175 178/118/179 174/118/178
f 174/118/178 170/118/174 172/118/175
f 178/118/179 172/118/175 173/118/176
f 179/118/177 173/118/176 168/118/172
f 179/118/177 178/118/179 173/118/176
f 162/115/167 168/117/172 173/114/176
f 168/117/172 162/115/167 180/116/160
f 190/118/181 188/118/182 186/118/183
f 190/118/181 186/118/183 193/118/184
f 189/118/185 191/118/186 196/118/187
f 189/118/185 196/118/187 181/118/188
f 188/97/182 189/97/185 181/97/188
f 188/97/182 181/97/188 186/97/183
f 182/118/189 185/118/190 194/118/191
f 182/118/189 194/118/191 183/118/192
f 195/118/193 187/118/194 183/118/192
f 195/118/193 183/118/192 194/118/191
f 184/118/195 192/118/196 185/118/190
f 184/118/195 185/118/190 182/118/189
f 186/97/183 181/97/188 187/97/194
f 186/97/183 187/97/194 195/97/193
f 188/118/182 190/118/181 191/118/186
f 188/118/182 191/118/186 189/118/185
f 190/122/181 193/121/184 196/120/187
f 190/122/181 196/120/187 191/119/186
f 193/123/184 192/124/196 184/125/195
f 193/123/184 184/125/195 196/126/187
f 185/118/190 192/118/196 193/118/184
f 193/118/184 194/118/191 185/118/190
f 184/118/195 182/118/189 183/118/192
f 183/118/192 196/118/187 184/118/195
f 186/118/183 195/118/193 193/118/184
f 195/118/193 194/118/191 193/118/184
f 187/118/194 181/118/188 196/118/187
f 196/118/187 183/118/192 187/118/194
f 223/127/197 216/127/198 221/127/199
f 223/127/197 221/127/199 225/127/200
f 199/56/201 197/56/202 198/56/203
f 199/56/201 198/56/203 222/56/204
f 213/128/205 212/128/206 211/128/207
f 213/128/205 211/128/207 210/128/208
f 210/128/208 211/128/207 200/128/209
f 210/128/208 200/128/209 219/128/210
f 219/128/210 200/128/209 201/128/211
f 219/128/210 201/128/211 218/128/212
f 203/9/213 208/9/214 202/9/215
f 203/9/213 202/9/215 206/9/216
f 202/9/215 204/9/217 205/9/218
f 202/9/215 205/9/218 206/9/216
f 206/9/216 205/9/218 207/9/219
f 206/9/216 207/9/219 203/9/213
f 203/9/213 207/9/219 209/9/220
f 203/9/213 209/9/220 208/9/214
f 207/9/219 205/9/218 204/9/217
f 207/9/219 204/9/217 209/9/220
f 222/128/204 210/128/208 219/128/210
f 222/128/204 219/128/210 199/128/201
f 211/128/207 212/128/206 201/128/211
f 211/128/207 201/128/211 200/128/209
f 212/129/206 213/130/205 218/131/212
f 212/129/206 218/131/212 201/132/211
f 220/133/221 224/134/222 214/135/223
f 220/133/221 214/135/223 217/136/224
f 224/137/222 226/138/225 215/139/226
f 224/137/222 215/139/226 214/140/223
f 197/141/202 221/142/199 216/143/198
f 197/141/202 216/143/198 198/144/203
f 225/145/200 215/146/226 226/147/225
f 225/145/200 226/147/225 223/148/197
f 213/149/205 220/150/221 217/151/224
f 213/149/205 217/151/224 218/152/212
f 217/128/224 219/128/210 218/128/212
f 217/128/224 199/128/201 219/128/210
f 213/128/205 222/128/204 220/128/221
f 213/128/205 210/128/208 222/128/204
f 197/153/202 225/154/200 221/155/199
f 225/154/200 197/153/202 199/156/201
f 216/155/198 222/156/204 198/153/203
f 222/156/204 216/155/198 223/154/197
f 226/157/225 224/158/222 220/159/221
f 214/158/223 215/157/226 217/159/224
f 225/160/200 217/161/224 215/162/226
f 217/161/224 225/160/200 199/163/201
f 226/162/225 222/163/204 223/160/197
f 222/163/204 226/162/225 220/161/221
f 231/9/227 237/9/228 240/9/229
f 231/9/227 240/9/229 232/9/230
f 237/9/228 227/9/231 228/9/232
f 237/9/228 228/9/232 240/9/229
f 227/9/231 229/9/233 241/9/234
f 227/9/231 241/9/234 228/9/232
f 229/9/233 230/9/235 242/9/236
f 229/9/233 242/9/236 241/9/234
f 230/9/235 231/9/227 232/9/230
f 230/9/235 232/9/230 242/9/236
f 236/9/237 239/9/238 238/9/239
f 233/9/240 234/9/241 235/9/242
f 237/9/228 239/9/238 236/9/237
f 237/9/228 231/9/227 239/9/238
f 236/9/237 227/9/231 237/9/228
f 229/9/233 236/9/237 238/9/239
f 229/9/233 227/9/231 236/9/237
f 230/9/235 229/9/233 238/9/239
f 239/9/238 231/9/227 230/9/235
f 230/9/235 238/9/239 239/9/238
f 233/9/240 232/9/230 240/9/229
f 234/9/241 240/9/229 228/9/232
f 234/9/241 233/9/240 240/9/229
f 241/9/234 235/9/242 234/9/241
f 234/9/241 228/9/232 241/9/234
f 235/9/242 241/9/234 242/9/236
f 233/9/240 242/9/236 232/9/230
f 233/9/240 235/9/242 242/9/236
f 243/9/243 244/9/244 247/9/245
f 243/9/243 247/9/245 245/9/246
f 245/9/246 246/9/247 251/9/248
f 245/9/246 251/9/248 254/9/249
f 246/9/247 247/9/245 249/9/250
f 246/9/247 249/9/250 251/9/248
f 247/9/245 244/9/244 248/9/251
f 247/9/245 248/9/251 249/9/250
f 244/9/244 243/9/243 253/9/252
f 244/9/244 253/9/252 248/9/251
f 243/9/243 245/9/246 254/9/249
f 243/9/243 254/9/249 253/9/252
f 255/9/253 250/9/254 252/9/255
f 246/9/247 245/9/246 247/9/245
f 255/9/253 254/9/249 251/9/248
f 250/9/254 251/9/248 249/9/250
f 250/9/254 255/9/253 251/9/248
f 248/9/251 252/9/255 250/9/254
f 250/9/254 249/9/250 248/9/251
f 252/9/255 248/9/251 253/9/252
f 255/9/253 253/9/252 254/9/249
f 255/9/253 252/9/255 253/9/252
f 256/97/256 258/97/257 259/97/258
f 256/97/256 259/97/258 257/97/259
f 257/164/259 260/165/260 262/166/261
f 257/164/259 262/166/261 256/167/256
f 261/168/262 258/169/257 256/170/256
f 261/168/262 256/170/256 262/171/261
f 259/172/258 263/173/263 260/174/260
f 259/172/258 260/174/260 257/175/259
f 260/176/260 263/177/263 261/178/262
f 260/176/260 261/178/262 262/179/261
f 258/180/257 261/181/262 263/182/263
f 258/180/257 263/182/263 259/183/258
f 276/9/264 271/9/265 264/9/266
f 276/9/264 264/9/266 268/9/267
f 265/9/268 266/9/269 271/9/265
f 265/9/268 271/9/265 276/9/264
f 267/9/270 273/9/271 266/9/269
f 267/9/270 266/9/269 265/9/268
f 269/9/272 275/9/273 273/9/271
f 269/9/272 273/9/271 267/9/270
f 268/9/267 264/9/266 275/9/273
f 268/9/267 275/9/273 269/9/272
f 272/9/274 270/9/275 274/9/276
f 278/9/277 277/9/278 279/9/279
f 274/9/276 270/9/275 271/9/265
f 270/9/275 264/9/266 271/9/265
f 271/9/265 266/9/269 274/9/276
f 272/9/274 274/9/276 273/9/271
f 274/9/276 266/9/269 273/9/271
f 272/9/274 273/9/271 275/9/273
f 275/9/273 264/9/266 270/9/275
f 270/9/275 272/9/274 275/9/273
f 276/9/264 268/9/267 279/9/279
f 265/9/268 276/9/264 277/9/278
f 276/9/264 279/9/279 277/9/278
f 277/9/278 278/9/277 267/9/270
f 267/9/270 265/9/268 277/9/278
f 269/9/272 267/9/270 278/9/277
f 268/9/267 269/9/272 279/9/279
f 269/9/272 278/9/277 279/9/279
f 287/9/280 280/9/281 285/9/282
f 287/9/280 285/9/282 281/9/283
f 282/9/284 288/9/285 281/9/283
f 282/9/284 281/9/283 289/9/286
f 283/9/287 287/9/280 288/9/285
f 283/9/287 288/9/285 282/9/284
f 284/9/288 280/9/281 287/9/280
f 284/9/288 287/9/280 283/9/287
f 290/9/289 285/9/282 280/9/281
f 290/9/289 280/9/281 284/9/288
f 289/9/286 281/9/283 285/9/282
f 289/9/286 285/9/282 290/9/289
f 292/9/290 286/9/291 291/9/292
f 287/9/280 281/9/283 288/9/285
f 282/9/284 289/9/286 291/9/292
f 283/9/287 282/9/284 286/9/291
f 282/9/284 291/9/292 286/9/291
f 286/9/291 292/9/290 284/9/288
f 284/9/288 283/9/287 286/9/291
f 290/9/289 284/9/288 292/9/290
f 289/9/286 290/9/289 291/9/292
f 290/9/289 292/9/290 291/9/292
f 294/97/293 293/97/294 295/97/295
f 294/97/293 295/97/295 296/97/296
f 295/167/295 297/166/297 298/165/298
f 295/167/295 298/165/298 296/164/296
f 293/168/294 300/169/299 297/170/297
f 293/168/294 297/170/297 295/171/295
f 296/175/296 298/174/298 299/173/300
f 296/175/296 299/173/300 294/172/293
f 297/179/297 300/178/299 299/177/300
f 297/179/297 299/177/300 298/176/298
f 294/183/293 299/182/300 300/181/299
f 294/183/293 300/181/299 293/180/294
